<?xml version="1.0" encoding="UTF-8"?>
<svg data-bbox="-0.006 -0.006 783.396 247.975" viewBox="0 0 783.39 247.97" xmlns="http://www.w3.org/2000/svg" data-type="ugc">
    <g>
        <path d="M148.38 247.88c-1.51.03-3.02.08-4.53.08H13.88c-3.39 0-2.87.32-3.9-2.78-2.84-8.58-4.94-17.36-6.71-26.21-.79-3.95-1.19-7.98-1.79-11.98-.67-4.47-.94-8.97-1.08-13.48-.47-14.52-.66-29.05.14-43.57.14-2.58.57-5.15.93-7.71.4-2.81.72-5.65 1.35-8.42.9-3.97 2.05-7.88 3.1-11.81 1.6-5.93 3.58-11.76 6.05-17.36 3.41-7.73 7.26-15.27 11.78-22.44 18.66-29.59 43.99-51.59 75.61-66.4 13.71-6.42 28.06-10.83 42.96-13.45 4.12-.72 8.3-1.19 12.47-1.47 6.39-.43 12.8-.81 19.2-.83C211.86-.03 249.73 0 287.61 0c.98 0 1.97 0 2.95.04 2.22.08 2.31.07 2.88 2.09 1.74 6.16 3.61 12.29 5.07 18.52 2.55 10.88 4.07 21.92 4.71 33.09.57 9.9.87 19.8.68 29.71-.09 4.68-.28 9.39-.8 14.04-.46 4.14-.28 8.39-1.79 12.38-.78 9.25-3.47 18.05-6.41 26.76-1.37 4.05-3.27 7.91-4.79 11.91-3.73 9.81-9.04 18.77-14.91 27.4-13.46 19.81-30.49 35.89-50.9 48.39-13.77 8.44-28.5 14.64-44.13 18.67-5.08 1.31-10.2 2.58-15.38 3.39-5.12.8-10.34 1-15.51 1.46-.3 0-.6 0-.91.01Zm43.68-135.8c.11 1.43 0 2.93.39 4.27.72 2.46.37 5.02 1.05 7.51.72 2.66.77 5.49 1.11 8.25.47 3.82.97 7.64 1.39 11.47.25 2.25.26 4.52.56 6.76.51 3.9 1.22 7.77 1.74 11.66.4 2.97.6 5.97.99 8.95.52 3.99 1.18 7.97 1.72 11.96.52 3.86.96 7.73 1.45 11.59.21 1.7.45 3.41.68 5.17h40.56c-.18-1.81-.34-3.49-.52-5.18-.01-.15-.1-.28-.13-.43-.55-3.08-1.16-6.15-1.63-9.25-.51-3.38-.89-6.78-1.35-10.17-.09-.65-.37-1.28-.45-1.93-.38-3.04-.39-6.18-1.19-9.1-.58-2.12-.8-4.28-.98-6.35-.5-5.83-2.28-11.46-2.49-17.32-.03-.74-.31-1.47-.49-2.2-.1-.43-.27-.85-.32-1.28-.41-2.96-.75-5.93-1.2-8.89-.46-3.04-1.07-6.06-1.51-9.11-.41-2.87-.64-5.76-1.03-8.63-.17-1.26-.6-2.48-.79-3.73-.45-3.04-.76-6.1-1.23-9.13-.43-2.74-1.08-5.44-1.48-8.18-.44-3.02-.67-6.07-1.06-9.09-.15-1.18-.59-2.33-.76-3.51-.46-3.12-.79-6.25-1.28-9.36-.41-2.65-1.05-5.26-1.44-7.91-.43-2.96-.61-5.95-1.02-8.9-.25-1.83-.73-3.62-1.08-5.29h-5.12c-9.9 0-19.81.01-29.71 0-1.36 0-2.72-.13-4.07-.2-1.13-.06-1.81.41-2.12 1.53-.3 1.06-.68 2.11-1.11 3.13-1.72 4.14-3.52 8.24-5.21 12.39-2.44 6-4.83 12.02-7.21 18.05-2.2 5.6-4.31 11.23-6.55 16.81-2.15 5.34-4.47 10.62-6.63 15.96-1.71 4.23-3.28 8.52-4.93 12.77-.09.23-.35.4-.76.86-10.37-27.3-20.62-54.31-30.87-81.3H75.84c-.48 3-.91 5.87-1.42 8.72-.39 2.19-.95 4.35-1.33 6.54-.56 3.22-1.02 6.46-1.54 9.69-.52 3.21-1.06 6.41-1.59 9.62-.3 1.85-.56 3.7-.9 5.54-.44 2.39-1.01 4.76-1.4 7.16-.57 3.47-.99 6.97-1.56 10.45-.3 1.84-.87 3.64-1.17 5.48-.65 3.9-1.19 7.82-1.8 11.73-.27 1.75-.61 3.49-.9 5.24-.42 2.57-.78 5.15-1.25 7.72-.45 2.47-1.07 4.91-1.48 7.38-.62 3.7-1.09 7.42-1.69 11.11-.27 1.69-.78 3.35-1.05 5.04-.51 3.16-.88 6.34-1.38 9.5-.56 3.52-1.19 7.02-1.79 10.54-.29 1.7-.57 3.39-.88 5.09-.44 2.39-.97 4.76-1.36 7.16-.45 2.79-.76 5.61-1.2 8.41-.14.92-.47 1.81-.73 2.78h40.76c.39-2.9.74-5.63 1.12-8.36.12-.87.32-1.74.44-2.61.22-1.61.39-3.22.63-4.82.36-2.35.86-4.67 1.16-7.03.37-2.88.49-5.79.92-8.67.59-3.97 1.43-7.9 2.03-11.86.35-2.3.07-4.77.76-6.94 1.08-3.39.98-6.91 1.69-10.34 1.07-5.18 1.61-10.47 2.33-15.71.22-1.64.26-3.3.47-4.94.23-1.85.54-3.69.86-5.53.08-.44.34-.84.66-1.57.63 1.68 1.1 3.01 1.61 4.31 1.03 2.62 2.1 5.22 3.12 7.84 1.62 4.12 3.19 8.26 4.83 12.37 1.83 4.57 3.74 9.11 5.56 13.69 1.35 3.41 2.55 6.89 3.91 10.29 1.67 4.15 3.49 8.24 5.15 12.4 1.37 3.41 2.57 6.88 3.9 10.3a901 901 0 0 0 5.3 13.33c.58 1.41 1.33 2.75 1.92 3.94H155c1.09-2.79 2.12-5.51 3.22-8.2 1.07-2.63 2.21-5.23 3.32-7.85.89-2.11 1.77-4.21 2.65-6.32 1.38-3.3 2.76-6.61 4.13-9.92.87-2.11 1.72-4.23 2.6-6.34 1.07-2.53 2.19-5.04 3.25-7.57 1.29-3.06 2.54-6.13 3.82-9.19.97-2.33 1.99-4.64 2.94-6.99 1.19-2.95 2.29-5.93 3.5-8.87 1.4-3.42 2.88-6.81 4.33-10.21.89-2.09 1.77-4.18 2.65-6.26.21.03.42.05.63.08Z" fill="#af191b"/>
        <path d="M691.39 138.87c.02-1.06.07-2.11.07-3.17V46.01c0-.37.05-.75.07-1.1 1.67-.46 37.37-.54 40.16-.09v154.59c-.74.04-1.53.12-2.32.12-12.02.02-24.04 0-36.07.08-1.52.01-2.34-.64-3.16-1.71-8.05-10.41-16.13-20.8-24.2-31.2-15.68-20.2-31.36-40.39-47.04-60.58-.31-.4-.67-.78-1.41-1.62-.04 3.93-.02 7.35-.02 10.77v84.17h-40.02c-.4-1.39-.58-151.33-.14-154.76.55-.05 1.14-.14 1.72-.14 12.1 0 24.2.01 36.3 0 1.28 0 2.24.24 3.11 1.37 22.91 29.52 45.85 59.02 68.8 88.51 1.2 1.54 2.5 3.01 3.75 4.51l.36.27c.02-.11.03-.22.05-.33Z" fill="#30383c"/>
        <path d="M558.61 82.75c-4.6 2.58-36.54 15.64-38.22 15.68-1.35-2.58-2.57-5.23-4.07-7.71-3.2-5.27-7.45-9.56-12.95-12.39-6.75-3.48-13.94-4.63-21.47-3.59-13.1 1.8-21.94 9.38-28.23 20.57-2.86 5.09-4.36 10.63-5.75 16.22-1.2 4.85-1 9.79-.96 14.72.05 5.77 1.46 11.31 3.34 16.7 3.12 8.96 8.28 16.49 16.12 22.03 4.04 2.86 8.55 4.56 13.35 5.69 3.75.88 7.58 1.26 11.3.83 9.94-1.16 19-4.32 24.65-13.45 2.45-3.96 4.08-8.23 3.83-13.33h-32.11v-31.63h79.62c0 .69.03 1.28 0 1.86-.25 4.91-.36 9.83-.81 14.72-.37 3.98-1.41 7.9-1.69 11.88-.37 5.25-2.04 10.15-3.88 14.92-7.99 20.65-22 35.49-43.01 43.13-4.57 1.66-9.39 2.69-14.16 3.68-7.1 1.48-14.32 1.47-21.55 1.21-3.91-.14-7.76-.7-11.61-1.2-2.5-.32-4.94-1.11-7.39-1.77-22.97-6.21-39.89-19.77-50.23-41.36-2.34-4.9-3.9-10.05-5.22-15.29-2.7-10.64-2.94-21.45-1.96-32.32.28-3.18.49-6.38 1.1-9.5.58-2.94 1.63-5.78 2.49-8.66 3.46-11.53 9.3-21.69 17.57-30.43 6.85-7.23 14.91-12.74 23.99-16.8a81.874 81.874 0 0 1 18.5-5.77c10.5-1.96 21.08-2.62 31.7-1.1 4.06.58 8.15 1.3 12.09 2.42 19.52 5.56 33.82 17.6 43.3 35.47.78 1.46 1.51 2.95 2.32 4.54Z" fill="#31393c"/>
        <path d="M362.42 172.6h-55.16c-1.08 2.61-2.16 5.21-3.23 7.83-1.14 2.79-2.29 5.58-3.38 8.38-1.06 2.73-2.13 5.47-3.07 8.24-.86 2.51-.84 2.51-3.49 2.5-6.88-.03-13.76 0-20.63 0h-2.83c.86-1 1.38-1.61 1.9-2.23 10.67-12.49 19.5-26.17 26.29-41.14 1.94-4.29 3.45-8.77 5.25-13.12 2.63-6.34 4.45-12.93 5.97-19.59.91-3.98 1.38-8.06 2.17-12.07 1.4-7.07 2.27-14.21 2.35-21.41.16-14.67.47-29.34-.94-43.98-.04-.37 0-.75 0-1.3.59-.06 1.16-.17 1.72-.17 13.15 0 26.31-.01 39.46 0 2.54 0 2.45.06 3.24 2.41 1.05 3.13 2.24 6.22 3.41 9.31 1.09 2.89 2.25 5.75 3.36 8.63 1.26 3.29 2.51 6.59 3.75 9.89.88 2.34 1.73 4.7 2.61 7.04 1.24 3.29 2.53 6.57 3.75 9.87 1.07 2.9 2.02 5.84 3.11 8.72 1.19 3.16 2.52 6.28 3.72 9.44 1.36 3.61 2.62 7.25 3.97 10.86 1.18 3.16 2.47 6.28 3.66 9.44 1.09 2.91 2.06 5.86 3.16 8.77 1.19 3.16 2.5 6.29 3.7 9.45.92 2.42 1.73 4.89 2.64 7.31 1.19 3.15 2.45 6.28 3.66 9.43 1.05 2.75 2.07 5.51 3.12 8.27 1.12 2.96 2.26 5.91 3.38 8.88.89 2.34 1.77 4.69 2.63 7.04 1.21 3.31 2.4 6.62 3.67 10.1h-42.72c-3.68-8.71-6.64-17.8-10.17-26.82Zm-11-30.99c-5.46-16.41-10.86-32.64-16.39-49.29-5.64 16.62-11.47 32.75-16.52 49.29h32.91Z" fill="#31383c"/>
        <path d="M783.39 199.44h-40.11V44.92c1.57-.47 36.77-.6 40.11-.13v154.65Z" fill="#30383c"/>
        <path d="M444.62 240.81c-7.22-.11-13.53-5.3-15.2-12.68-1.89-8.4 2.93-16.34 10.26-18.87 5.78-1.99 12.06-.31 16.06 4.33 8.46 9.81 3.2 24.04-8.01 26.72-1.02.24-2.07.33-3.11.5Zm-.34-30.29c-.97.14-1.95.19-2.9.42-4.87 1.21-9.12 6.13-9.96 11.17-.65 3.91-.1 7.46 2.26 10.69 4.44 6.07 11.52 7.38 17.53 3.94 5.03-2.88 8.31-12.12 5.37-17.82-2.67-5.17-6.61-8.32-12.3-8.4Z" fill="#b32728"/>
        <path d="M653.26 235.12v-26.19c.71-.05 1.26-.09 1.94-.14v32.49c-8.18-9.07-16.07-17.84-23.97-26.6-.28-.23-.56-.47-.85-.7-.01.26-.02.53-.04.79v25.29c-.69.06-1.23.11-1.89.17v-31.79c8.15 9.06 16.1 17.9 24.04 26.73l.56.43c.06-.15.13-.31.19-.46Z" fill="#b22224"/>
        <path d="M564.31 209.3v12.63h17.8l.15-12.63c.11-.14.23-.28.34-.43h1.34c.11.14.22.28.32.42.03 6.65.07 13.31.08 19.96 0 3.48-.03 6.95-.05 10.43-.12.15-.23.3-.35.45h-1.75v-15.78h-17.77c-.03 5.12-.07 10.22-.1 15.32-.12.15-.23.3-.35.45h-1.63c-.05-.59-.13-1.1-.13-1.62v-28.33c0-.3.05-.6.08-.9.11-.14.23-.28.34-.43h1.34c.11.14.22.28.32.42Z" fill="#b11f21"/>
        <path d="M667.91 240.19v-31.21c2.51 0 4.97-.06 7.42.03 1.18.04 2.39.22 3.51.58 5.5 1.77 8.51 5.84 9.76 11.25 1.15 4.96.16 9.62-2.86 13.75-2.55 3.48-6.02 5.39-10.34 5.59-2.41.11-4.82.02-7.5.02Zm2.31-2c1.58.01 3.18.17 4.74 0 5.33-.54 8.98-3.19 10.85-8.42 1.83-5.12 1.42-9.72-2.03-13.99-3.62-4.48-8.42-5.18-13.89-4.56v26.61l.32.35Z" fill="#b32426"/>
        <path d="M747.3 225.69v14.35c-.69.07-1.24.13-2.09.22-.22-10.48 0-20.8-.13-31.22 2.05-.52 3.99-.27 5.9-.1 1.03.09 2.08.28 3.05.62 2.5.87 3.86 2.91 4.41 5.31 1.03 4.54-.54 9.21-5.8 10.35-.58.13-1.13.36-2.01.65 3.04 4.7 6.05 9.34 9.11 14.08-1.42.56-2.21.24-2.94-.92-2.58-4.09-5.26-8.12-7.91-12.16-.32-.48-.73-.91-1.11-1.36-.16.06-.33.12-.49.18Zm.48-14.74-.46.17v12.23c1.41 0 2.68.11 3.93-.02 3.08-.32 5.35-3.09 5.28-6.3-.07-3.28-2.38-5.77-5.59-5.99-1.05-.07-2.11-.06-3.16-.09Z" fill="#b22224"/>
        <path d="M618.53 240.2h-1.83c-1.32-3.37-2.59-6.62-3.91-10h-13.14c-1.09 2.99-2.19 5.97-3.26 8.96-.45 1.26-1.32 1.22-2.54.84 4.07-10.6 8.11-21.11 12.15-31.63.16-.02.32-.05.48-.07.65 1.59 1.32 3.18 1.94 4.78 1.4 3.64 2.77 7.3 4.16 10.95.87 2.27 1.76 4.54 2.65 6.81 1.15 2.95 2.31 5.9 3.46 8.85l-.15.51Zm-12.27-26.78c-2.15 4.95-3.8 9.64-5.6 14.41h11.26l-5.66-14.41Z" fill="#b32426"/>
        <path d="M533.93 234.73c.3 1.37-.28 2.31-1.39 3.06-4.46 2.99-9.29 3.94-14.29 1.85-3.53-1.47-6.25-4.14-8.1-7.58-2.55-4.72-2.42-9.64-.45-14.37 2.73-6.57 10.4-10.42 17.14-8.85 1.77.42 3.43 1.38 5.09 2.2 1.68.83 2.4 2.22 2 4.11h-.69c-2.58-2.76-5.65-4.49-9.52-4.52-5.23-.04-8.75 2.77-11.41 6.96-3.34 5.28-2.14 13.03 2.55 17.3 5.7 5.19 12.33 4.79 17.67.17.33-.28.71-.51 1.07-.76.11.15.22.29.33.44Z" fill="#b32426"/>
        <path d="M418.32 214.75c-1.76-1.55-3.58-3.03-5.9-3.67-5.24-1.46-10.4.4-13.78 4.96-2.96 4-3.66 8.47-2.33 13.16 2.41 8.49 13.56 12.07 20.59 6.72.6-.46 1.19-.92 1.79-1.38.16.08.32.15.48.23.24 1.54-.44 2.49-1.72 3.35-8.42 5.6-17.31 1.36-21.29-4.84-2.81-4.37-3.37-9.25-1.72-13.86 3.5-9.81 13.3-13.1 20.65-9.65.75.35 1.42.84 2.15 1.23 1.49.8 2.24 1.97 1.9 3.7l-.83.06Z" fill="#b32728"/>
        <path d="M780.33 214.5c-.75-.84-1.25-1.51-1.86-2.07-1.71-1.58-3.73-2.18-5.98-1.52-2.43.71-3.27 2.86-3.78 4.96-.43 1.76.77 3.17 2.07 4.24.92.76 2.02 1.31 3.07 1.91 1.97 1.12 4.01 2.12 5.92 3.34 3.04 1.94 4.09 5.34 2.85 8.71-1.48 4.02-4.64 6.51-8.44 6.62-4.17.13-7.13-1.98-9.21-6.7l1.64-.95c.49.84.83 1.5 1.23 2.12 1.64 2.52 4.49 4 6.89 3.43 3.12-.75 5.2-2.69 6-5.84.46-1.81.08-3.49-1.36-4.76-.96-.84-2-1.61-3.09-2.27-2.01-1.2-4.09-2.27-6.12-3.43-5.01-2.87-3.9-9.29-1.06-11.88 3.38-3.09 9.47-2.36 12.01 1.46.72 1.08.05 1.62-.78 2.62Z" fill="#b32728"/>
        <path d="M381.44 214.3c-2-2.83-4.46-4.44-7.82-3.37-2.53.81-3.63 3.69-3.23 8.01 1.48.96 3.08 2.07 4.76 3.07 1.75 1.04 3.6 1.92 5.34 2.98 3.43 2.09 4.31 4.31 3.44 8.31-1.07 4.85-4.72 7.7-9.53 7.38-2.83-.19-4.98-1.61-6.63-3.84-.62-.83-1.11-1.76-1.65-2.63 1.7-1.21 1.63-1.16 2.61.24.76 1.1 1.6 2.23 2.66 3.01 2.5 1.86 5.85 1.55 8.36-.53 2.17-1.81 3.04-4.89 1.78-7.54-.55-1.15-1.62-2.19-2.7-2.9-2.27-1.48-4.73-2.67-7.08-4.02-3.51-2.02-4.86-6.23-3.18-9.8 1.86-3.97 7.77-5.48 11.52-2.9.74.51 1.43 1.14 2.01 1.82.79.92.63 1.56-.62 2.73Z" fill="#b32728"/>
        <path d="M309.44 224.13h-11.15v13.73c.1.1.2.21.31.31 3.46.04 6.93.1 10.39.12 1.17 0 1.73.39 1.28 1.78h-14.29v-30.78c.11-.15.22-.29.34-.44h13.97v1.76l-.39.36-11.31.18c-.1.14-.21.28-.31.41v10.45h11.61v1.78c-.15.11-.29.22-.44.32Z" fill="#ae1b1d"/>
        <path d="M719.19 208.86h13.88c.03.69.06 1.26.1 2.09h-12.12v11.08h11.71v1.79c-.15.11-.29.22-.44.32h-11.34c-.02 2.4-.06 4.7-.05 7 0 2.25.05 4.51.08 6.76.15.13.31.25.46.38h11.19c.06.67.1 1.16.16 1.82h-13.98v-30.77c.12-.15.23-.3.35-.45Z" fill="#ae1b1d"/>
        <path d="M472.34 240.14h-1.7v-30.85c.11-.15.23-.29.34-.44 3.21-.09 6.41-.42 9.55.81 1.85.73 3.08 1.96 3.72 3.67.61 1.65 1.03 3.41.78 5.24-.5 3.61-2.79 6.07-6.39 6.62-1.85.28-3.73.35-5.85.54-.04 4.65-.07 9.3-.11 13.95-.12.15-.23.3-.35.45Zm.47-16.46c2.25-.3 4.28-.37 6.2-.86 2.46-.64 4-3.2 3.95-5.96-.05-2.37-1.81-5.02-3.93-5.57-2.04-.53-4.12-.26-6.21-.16v12.55Z" fill="#b22224"/>
        <path d="M343.97 238.18c3.47.04 6.94.1 10.41.11 1.2 0 1.68.45 1.27 1.79h-13.88v-31.22h13.89v1.76l-.39.36c-3.02.02-6.04.03-9.05.06-.75 0-1.5.09-2.25.13l-.28.4v10.38c.7.05 1.49.15 2.27.15 2.32 0 4.64-.05 6.96-.02.8.01 1.6.2 2.4.3.1.18.21.35.31.53.16 1.05-.4 1.29-1.32 1.28-2.64-.02-5.28 0-7.92.02h-2.79c-.01 4.65-.12 9.14.06 13.64.1.11.21.21.31.32Z" fill="#ae1b1d"/>
        <path d="M269.26 210.61c-.02-.44-.05-.88-.07-1.32l.35-.44 16.53-.06c.13 0 .26.12.55.26.02.49.05 1.06.08 1.89h-7.65v29.12c-.74.05-1.29.08-2.1.14v-29.05c-2.62-.09-5-.16-7.38-.24l-.3-.3Z" fill="#ae1b1d"/>
        <path d="M324.9 238.27h6.69c.04.69.06 1.19.09 1.83h-9.04c-.49-1.65-.67-26.9-.21-31.11.5-.07 1.04-.14 1.71-.23.08.67.2 1.18.2 1.69.01 7.18 0 14.37.01 21.55 0 1.96.05 3.93.08 5.89.15.13.31.25.46.38Z" fill="#ae1b1d"/>
        <path d="M702.4 238.27c1.81.01 3.63.05 5.44.03 1.23-.02 1.65.5 1.27 1.81h-8.95c-.5-1.64-.69-26.74-.22-31.11.5-.07 1.04-.15 1.68-.24.1.59.22 1.03.23 1.46.01 7.03 0 14.07.01 21.1 0 2.19.05 4.38.08 6.57.15.13.31.25.46.38Z" fill="#ae1b1d"/>
        <path d="M497.54 240.14h-1.8v-31.18c.54-.06 1.09-.13 1.8-.21v31.39Z" fill="#af191b"/>
        <path d="M148.38 247.88c.3 0 .6-.01.91-.01-.3 0-.6.01-.91.01Z" fill="#cd7b7b"/>
        <path d="m418.32 214.75.83-.06c-.06.23-.12.47-.17.7-.22-.21-.44-.43-.65-.64Z" fill="#c85c64"/>
        <path d="M630.35 214.76c.01-.26.02-.53.04-.79.28.23.56.47.85.7l-.88.09Z" fill="#ecc8c8"/>
        <path d="M653.26 235.12c-.06.15-.13.31-.19.46l-.56-.43.76-.03Z" fill="#eac1c1"/>
        <path d="M533.93 234.73c-.11-.15-.22-.29-.33-.44l.31-.1c0 .18.01.36.02.54Z" fill="#c65958"/>
        <path d="M533.24 215.15h.69c-.09.14-.18.27-.27.41-.14-.14-.28-.27-.42-.41Z" fill="#c85c64"/>
        <path d="M719.19 208.86c-.12.15-.23.3-.35.45.12-.15.23-.3.35-.45Z" fill="#c85c64"/>
        <path d="m269.26 210.61.3.3-.3-.3Z" fill="#c35254"/>
        <path d="M582.61 208.87c-.11.14-.23.28-.34.43.11-.14.23-.28.34-.43Z" fill="#c34b4d"/>
        <path d="M564.31 209.3c-.11-.14-.22-.28-.32-.42.11.14.22.28.32.42Z" fill="#c35254"/>
        <path d="M562.65 208.87c-.11.14-.23.28-.34.43.11-.14.23-.28.34-.43Z" fill="#c34b4d"/>
        <path d="M470.99 208.85c-.11.15-.23.29-.34.44.11-.15.23-.29.34-.44Z" fill="#c34b4d"/>
        <path d="M298.27 211.58c.1-.14.21-.28.31-.41-.1.14-.21.28-.31.41Z" fill="#eac1c1"/>
        <path d="M584.28 209.3c-.11-.14-.22-.28-.32-.42.11.14.22.28.32.42Z" fill="#c35254"/>
        <path d="M355.63 222.92c-.1-.18-.21-.35-.31-.53.1.18.21.35.31.53Z" fill="#c35254"/>
        <path d="M309.44 224.13c.15-.11.29-.22.44-.32-.15.11-.29.22-.44.32Z" fill="#c34b4d"/>
        <path d="M732.32 224.13c.15-.11.29-.22.44-.32-.15.11-.29.22-.44.32Z" fill="#c34b4d"/>
        <path d="M296.31 208.86c-.11.15-.22.29-.34.44.11-.15.22-.29.34-.44Z" fill="#c35254"/>
        <path d="m355.27 210.99.39-.36-.39.36Z" fill="#c34b4d"/>
        <path d="M419.17 234.76c-.16-.08-.32-.15-.48-.23.15-.05.31-.09.46-.14 0 .12.01.24.02.36Z" fill="#cd7b7b"/>
        <path d="m269.54 208.86-.35.44.35-.44Z" fill="#c35254"/>
        <path d="M691.39 138.87c-.02.11-.03.22-.05.33l-.36-.27c.13-.06.27-.09.41-.06Z" fill="#d8d9d9"/>
        <path d="m309.89 210.99.39-.36-.39.36Z" fill="#c34b4d"/>
        <path d="M298.59 238.18c-.1-.1-.2-.21-.31-.31.1.1.2.21.31.31Z" fill="#ecc8c8"/>
        <path d="M324.9 238.27c-.15-.13-.31-.25-.46-.38.15.13.31.25.46.38Z" fill="#ecc8c8"/>
        <path d="M343.97 238.18c-.1-.11-.21-.21-.31-.32.1.11.21.21.31.32Z" fill="#ecc8c8"/>
        <path d="M702.4 238.27c-.15-.13-.31-.25-.46-.38.15.13.31.25.46.38Z" fill="#ecc8c8"/>
        <path d="M721.46 238.27c-.15-.13-.31-.25-.46-.38.15.13.31.25.46.38Z" fill="#ecc8c8"/>
        <path d="M472.34 240.14c.12-.15.23-.3.35-.45-.12.15-.23.3-.35.45Z" fill="#c35254"/>
        <path d="M563.99 240.14c.12-.15.23-.3.35-.45-.12.15-.23.3-.35.45Z" fill="#c35254"/>
        <path d="M583.96 240.14c.12-.15.23-.3.35-.45-.12.15-.23.3-.35.45Z" fill="#c35254"/>
        <path d="m618.53 240.2.15-.51-.15.51Z" fill="#eac1c1"/>
        <path d="m343.68 211.58.28-.4-.28.4Z" fill="#eac1c1"/>
        <path d="M191.43 111.99c-.88 2.09-1.77 4.18-2.65 6.26-1.44 3.4-2.92 6.79-4.33 10.21-1.21 2.94-2.31 5.92-3.5 8.87-.95 2.34-1.97 4.66-2.94 6.99-1.28 3.06-2.53 6.13-3.82 9.19-1.07 2.53-2.19 5.04-3.25 7.57-.89 2.1-1.73 4.23-2.6 6.34-1.37 3.31-2.75 6.61-4.13 9.92-.88 2.11-1.77 4.22-2.65 6.32-1.1 2.62-2.24 5.22-3.32 7.85-1.1 2.69-2.13 5.41-3.22 8.2h-16.45c-.59-1.19-1.34-2.53-1.92-3.94-1.81-4.43-3.57-8.87-5.3-13.33-1.33-3.42-2.54-6.89-3.9-10.3-1.67-4.15-3.49-8.25-5.15-12.4-1.37-3.41-2.56-6.88-3.91-10.29-1.81-4.58-3.73-9.12-5.56-13.69-1.64-4.11-3.21-8.25-4.83-12.37-1.03-2.62-2.09-5.22-3.12-7.84-.51-1.31-.98-2.63-1.61-4.31-.32.74-.58 1.14-.66 1.57-.32 1.84-.63 3.68-.86 5.53-.21 1.64-.24 3.3-.47 4.94-.72 5.25-1.25 10.54-2.33 15.71-.71 3.43-.61 6.95-1.69 10.34-.69 2.17-.41 4.64-.76 6.94-.61 3.96-1.44 7.89-2.03 11.86-.43 2.87-.55 5.78-.92 8.67-.3 2.35-.79 4.68-1.16 7.03-.25 1.6-.41 3.22-.63 4.82-.12.87-.32 1.74-.44 2.61-.38 2.73-.73 5.46-1.12 8.36H49.44c.26-.97.59-1.86.73-2.78.43-2.8.74-5.62 1.2-8.41.39-2.4.92-4.77 1.36-7.16.31-1.69.59-3.39.88-5.09.6-3.51 1.23-7.02 1.79-10.54.5-3.16.87-6.34 1.38-9.5.27-1.69.78-3.35 1.05-5.04.6-3.7 1.07-7.42 1.69-11.11.41-2.47 1.03-4.91 1.48-7.38.46-2.56.82-5.14 1.25-7.72.29-1.75.63-3.49.9-5.24.61-3.91 1.15-7.83 1.8-11.73.31-1.84.87-3.64 1.17-5.48.57-3.47.99-6.97 1.56-10.45.39-2.4.96-4.77 1.4-7.16.34-1.84.6-3.69.9-5.54.53-3.21 1.07-6.41 1.59-9.62.52-3.23.98-6.47 1.54-9.69.38-2.19.94-4.35 1.33-6.54.51-2.85.93-5.72 1.42-8.72H116c10.25 26.99 20.51 54 30.87 81.3.42-.46.67-.62.76-.86 1.65-4.25 3.22-8.54 4.93-12.77 2.16-5.34 4.48-10.61 6.63-15.96 2.24-5.58 4.35-11.21 6.55-16.81 2.37-6.03 4.77-12.05 7.21-18.05 1.69-4.15 3.49-8.26 5.21-12.39.42-1.02.81-2.07 1.11-3.13.31-1.12 1-1.6 2.12-1.53 1.36.08 2.72.2 4.07.2 9.9.02 19.81 0 29.71 0h5.12c.35 1.67.83 3.46 1.08 5.29.41 2.96.6 5.95 1.02 8.9.38 2.65 1.02 5.26 1.44 7.91.49 3.11.82 6.25 1.28 9.36.17 1.18.61 2.33.76 3.51.39 3.02.62 6.07 1.06 9.09.4 2.74 1.05 5.45 1.48 8.18.47 3.04.79 6.09 1.23 9.13.18 1.26.62 2.48.79 3.73.39 2.87.62 5.76 1.03 8.63.44 3.04 1.05 6.06 1.51 9.11.45 2.95.79 5.92 1.2 8.89.06.43.22.85.32 1.28.17.73.46 1.46.49 2.2.21 5.86 1.99 11.49 2.49 17.32.18 2.07.4 4.23.98 6.35.8 2.92.81 6.06 1.19 9.1.08.65.36 1.28.45 1.93.46 3.39.84 6.79 1.35 10.17.47 3.09 1.08 6.17 1.63 9.25.03.15.11.28.13.43l.52 5.18h-40.56c-.23-1.76-.47-3.46-.68-5.17-.49-3.86-.93-7.73-1.45-11.59-.54-3.99-1.19-7.97-1.72-11.96-.39-2.97-.59-5.97-.99-8.95-.53-3.89-1.23-7.76-1.74-11.66-.3-2.24-.31-4.51-.56-6.76-.42-3.83-.92-7.65-1.39-11.47-.34-2.76-.39-5.59-1.11-8.25-.67-2.49-.33-5.05-1.05-7.51-.4-1.35-.28-2.84-.39-4.27.47-.53.29-.88-.41-1.31-.09.53-.16.88-.22 1.23Z" fill="#fefefe"/>
        <path d="M191.43 111.99c.06-.35.12-.7.22-1.23.7.43.88.78.41 1.31-.21-.03-.42-.05-.63-.08Z" fill="#e5afb0"/>
        <path d="M669.9 237.84Z" fill="#e5afb0"/>
        <path d="m747.78 210.95-.46.17.46-.17Z" fill="#c65958"/>
    </g>
</svg>
