<?xml version="1.0" encoding="UTF-8"?>
<svg data-bbox="0 0 811.29 118.777" viewBox="0 0 811.3 118.8" xmlns="http://www.w3.org/2000/svg" data-type="ugc">
    <g>
        <path d="M620.44 30.1h-22.51c-1.96 0-1.94 0-2.23 1.96-.63 4.2-1.3 8.4-1.9 12.61-.52 3.57-.94 7.15-1.46 10.71-.43 2.9-.98 5.78-1.41 8.68-.52 3.53-.95 7.07-1.47 10.59-.52 3.55-1.13 7.08-1.66 10.63-.58 3.92-1.1 7.85-1.66 11.77-.64 4.45-1.28 8.91-1.95 13.35-.32 2.12-.7 4.23-1.07 6.4h-37.58c4.3-28.94 8.6-57.84 12.91-86.83h-19.8c1.55-9.99 3.09-19.84 4.63-29.73h1.36c43.86 0 87.72-.04 131.58.05 5.57.01 11.16.58 16.34 3.06 6.26 2.99 10.65 7.7 13.27 14.09a26.46 26.46 0 0 1 1.94 8.54c.09 1.7.31 3.41.21 5.09-.15 2.3-.54 4.58-.85 6.86-.33 2.5-.67 5-1.03 7.49-.63 4.28-1.26 8.57-1.93 12.84-.61 3.91-1.29 7.81-1.89 11.72-.45 2.89-.93 5.79-1.2 8.7-.86 9.28-4.04 17.59-10.28 24.59-5.22 5.84-11.69 9.87-19.15 12.15-3.58 1.09-7.3 1.73-10.98 2.48-5.1 1.03-10.29 1.01-15.42.66-7.94-.56-15.53-2.47-21.85-7.79-5.32-4.48-8.2-10.31-9.71-16.97-1.07-4.71-.98-9.47-.63-14.21.25-3.44 1.08-6.85 1.59-10.27.45-2.99.81-6 1.23-9 .32-2.28.7-4.55 1.04-6.82.37-2.43.73-4.86 1.11-7.29.22-1.42.5-2.84.7-4.26.35-2.42.64-4.85.98-7.26.21-1.49.48-2.98.74-4.61Zm49.88 7c0-4.38-.97-6.26-3.45-6.67-1.75-.29-3.69-.19-5.41.26-2.43.63-3.81 2.64-4.36 4.98-.7 2.98-1.14 6.03-1.66 9.05-.5 2.9-1 5.8-1.43 8.71-.59 3.93-1.11 7.87-1.67 11.8-.31 2.17-.64 4.34-.98 6.51-.38 2.38-.87 4.75-1.16 7.15-.23 1.94-.42 3.91.38 5.81.52 1.24 1.32 2.14 2.56 2.69 2.25.99 4.43.68 6.49-.43 2.55-1.38 3.68-3.79 4.2-6.5.43-2.23.64-4.5.99-6.75.54-3.46 1.13-6.92 1.66-10.39.66-4.26 1.29-8.52 1.93-12.78.4-2.68.81-5.36 1.19-8.05.31-2.14.58-4.29.73-5.4Z" fill="#e20613"/>
        <path d="M197.62 66.14c6.83-21.93 13.66-43.87 20.51-65.84h51.8c-.29 1.98-.57 3.93-.87 5.88-.37 2.43-.75 4.86-1.11 7.29-.25 1.66-.48 3.32-.72 4.98-.39 2.64-.77 5.29-1.18 7.93-.63 4.03-1.32 8.04-1.92 12.07-.61 4.07-1.1 8.15-1.71 12.22-.59 3.93-1.28 7.84-1.9 11.77-.66 4.25-1.29 8.51-1.93 12.76-.72 4.78-1.46 9.55-2.15 14.33-.59 4.04-1.09 8.09-1.7 12.13-.59 3.93-1.27 7.85-1.89 11.77-.13.81-.21 1.64-.24 2.46-.03.62-.2.97-.9.97-11.04-.02-22.07-.03-33.11-.05-.04 0-.07-.03-.22-.09 3.74-25.02 7.48-50.07 11.23-75.12-.09-.02-.19-.05-.28-.07-.66 2.1-1.31 4.21-1.97 6.31-3.85 12.37-7.71 24.74-11.56 37.12-3.19 10.25-6.36 20.5-9.53 30.75-.21.67-.42 1.17-1.35 1.16-11.04-.04-22.07-.03-33.11-.03-.12 0-.24-.02-.43-.04-.04-.21-.1-.43-.11-.65-.05-3.99-.1-7.98-.13-11.97-.05-6.75-.07-13.49-.12-20.24-.07-9.1-.15-18.2-.24-27.3-.06-5.63-.16-11.25-.24-16.88 0-.26-.04-.53-.19-.8-3.89 25.92-7.79 51.84-11.69 77.83h-29.4c.19-1.55.34-3.02.55-4.49.36-2.53.74-5.06 1.14-7.58.42-2.67.89-5.33 1.29-8 .48-3.21.87-6.44 1.35-9.65.43-2.89.97-5.76 1.41-8.65.44-2.94.79-5.88 1.23-8.82.47-3.12 1.02-6.24 1.48-9.36.57-3.85 1.06-7.71 1.64-11.57.39-2.63.91-5.25 1.3-7.88.56-3.73 1.02-7.48 1.58-11.21.51-3.36 1.11-6.71 1.63-10.07.37-2.43.66-4.88 1-7.32.31-2.24.64-4.48.97-6.72.22-1.46.43-2.93.74-4.38.07-.32.53-.57.84-.83.07-.06.23 0 .35 0h50.43v8.89c0 .4-.06.8-.06 1.19-.08 6.86-.15 13.73-.25 20.59-.07 4.9-.16 9.81-.24 14.71l-.24 15.07c-.03 1.79-.08 3.59-.12 5.38l-.09.74.19.03c.08-.24.15-.49.23-.73Z" fill="#e20613"/>
        <path d="M434.8.26c3 22.63 5.98 45.05 8.96 67.46.05-.02.1-.03.16-.05.53-3.31 1.09-6.62 1.58-9.94.52-3.52.94-7.05 1.47-10.56.38-2.58.9-5.15 1.28-7.73.56-3.77 1.04-7.56 1.59-11.33.36-2.48.83-4.94 1.2-7.41.5-3.38.95-6.77 1.44-10.15.46-3.2.94-6.41 1.46-9.6.04-.25.4-.48.65-.66.1-.08.31-.01.47-.01h28.67c.19 0 .39.03.66.05-5.85 38.85-11.69 77.65-17.53 116.46h-44.25c-3.3-22.85-6.58-45.6-9.86-68.36-.06-.02-.12-.03-.18-.05-3.43 22.8-6.86 45.6-10.29 68.44h-29.55c.22-1.61.44-3.22.67-4.82.36-2.48.73-4.96 1.09-7.44.33-2.25.63-4.51.98-6.75.37-2.39.8-4.76 1.18-7.15.34-2.16.67-4.32.98-6.48.49-3.38.93-6.77 1.43-10.15.36-2.43.83-4.84 1.19-7.26.58-3.89 1.1-7.79 1.69-11.68.55-3.62 1.17-7.24 1.72-10.86.5-3.3.9-6.61 1.4-9.91.63-4.16 1.35-8.32 1.98-12.48.49-3.26.89-6.54 1.38-9.8.39-2.58.86-5.16 1.27-7.74.16-.97.37-1.95.37-2.92 0-.94.38-1.12 1.22-1.12 6.24.03 12.48.01 18.71.01h24.81Z" fill="#e20613"/>
        <path d="M723.09.3h37.29c-.27 1.85-.54 3.66-.8 5.47-.4 2.68-.79 5.37-1.2 8.05-.64 4.28-1.27 8.57-1.93 12.84-.54 3.47-1.14 6.92-1.66 10.39-.43 2.84-.77 5.69-1.2 8.53-.62 4.03-1.31 8.04-1.92 12.07-.6 4.04-1.1 8.09-1.7 12.13-.43 2.89-1.03 5.75-1.39 8.65-.2 1.61-.25 3.3 0 4.9.6 3.76 3.55 4.81 6.9 4.33 3.76-.54 5.62-3.12 6.45-6.51.58-2.4.85-4.87 1.23-7.31.45-2.83.88-5.65 1.29-8.48.47-3.21.88-6.43 1.36-9.65.4-2.7.88-5.39 1.28-8.09.48-3.21.88-6.43 1.36-9.65.39-2.66.86-5.31 1.26-7.98.48-3.26.9-6.53 1.38-9.79.4-2.7.89-5.39 1.29-8.09.47-3.18.9-6.37 1.34-9.56.1-.73.22-1.46.34-2.24h37.23c-.61 4.23-1.19 8.47-1.83 12.69-.61 4.02-1.3 8.02-1.9 12.04-.53 3.57-.94 7.15-1.47 10.71-.42 2.86-.98 5.7-1.4 8.56-.45 3.02-.78 6.07-1.23 9.09-.43 2.89-.98 5.76-1.41 8.65-.44 2.96-.78 5.93-1.2 8.89-.55 3.86-1.15 7.72-1.7 11.58-1.86 13.05-8.8 22.61-20.13 29.1-5.31 3.04-11.1 4.81-17.11 5.8-2.93.48-5.91.76-8.88.96-2.97.2-5.97.35-8.94.23-7-.27-13.89-1.31-20.28-4.36-7.17-3.42-11.78-8.99-13.18-16.9a43.79 43.79 0 0 1-.68-8.24c.03-2.52.56-5.04.88-7.56.32-2.52.61-5.05.99-7.56.48-3.17 1.06-6.33 1.54-9.5.56-3.73 1.02-7.48 1.58-11.21.43-2.89.97-5.76 1.41-8.65.44-2.93.8-5.88 1.23-8.82.32-2.16.73-4.31 1.05-6.47.55-3.77 1.03-7.56 1.59-11.33.43-2.9.96-5.78 1.42-8.68.43-2.78.82-5.56 1.24-8.34.03-.23.13-.46.2-.71Z" fill="#e20613"/>
        <path d="M356.54.3c.31 3.97.6 7.85.91 11.73.22 2.74.48 5.49.71 8.23l.96 11.41.96 11.18.96 11.29.72 8.35.96 11.29.72 8.35.96 11.29.96 11.05c.32 3.76.64 7.53.97 11.29.03.31.13.61.21 1h-38.95v-18.2h-25.73c-1.87 4.89-3.73 9.79-5.6 14.69-.45 1.18-.64 2.76-1.51 3.39-.83.6-2.38.21-3.61.21h-32.49c1.69-3.96 3.32-7.81 4.96-11.66 6.05-14.23 12.09-28.46 18.14-42.69 5.07-11.92 10.16-23.84 15.24-35.76 3.63-8.52 7.25-17.05 10.86-25.58.26-.62.52-.93 1.28-.93 15.59.03 31.18.02 46.78.02.16 0 .31.02.65.04Zm-31 28.72c-.1.16-.22.31-.29.48-4.2 11.42-8.39 22.83-12.58 34.25-.65 1.77-1.28 3.55-1.91 5.32h14.82c.04-.21.07-.33.07-.44V29.09c.03-.13.07-.27.1-.4l-.14-.03c-.03.12-.05.24-.08.36Z" fill="#e20613"/>
        <path d="M496.89.3h38.32l-17.57 116.5h-38.33c.09-.88.14-1.76.27-2.62.38-2.43.8-4.84 1.18-7.27.36-2.25.72-4.49 1.04-6.74.47-3.25.89-6.51 1.37-9.77.36-2.44.82-4.86 1.19-7.3.51-3.41.94-6.83 1.45-10.24.4-2.63.91-5.25 1.3-7.88.48-3.18.86-6.38 1.34-9.56.38-2.54.86-5.07 1.24-7.62.49-3.3.91-6.61 1.4-9.91.37-2.47.83-4.92 1.2-7.38.5-3.38.93-6.77 1.44-10.15.4-2.62.9-5.23 1.3-7.85.48-3.18.88-6.37 1.34-9.56.13-.88.34-1.74.52-2.64Z" fill="#e20613"/>
        <path d="M67.83.47c.13-.07.26-.19.39-.2 2.54-.09 5.1-.41 7.62-.2 4.16.35 8.31.98 12.44 1.65 1.42.23 2.77.95 4.15 1.45.13.08.26.17.4.23 5.19 2.1 9.91 4.95 14.06 8.7 10.98 9.93 16.03 22.52 16.36 37.12.06 2.53-.31 5.06-.49 7.59-.41-.3-.86-.55-1.21-.91-8.14-8.12-16.27-16.25-24.42-24.36-.39-.39-.98-.58-1.47-.86-.38-1.4-.67-2.84-1.18-4.19-.28-.75-.94-1.36-1.43-2.03l-2.4-.48c-.29-.41-.52-.88-.87-1.23-6.92-6.94-13.86-13.86-20.79-20.8-.44-.44-.77-1-1.15-1.5Z" fill="#e4261e"/>
        <path d="M19.74 99.23c-5.05-5.77-8.29-12.47-10.16-19.85-.8-3.17-1.51-6.36-1.49-9.67 0-.66-.24-1.33-.21-1.98.14-3 .35-5.99.53-8.98.43.25.9.44 1.28.75 1.04.85 2.04 1.74 3.06 2.62-.48 3.7.53 7.23 1.29 10.79.11.94.89 1.63.64 2.81-.31 1.45-.24 3.07.03 4.54 1.13 6.11 7.48 10.57 14.28 9.01 2.61-.6 4.77-1.93 6.73-3.67.33.21.7.37.97.63 9.05 9.03 18.1 18.06 27.13 27.11.31.31.45.79.67 1.19-2.78.18-5.55.43-8.33.51-1.34.04-2.68-.24-4.02-.37-10.59-.99-20.04-4.73-28.19-11.63-.29-.24-.72-.3-1.09-.45l-.34-.34-.51-.6.01.01-.25-.25.01.01-.25-.25.01.01-.25-.25.01.01-.25-.25.01.01c-.08-.09-.16-.17-.25-.26l.01.02-.72-.75.01.01-.37-.49Z" fill="#e20916"/>
        <path d="M22.86 102.58c.37.15.8.21 1.09.45 8.15 6.9 17.6 10.64 28.19 11.63 1.34.12 2.69.41 4.02.37 2.78-.08 5.55-.33 8.33-.51 3.22-.67 6.43-1.33 9.65-2 1.43-.5 2.86-1.01 4.28-1.51 1.41-.54 2.81-1.07 4.22-1.61.91-.42 1.83-.84 2.74-1.26.88-.47 1.76-.94 2.65-1.41.72-.41 1.43-.82 2.15-1.22.65-.4 1.3-.81 1.95-1.21l1.67-1.16c.71-.5 1.42-1 2.12-1.5.9-.71 1.8-1.42 2.7-2.12 2.79-2.71 5.58-5.43 8.36-8.14l2.92-3.61c.74-1.04 1.48-2.07 2.22-3.11l2.1-3.36c.87-1.59 1.73-3.19 2.6-4.78 1.09-2.65 2.19-5.3 3.28-7.94.89-3.92 1.77-7.83 2.66-11.75.17-2.53.54-5.07.49-7.59-.33-14.61-5.38-27.19-16.36-37.12-4.15-3.75-8.87-6.61-14.06-8.7-.14-.06-.27-.15-.4-.23 1.05.31 2.13.53 3.13.94 3.77 1.54 7.26 3.57 10.53 5.98h.02c.28.16.56.33.84.49.24.16.49.32.73.49l-.02-.02.26.26-.02-.02c.09.13.18.25.27.38.47.38.98.73 1.4 1.16 1.49 1.55 3.05 3.05 4.42 4.7 5.31 6.4 8.91 13.65 10.55 21.83.22 1.11.46 2.21.7 3.32.79-4.2 1.33-8.37 1.91-12.54.18-1.33.45-2.65.67-3.97.14-.98.28-1.96.43-2.94.43-2.94.85-5.87 1.28-8.81.49-3.29.94-6.58 1.49-9.86.16-.93.48-1.88.96-2.69.34-.57 1.08-.91 1.64-1.35 0 .86.1 1.74-.02 2.59-.6 3.93-1.29 7.84-1.88 11.77-.6 3.97-1.12 7.95-1.69 11.92-.55 3.78-1.1 7.57-1.69 11.35-.61 3.94-1.29 7.87-1.9 11.8-.36 2.38-.64 4.76-.95 7.15-.87 6.67-2.5 13.12-5.32 19.25-3.04 6.6-6.98 12.59-11.88 17.96-6.22 6.84-13.48 12.27-21.81 16.26-5.96 2.86-12.2 4.86-18.77 5.68-3.01.37-6.07.59-9.11.6-18.99.05-37.98.03-56.96 0-.53 0-1.06-.36-1.6-.55.38-.21.86-.34 1.11-.65.82-1.06 1.91-1.07 3.1-1.06 4.34.03 8.68 0 13.02 0h25.6c-1.76-.71-3.32-1.36-4.89-1.97-1.22-.47-2.46-.9-3.69-1.35-.07-.09-.15-.17-.22-.26-.16-.08-.33-.16-.49-.24h.01c-.16-.08-.33-.16-.49-.24h.01c-.48-.24-.97-.48-1.45-.73h.03c-.16-.19-.29-.39-.48-.54-2.77-2.22-5.55-4.43-8.32-6.64Z" fill="#2b4855"/>
        <path d="M35.7 10.09c-1.85 1.44-3.81 2.75-5.51 4.34-2.96 2.77-5.91 5.58-8.61 8.6-4.05 4.54-7.19 9.72-9.83 15.2-.03.06-.11.1-.29.26.36-2.49.7-4.86 1.05-7.22.53-3.57 1.06-7.14 1.61-10.7.49-3.17 1.03-6.34 1.52-9.51.46-2.98.93-5.95 1.33-8.94.22-1.68.35-1.87 2.07-1.87 2.36 0 4.71.02 7.07.03.07.18.09.41.22.53 3.12 3.1 6.24 6.18 9.37 9.27Z" fill="#cad6dd"/>
        <path d="m23.71 24.71 8.63-8.63c.5.62.95 1.27 1.5 1.84 2.56 2.66 5.11 5.34 7.72 7.95 2.5 2.5 5.07 4.92 7.61 7.38 1.11 1.07 2.22 2.14 3.33 3.2-1.97 3.63-3.94 7.25-5.91 10.88-.15-.19-.28-.39-.44-.56-7.18-7.18-14.36-14.35-21.55-21.52-.24-.24-.59-.37-.88-.55Z" fill="#f7beaa"/>
        <path d="M129.51 14.4c-.43 2.94-.85 5.87-1.28 8.81-.14.98-.28 1.96-.43 2.94-.35-.24-.75-.44-1.05-.73-8.04-8.02-16.08-16.04-24.1-24.08-.3-.3-.49-.69-.73-1.04h13.67c.24.43.41.94.74 1.28 4.02 4.05 8.06 8.09 12.11 12.11.3.29.7.48 1.06.71Z" fill="#5e7986"/>
        <path d="M67.83.47c.38.5.7 1.06 1.15 1.5 6.92 6.94 13.86 13.86 20.79 20.8.35.35.58.81.87 1.23l-4.57 1.14c-1.11.28-1.99.84-2.41 1.96-.35-.24-.75-.43-1.05-.73-7.73-7.7-15.45-15.41-23.16-23.13-.3-.3-.48-.7-.72-1.05 3.03-.57 6.07-1.14 9.1-1.72Z" fill="#e5352c"/>
        <path d="M58.73 2.19c.24.35.42.76.72 1.05 7.71 7.72 15.43 15.43 23.16 23.13.3.3.7.49 1.05.73-.05.61-.24 1.26-.11 1.83.65 2.84 1.39 5.66 2.1 8.48-.72-.4-1.45-.8-2.17-1.2L82.23 32c-.52-3.07-3.59-5.18-6.19-5.02l-1.71-.15c-.3-.41-.55-.86-.91-1.21-6.74-6.75-13.49-13.49-20.24-20.24-.34-.34-.63-.71-.94-1.07 2.16-.71 4.33-1.41 6.49-2.12Z" fill="#e74036"/>
        <path d="M101.92.3c.24.35.44.75.73 1.04 8.03 8.03 16.06 16.06 24.1 24.08.3.3.7.49 1.05.73-.23 1.32-.49 2.64-.67 3.97-.57 4.17-1.11 8.34-1.91 12.54-.23-1.11-.47-2.21-.7-3.32-1.64-8.18-5.25-15.42-10.55-21.83-1.37-1.65-2.92-3.15-4.42-4.7-.42-.43-.93-.78-1.4-1.16-.09-.13-.18-.25-.27-.38l.02.02-.26-.26.02.02c-.24-.16-.49-.32-.73-.49-.28-.16-.56-.33-.84-.49h-.02c-.28-.41-.48-.92-.85-1.2C100.4 5.16 95.09 2.4 89.26.64a.86.86 0 0 1-.52-.4h6.58c2.2 0 4.39.02 6.59.04Z" fill="#6b848f"/>
        <path d="M27.78 114.56H17.22c-.24-.43-.4-.95-.74-1.29-4.34-4.37-8.69-8.71-13.06-13.05-.3-.3-.69-.49-1.05-.74l1.41-9.09c.41.29.88.53 1.24.88 7.38 7.35 14.75 14.71 22.1 22.08.31.31.44.79.66 1.2Z" fill="#5e7986"/>
        <path d="M27.78 114.56c-.22-.4-.35-.89-.66-1.2a7667.69 7667.69 0 0 0-22.1-22.08c-.35-.35-.82-.59-1.24-.88.39-2.64.79-5.29 1.18-7.93 1.24 1.11 2.46 2.24 3.71 3.33.37.32.85.51 1.27.76 2.16 4.74 4.9 9.12 8.39 13 3.57 3.97 7.68 7.29 12.33 9.92.29.16.65.19.98.28l-.03.01c.48.24.97.49 1.45.73h-.01c.16.08.33.16.49.25h-.01c.16.08.33.16.49.24.07.09.15.17.22.26 1.23.45 2.47.88 3.69 1.35 1.58.61 3.14 1.26 4.89 1.97H27.78Z" fill="#6b848f"/>
        <path d="M2.38 99.49c.35.24.75.44 1.05.74 4.36 4.34 8.72 8.69 13.06 13.05.34.34.5.85.74 1.29-4.34 0-8.68.04-13.02 0-1.18 0-2.28 0-3.1 1.06-.24.31-.73.44-1.11.65.3-2.31.57-4.63.9-6.94.47-3.29.99-6.57 1.48-9.85Z" fill="#55717e"/>
        <path d="M52.23 4.3c.31.36.61.74.94 1.07 6.75 6.75 13.5 13.49 20.24 20.24.35.35.61.81.91 1.21h-6.24c-.27-.38-.5-.8-.82-1.13-6.15-6.16-12.31-12.31-18.47-18.47-.34-.34-.62-.72-.93-1.08 1.45-.62 2.91-1.23 4.36-1.85Z" fill="#e95044"/>
        <path d="M129.51 14.4c-.35-.23-.76-.42-1.06-.71-4.05-4.02-8.09-8.06-12.11-12.11-.34-.34-.5-.85-.74-1.28 5.75-.01 11.5-.03 17.25-.03.25 0 .5.15.74.23-.56.44-1.3.78-1.64 1.35-.48.8-.8 1.76-.96 2.69-.55 3.28-1 6.57-1.49 9.86Z" fill="#55717e"/>
        <path d="M52.49 36.45c-1.11-1.07-2.22-2.13-3.33-3.2-2.54-2.46-5.11-4.88-7.61-7.38-2.61-2.61-5.16-5.28-7.72-7.95-.55-.57-1-1.22-1.5-1.84 1.12-.88 2.23-1.77 3.35-2.65.23.36.42.76.71 1.06 5.73 5.74 11.47 11.47 17.21 17.19.3.29.71.47 1.06.7-.73 1.35-1.46 2.71-2.18 4.06Z" fill="#f5af9b"/>
        <path d="M23.71 24.71c.3.18.65.31.88.55 7.19 7.16 14.37 14.34 21.55 21.52.17.17.3.37.44.56-.31.22-.62.61-.94.63-1.31.07-2.63.02-3.94.02-.29-.41-.52-.88-.87-1.23-6.11-6.12-12.22-12.23-18.34-18.33-.31-.31-.66-.57-.98-.86.74-.95 1.47-1.9 2.21-2.85Z" fill="#f5af9b"/>
        <path d="M54.68 32.39c-.36-.23-.77-.41-1.06-.7A5579.07 5579.07 0 0 1 36.41 14.5c-.29-.3-.48-.7-.71-1.06l3.36-2.4c.29.41.53.88.88 1.23 5.24 5.25 10.49 10.49 15.73 15.74.36.36.65.79.97 1.19-.65 1.07-1.3 2.13-1.94 3.2Z" fill="#f19887"/>
        <path d="M35.7 10.09C32.57 7 29.45 3.92 26.33.82c-.13-.13-.15-.35-.22-.53 4.72 0 9.44.01 14.15.02.22.4.36.87.66 1.19 1.11 1.2 2.26 2.35 3.4 3.53-2.47 1.44-4.94 2.88-7.4 4.32-.41.24-.81.5-1.22.75Z" fill="#b8c5cd"/>
        <path d="M47.87 6.15c.31.36.59.75.93 1.08 6.15 6.16 12.32 12.31 18.47 18.47.33.33.55.75.82 1.13h-4.56c-.27-.38-.49-.8-.82-1.13-5.65-5.67-11.32-11.32-16.98-16.98-.33-.33-.63-.71-.94-1.07 1.03-.5 2.05-1 3.08-1.51Z" fill="#eb5d5a"/>
        <path d="M21.5 27.55c.33.29.68.55.98.86 6.12 6.11 12.24 12.21 18.34 18.33.35.35.58.82.87 1.23h-4.56c-.26-.38-.47-.82-.79-1.14-5.28-5.3-10.58-10.58-15.87-15.87-.28-.28-.6-.52-.9-.78l1.92-2.64Z" fill="#f19887"/>
        <path d="M56.62 29.19c-.32-.4-.61-.83-.97-1.19-5.24-5.25-10.49-10.48-15.73-15.74-.35-.35-.59-.82-.88-1.23.94-.58 1.89-1.17 2.83-1.75.31.36.6.74.94 1.08 5.25 5.26 10.51 10.51 15.77 15.76.33.33.6.73.89 1.1-.95.65-1.9 1.31-2.85 1.96Z" fill="#ef8070"/>
        <path d="M59.47 27.23c-.3-.37-.56-.77-.89-1.1-5.25-5.26-10.51-10.51-15.77-15.76-.34-.34-.62-.72-.94-1.08.97-.54 1.94-1.08 2.92-1.62.31.36.61.73.94 1.07 5.66 5.66 11.32 11.31 16.98 16.98.32.32.55.75.82 1.13-.71.05-1.42.11-2.14.16l-1.92.24Z" fill="#ed6e60"/>
        <path d="M19.58 30.19c.3.26.62.5.9.78 5.3 5.28 10.59 10.57 15.87 15.87.32.32.53.76.79 1.14h-4.32c-.26-.38-.46-.82-.78-1.14-4.41-4.43-8.84-8.85-13.27-13.27-.28-.28-.6-.51-.91-.77.57-.87 1.15-1.74 1.72-2.61Z" fill="#ef8070"/>
        <path d="M12.74 62.11c-1.02-.88-2.02-1.77-3.06-2.62-.38-.31-.85-.5-1.28-.75.74-3.37 1.48-6.74 2.23-10.12.47.25 1.03.41 1.4.77 1.69 1.57 3.32 3.19 4.98 4.8-.11.25-.21.51-.34.75l-3.93 7.17Z" fill="#e41b24"/>
        <path d="m14.15 39.57 1.92-3.84c.44.25.95.42 1.3.77 3.45 3.41 6.88 6.83 10.29 10.28.3.31.41.8.61 1.21-1.76.11-3.53.21-5.29.32-.17-.34-.28-.74-.53-1-2.38-2.41-4.77-4.8-7.18-7.17-.28-.28-.73-.38-1.11-.57Z" fill="#eb5d5a"/>
        <path d="M28.26 47.99c-.2-.41-.3-.91-.61-1.21-3.41-3.45-6.84-6.87-10.29-10.28-.35-.34-.86-.52-1.3-.77.6-.98 1.2-1.95 1.79-2.93.3.25.63.49.91.77 4.43 4.42 8.86 8.83 13.27 13.27.32.32.52.76.78 1.14-1.52 0-3.04 0-4.56.01Z" fill="#ed6e60"/>
        <path d="M14.15 39.57c.37.19.82.29 1.11.57 2.42 2.37 4.81 4.76 7.18 7.17.25.26.36.66.53 1-1.51.15-2.53 1.14-3.58 2.07-1.94-2.06-3.87-4.14-5.84-6.18-.28-.29-.75-.38-1.14-.57.58-1.35 1.15-2.71 1.73-4.06Z" fill="#e73a3e"/>
        <path d="M12.42 43.64c.38.18.86.28 1.14.57 1.97 2.04 3.9 4.11 5.84 6.18-.79 1.27-1.59 2.54-2.38 3.81-1.65-1.6-3.29-3.23-4.98-4.8-.38-.35-.93-.52-1.4-.77.6-1.66 1.19-3.33 1.79-4.99Z" fill="#e62b32"/>
        <path d="M44.32 5.02c-1.14-1.17-2.29-2.33-3.4-3.53-.3-.32-.44-.79-.66-1.19h16.02c-3.72 1.47-7.84 3.09-11.96 4.72Z" fill="#a7b7c0"/>
        <path d="M9.96 86.55c-.43-.25-.91-.44-1.27-.76-1.26-1.09-2.48-2.21-3.71-3.33.35-2.59.7-5.19 1.07-7.78.04-.27.18-.52.29-.81.61 4.43 1.97 8.6 3.64 12.68Z" fill="#79909d"/>
        <path d="M197.62 66.14c-.08.24-.15.49-.23.73l-.19-.03.09-.74c.11.02.22.03.33.05Z" fill="#f18389"/>
        <path d="m20.1 99.71.72.75-.72-.75Z" fill="#2b4855"/>
        <path d="m22 101.64.51.6-.51-.6Z" fill="#2b4855"/>
        <path d="m19.74 99.23.37.49-.37-.49Z" fill="#2b4855"/>
        <path d="M20.81 100.44c.08.09.16.17.25.26-.08-.09-.16-.17-.25-.26Z" fill="#2b4855"/>
        <path d="m21.04 100.69.25.25-.25-.25Z" fill="#2b4855"/>
        <path d="m21.28 100.93.25.25-.25-.25Z" fill="#2b4855"/>
        <path d="m21.52 101.16.25.25-.25-.25Z" fill="#2b4855"/>
        <path d="m21.76 101.4.25.25-.25-.25Z" fill="#2b4855"/>
        <path d="M325.65 29.09h-.08l-.04-.07c.03-.12.05-.24.08-.36l.14.03c-.03.13-.07.27-.1.4Z" fill="#f18389"/>
        <path d="M122.75 56.82c-.89 3.92-1.77 7.83-2.66 11.75l-1.44-.51c.42-1.27.85-2.54 1.26-3.82.33-1.03.21-1.95-.69-2.68-.73-.98-1.73-.73-2.68-.54-.96.2-1.89.5-2.83.76-.2-.29-.37-.61-.61-.86-4.05-4.07-8.12-8.12-12.19-12.17-.24-.24-.58-.37-.88-.56-.3-1.12-.61-2.23-.89-3.35-1.17-4.72-2.33-9.43-3.49-14.15.5.28 1.08.47 1.47.86 8.15 8.11 16.28 16.24 24.42 24.36.35.35.81.61 1.21.91Z" fill="#e5352c"/>
        <path d="M95.64 30.7c1.16 4.72 2.32 9.44 3.49 14.15.28 1.12.59 2.23.89 3.35 1.34 5.44 2.68 10.88 4.02 16.3 1.21-.28 2.17-.51 3.13-.73l-.72 1.44c-.56.22-1.12.43-1.68.65-1.37.07-1.8-.25-2.17-1.58-.12-.42-.26-.83-.39-1.24-.45-1.83-.89-3.66-1.34-5.48-.54-2.08-1.09-4.16-1.63-6.24-1.22-4.97-2.41-9.96-3.69-14.92-.95-3.68-2.01-7.34-3.03-11 .17-.31.34-.61.5-.92.49.67 1.15 1.28 1.43 2.03.51 1.35.8 2.79 1.18 4.19Z" fill="#2b4855"/>
        <path d="M93.03 24.47c-.17.31-.34.61-.5.92-2.14.38-4.29.71-6.41 1.18-1.07.24-1.44 1.08-1.15 2.26 1.03 4.08 2.08 8.16 3.13 12.24.51 2.06 1.02 4.13 1.54 6.19l1.44 5.5 1.26 5.25c-.52.97-1.38.81-2.23.67.18-.41.37-.82.55-1.23l-2.19-8.79c-.94-3.75-1.88-7.51-2.83-11.26-.71-2.83-1.45-5.64-2.1-8.48-.13-.57.07-1.22.11-1.83.42-1.12 1.3-1.68 2.41-1.96l4.57-1.14 2.4.48Z" fill="#ffffff"/>
        <path d="M74.13 112.52c-3.22.67-6.43 1.33-9.65 2-.22-.4-.36-.88-.67-1.19-9.03-9.05-18.08-18.08-27.13-27.11-.27-.27-.64-.43-.97-.63 2-2.21 3.27-4.77 3.73-7.72.33.28.69.53 1 .84 10.96 10.94 21.91 21.88 32.85 32.82.31.31.56.67.84 1Z" fill="#e41b24"/>
        <path d="M39.44 77.87c-.45 2.95-1.72 5.51-3.73 7.72-1.96 1.74-4.12 3.08-6.73 3.67-6.79 1.56-13.14-2.9-14.28-9.01-.27-1.48-.34-3.09-.03-4.54.25-1.18-.53-1.86-.64-2.81l1.51.21c.54.77.71 1.54.51 2.53-.72 3.67.18 6.96 2.88 9.61 3.95 3.88 11.12 3.83 15.19-.17 1.15-1.13 1.89-2.67 2.82-4.03.38-1.61.77-3.23 1.15-4.84.43-.01.87-.03 1.3-.04 1.73-.05 3.46-.09 5.19-.14h7.19c1.39.03 2.79.13 4.18.07.97-.04 1.34.3 1.61 1.24 1.69 5.89 7.26 10.34 13.17 10.6 1.8.47 3.54.03 5.29-.36 1.69-.66 3.37-1.32 5.06-1.98 1.39-1.11 2.92-2.07 4.12-3.35 2.65-2.81 4.25-6.16 4.44-10.09v-2.05c1.26-.35 2.35-.66 3.45-.97.62-.11 1.24-.23 1.94-.35.47 1.91.9 3.76 1.38 5.61.31 1.19 1.09 1.69 2.22 1.39 1.77-.47 3.52-1.01 5.27-1.52 1.26-.32 2.51-.65 3.77-.97.97-.27 1.95-.55 2.92-.82 1.12-.31 2.25-.63 3.37-.94 1.34-.17 2.38-.71 2.65-2.18.4-1.07.88-2.12 1.17-3.21.33-1.23.48-2.51.71-3.77.24-.27.48-.54.73-.8.89.72 1.01 1.65.69 2.68-.41 1.28-.84 2.55-1.26 3.82-.73 2.48-1.84 4.61-4.74 5.06l-5.99 1.65c-1.44.39-2.89.77-4.33 1.16l-4.33 1.2c-2.7.27-3.66-.41-4.33-3.08-.3-1.19-.62-2.37-.95-3.6-.85.19-1.59.32-2.31.55-.22.07-.48.39-.52.63-.15 1.02-.22 2.05-.32 3.08l-.72 2.13c-1.19 3.4-3.36 6.11-5.99 8.49l-2.6 1.68c-.72.34-1.43.68-2.15 1.02l-2.19.81c-.82.18-1.63.37-2.45.55-1.01.03-2.02.05-3.04.08-1.84-.34-3.67-.69-5.51-1.03-4.8-2.03-8.16-5.41-9.87-10.38-.1-.28-.62-.57-.95-.58-1.51-.05-3.03 0-4.55.01h-5.28c-1.75-.01-3.51-.05-5.26-.02-.28 0-.56.27-.84.41Z" fill="#2b4855"/>
        <path d="m15.54 73.11-1.51-.21c-.76-3.56-1.77-7.08-1.29-10.79l3.93-7.17c.13-.24.23-.5.34-.75.79-1.27 1.59-2.54 2.38-3.81 1.05-.93 2.07-1.92 3.58-2.07 1.76-.11 3.53-.21 5.29-.32 1.52 0 3.04 0 4.56-.01h8.88c1.31 0 2.63.05 3.94-.02.32-.02.63-.41.94-.63 1.97-3.63 3.94-7.25 5.91-10.88.73-1.35 1.46-2.71 2.18-4.06.65-1.07 1.3-2.14 1.95-3.2.95-.65 1.9-1.31 2.85-1.96l1.92-.24c.43.04.86.11 1.3.11 3.78 0 7.56.01 11.34 0 .67 0 1.34-.08 2-.12 2.6-.16 5.67 1.95 6.19 5.02-.39.09-.78.19-1.17.28-1.04-2.88-3.06-4.22-6.14-3.99-.91.07-1.83.03-2.74.05h-9.12c-1.53-.09-3.05-.12-4.34.91l-2.4 3.36c-.8 1.52-1.6 3.04-2.4 4.55-.16.17-.37.32-.47.52-1.85 3.44-3.75 6.85-5.5 10.34-.6 1.2-1.28 1.86-2.65 1.61H26.1c-.51 0-1.02 0-1.53-.02-1.33-.04-2.57.19-3.52 1.23-.89 1.34-1.77 2.68-2.66 4.03-1.03 1.77-2.06 3.55-3.09 5.32-1.16 1.6-1.85 3.31-1.22 5.33.14.45.16.94.25 1.41.39 2.06.8 4.12 1.19 6.19Z" fill="#ffffff"/>
        <path d="M84.11 85.32c2.63-2.38 4.8-5.1 5.99-8.49.25-.71.48-1.42.72-2.13.31.36.59.75.92 1.08 4.78 4.79 9.58 9.57 14.35 14.36.35.35.58.82.87 1.23-2.79 2.71-5.58 5.43-8.36 8.14-.36-.31-.74-.6-1.07-.94-4.12-4.11-8.23-8.22-12.35-12.33-.34-.33-.72-.62-1.08-.93Z" fill="#f7beaa"/>
        <path d="M39.44 77.87c.28-.14.55-.41.84-.41 1.75-.03 3.51 0 5.26.02.3.41.55.86.91 1.21 10.33 10.34 20.68 20.67 31.02 31.01.38.38.64.88.96 1.32-1.43.5-2.86 1.01-4.28 1.51-.28-.33-.53-.69-.84-1L40.46 78.71c-.31-.31-.67-.56-1-.84Z" fill="#e62b32"/>
        <path d="M78.41 111.02c-.32-.44-.58-.94-.96-1.32-10.33-10.34-20.68-20.67-31.02-31.01-.35-.35-.61-.81-.91-1.21h5.28c.27.38.5.8.82 1.13 9.96 9.97 19.93 19.93 29.91 29.88.34.33.73.62 1.09.92-1.41.54-2.81 1.07-4.22 1.61Z" fill="#e73a3e"/>
        <path d="M82.63 109.4c-.36-.31-.75-.59-1.09-.92-9.97-9.95-19.94-19.91-29.91-29.88-.33-.33-.55-.75-.82-1.13 1.52-.01 3.03-.06 4.55-.01.33.01.85.31.95.58 1.71 4.97 5.07 8.35 9.87 10.38.28.41.5.89.85 1.23 5.79 5.81 11.61 11.61 17.41 17.41.34.34.63.71.94 1.07l-2.74 1.26Z" fill="#e95044"/>
        <path d="M106.97 91.37c-.29-.41-.52-.88-.87-1.23-4.78-4.8-9.57-9.57-14.35-14.36-.33-.33-.62-.72-.92-1.08.1-1.03.17-2.06.32-3.08.03-.24.29-.56.52-.63.71-.23 1.46-.36 2.31-.55.33 1.24.65 2.42.95 3.6.67 2.66 1.63 3.35 4.33 3.08 1.72 1.77 3.41 3.57 5.16 5.31 1.8 1.8 3.65 3.56 5.48 5.33l-2.92 3.61Z" fill="#f5af9b"/>
        <path d="M85.37 108.14c-.31-.36-.61-.73-.94-1.07-5.8-5.8-11.61-11.6-17.41-17.41-.35-.35-.57-.82-.85-1.23 1.84.34 3.67.69 5.51 1.03.27.46.46 1 .83 1.36 4.87 4.9 9.77 9.78 14.65 14.67.35.35.58.82.86 1.24-.88.47-1.76.94-2.65 1.41Z" fill="#eb5d5a"/>
        <path d="M84.11 85.32c.36.31.74.6 1.08.93 4.12 4.11 8.23 8.22 12.35 12.33.34.33.71.63 1.07.94-.9.71-1.8 1.42-2.7 2.12-.1-.06-.22-.11-.3-.2-4.55-4.54-9.11-9.08-13.65-13.64-.21-.21-.3-.54-.45-.81l2.6-1.68Z" fill="#f5af9b"/>
        <path d="M88.02 106.73c-.28-.42-.51-.89-.86-1.24-4.88-4.9-9.77-9.77-14.65-14.67-.36-.37-.56-.91-.83-1.36 1.01-.03 2.02-.05 3.04-.08.64.74 1.24 1.52 1.92 2.22 1.52 1.57 3.08 3.09 4.62 4.63 2.71 2.71 5.42 5.4 8.12 8.12.32.32.53.76.78 1.15-.72.41-1.43.82-2.15 1.22Z" fill="#ed6e60"/>
        <path d="M109.89 87.76c-1.83-1.77-3.68-3.53-5.48-5.33-1.75-1.74-3.44-3.54-5.16-5.31l4.33-1.2c.19.41.3.92.6 1.22 2.29 2.34 4.6 4.64 6.93 6.93.26.26.66.38 1 .57-.74 1.04-1.48 2.07-2.22 3.11Z" fill="#f19887"/>
        <path d="M81.51 87c.15.27.24.6.45.81 4.54 4.55 9.09 9.1 13.65 13.64.08.08.2.13.3.2-.71.5-1.42 1-2.12 1.5-.31-.36-.6-.74-.93-1.08-4.22-4.23-8.46-8.44-12.66-12.68-.36-.37-.55-.9-.83-1.36.72-.34 1.43-.68 2.15-1.02Z" fill="#f19887"/>
        <path d="M90.17 105.51c-.26-.38-.46-.82-.78-1.15-2.69-2.72-5.41-5.42-8.12-8.12-1.54-1.54-3.1-3.07-4.62-4.63-.68-.7-1.28-1.48-1.92-2.22.82-.18 1.63-.37 2.45-.55.3.45.55.95.92 1.33 4.66 4.72 9.35 9.42 14.03 14.13-.65.4-1.3.81-1.95 1.21Z" fill="#ef8070"/>
        <path d="M112.11 84.65c-.34-.19-.74-.31-1-.57-2.33-2.29-4.65-4.6-6.93-6.93-.3-.31-.4-.81-.6-1.22 1.44-.39 2.89-.77 4.33-1.16.06.18.07.42.19.54 2.03 2 4.07 3.99 6.1 5.98l-2.1 3.36Z" fill="#ef8070"/>
        <path d="M92.11 104.3c-4.68-4.71-9.36-9.41-14.03-14.13-.37-.38-.62-.89-.92-1.33l2.19-.81c.27.46.46 1 .83 1.36 4.21 4.24 8.44 8.46 12.66 12.68.33.33.62.72.93 1.08l-1.67 1.16Z" fill="#f18389"/>
        <path d="M114.21 81.29c-2.04-1.99-4.08-3.98-6.1-5.98-.12-.12-.13-.36-.19-.54 2-.55 4-1.1 5.99-1.65.23.35.43.74.71 1.05.71.8 1.46 1.56 2.19 2.34l-2.6 4.78Z" fill="#ed6e60"/>
        <path d="M116.81 76.51c-.73-.78-1.48-1.54-2.19-2.34-.28-.31-.47-.7-.71-1.05 2.9-.45 4-2.58 4.74-5.06l1.44.51c-1.09 2.65-2.19 5.3-3.28 7.94Z" fill="#e95044"/>
        <path d="M33.07 110.49c-.48-.24-.97-.49-1.45-.73.48.24.97.49 1.45.73Z" fill="#ffffff"/>
        <path d="M106.1 10.09c.28.16.56.33.84.49-.28-.16-.56-.33-.84-.49Z" fill="#ffffff"/>
        <path d="M106.94 10.58c.24.16.49.32.73.49-.24-.16-.49-.32-.73-.49Z" fill="#ffffff"/>
        <path d="M33.55 110.73c-.16-.08-.33-.16-.49-.25.16.08.33.16.49.25Z" fill="#ffffff"/>
        <path d="M34.03 110.97c-.16-.08-.33-.16-.49-.25.16.08.33.16.49.25Z" fill="#ffffff"/>
        <path d="m107.65 11.05.26.26-.26-.26Z" fill="#ffffff"/>
        <path d="M107.89 11.28c.09.13.18.25.27.38-.09-.13-.18-.25-.27-.38Z" fill="#ffffff"/>
        <path d="M34.25 111.23c-.07-.09-.15-.17-.22-.26.07.09.15.17.22.26Z" fill="#ffffff"/>
        <path d="M81.06 32.28c.39-.09.78-.19 1.17-.28.42 1.4.83 2.81 1.25 4.21 1.01 3.83 2.03 7.67 3.04 11.5.84 3.33 1.67 6.66 2.53 10.06.63-.12 1.12-.21 1.62-.31-.18.41-.37.82-.55 1.23-.22.17-.44.33-.66.5-1.03.34-1.62.03-1.71-1.1-.02-.27-.16-.52-.25-.78-.55-2.08-1.09-4.16-1.64-6.24-.55-2.08-1.1-4.16-1.66-6.24-.55-2.08-1.11-4.16-1.66-6.24-.07-.39-.13-.77-.22-1.16-.41-1.72-.83-3.44-1.25-5.15Z" fill="#2b4855"/>
        <path d="M86.51 47.71c-1.01-3.83-2.03-7.67-3.04-11.5.72.4 1.45.8 2.17 1.2.94 3.75 1.88 7.51 2.83 11.26l-1.95-.96Z" fill="#e95044"/>
        <path d="M76.03 26.98c-.67.04-1.34.12-2 .12-3.78.01-7.56 0-11.34 0-.43 0-.86-.07-1.3-.11.71-.05 1.42-.11 2.14-.16h10.8l1.71.15Z" fill="#94a7b2"/>
        <path d="M107.18 63.77c-.96.22-1.92.45-3.13.73-1.34-5.42-2.68-10.86-4.02-16.3.29.18.64.32.88.56 4.07 4.05 8.13 8.11 12.19 12.17.25.25.41.57.61.86l-6.52 1.98Z" fill="#e95044"/>
        <path d="m107.18 63.77 6.52-1.98c.94-.26 1.88-.57 2.83-.76.95-.19 1.95-.44 2.68.54-.24.27-.48.54-.73.8-.51-.02-1.05-.15-1.52-.03-1.86.5-3.69 1.08-5.54 1.63-1.1.32-2.2.64-3.31.95-.56.1-1.12.19-1.67.29l.72-1.44Z" fill="#ffffff"/>
        <path d="M88.1 41.06c-1.04-4.08-2.1-8.15-3.13-12.24-.3-1.17.07-2.02 1.15-2.26 2.12-.47 4.27-.79 6.41-1.18 1.01 3.67 2.08 7.32 3.03 11 1.28 4.96 2.46 9.94 3.69 14.92-.38-.27-.8-.5-1.13-.82-2.92-2.89-5.82-5.81-8.75-8.7-.34-.33-.84-.49-1.27-.73Z" fill="#79909d"/>
        <path d="M110.59 72.47c-.97.27-1.95.55-2.92.82-.22-.32-.39-.68-.66-.95-4.56-4.57-9.13-9.13-13.7-13.69-.27-.27-.64-.43-.96-.64l-1.26-5.25c.39.25.83.44 1.15.75 2.95 2.92 5.87 5.86 8.82 8.78.32.31.77.5 1.16.74.13.41.28.82.39 1.24.37 1.33.81 1.66 2.17 1.59.31.45.57.95.95 1.34 1.35 1.39 2.75 2.74 4.1 4.13.32.33.52.76.77 1.15Z" fill="#a7b7c0"/>
        <path d="M88.1 41.06c.43.24.93.4 1.27.73 2.93 2.88 5.82 5.8 8.75 8.7.33.32.75.55 1.13.82.54 2.08 1.09 4.16 1.63 6.24-.43-.26-.92-.44-1.27-.78-2.95-2.91-5.87-5.86-8.82-8.77-.32-.31-.77-.5-1.16-.74-.51-2.06-1.02-4.13-1.54-6.19Z" fill="#849aa6"/>
        <path d="M89.63 47.26c.39.24.84.43 1.16.74 2.95 2.91 5.87 5.86 8.82 8.77.34.34.84.52 1.27.78.45 1.83.89 3.66 1.34 5.48-.39-.24-.84-.43-1.16-.74-2.95-2.92-5.87-5.86-8.82-8.78-.32-.32-.77-.51-1.15-.75l-1.44-5.5Z" fill="#94a7b2"/>
        <path d="M110.59 72.47c-.25-.39-.45-.82-.77-1.15-1.35-1.39-2.75-2.73-4.1-4.13-.38-.39-.63-.89-.95-1.34.56-.22 1.12-.43 1.68-.65.56-.1 1.12-.19 1.67-.29.23.36.4.76.69 1.06 1.44 1.48 2.92 2.91 4.36 4.39.32.33.52.77.77 1.15-1.12.31-2.25.63-3.37.94Z" fill="#94a7b2"/>
        <path d="M92.34 58.02c.32.21.7.38.96.64 4.58 4.55 9.14 9.12 13.7 13.69.27.27.44.63.66.95-1.26.32-2.51.65-3.77.97-.1-.26-.13-.58-.31-.75-2.67-2.64-5.36-5.26-8.03-7.89-1.98-1.95-3.96-3.92-5.92-5.89-.12-.12-.13-.36-.19-.55.22-.17.44-.33.66-.5.85.13 1.71.3 2.23-.67Z" fill="#b8c5cd"/>
        <path d="m86.51 47.71 1.95.96 2.19 8.79c-.5.09-.99.19-1.62.31-.85-3.4-1.69-6.73-2.53-10.06Z" fill="#ed6e60"/>
        <path d="M89.64 72.16c-.19 3.93-1.78 7.28-4.44 10.09-1.21 1.28-2.74 2.24-4.12 3.35-2.48-2.43-4.95-4.85-7.42-7.29-.16-.15-.2-.42-.3-.63 3.29-.85 5.38-2.85 6.12-6.22.43-1.95-.59-4.12-2.43-5.04-.1-.11-.19-.25-.32-.32-1.95-1-5.03-.4-6.88 1.24-1.36 1.19-2.14 2.7-2.72 4.35-1.86-1.82-3.71-3.66-5.6-5.46-.73-.7-1.55-1.32-2.33-1.98 3.01-5.34 7.61-8.24 13.68-8.87.21.41.33.9.63 1.21 4.96 4.99 9.93 9.96 14.92 14.91.31.31.79.45 1.2.66Z" fill="#e3e9ed"/>
        <path d="M15.54 73.11c-.4-2.06-.8-4.12-1.19-6.19-.09-.47-.1-.96-.25-1.41-.64-2.02.05-3.73 1.22-5.33.3.18.64.31.88.55 4.25 4.22 8.48 8.45 12.7 12.7.28.28.38.74.56 1.12-2.49-1.99-5.64.73-5.76 3-.08 1.55 1.31 3 2.73 2.76 2.69-.45 4.45-2.94 3.48-5.26.44.22.96.36 1.3.69 1.58 1.51 3.1 3.09 4.67 4.62.3.29.71.47 1.06.7-.93 1.35-1.67 2.9-2.82 4.03-4.07 4-11.24 4.05-15.19.17-2.7-2.65-3.6-5.93-2.88-9.61.2-.99.03-1.76-.51-2.53Z" fill="#79909d"/>
        <path d="M89.44 59.19c.06.18.07.42.19.55 1.97 1.97 3.94 3.93 5.92 5.89 2.68 2.63 5.37 5.25 8.03 7.89.18.18.21.5.31.75-1.76.51-3.51 1.05-5.27 1.52-1.13.3-1.9-.2-2.22-1.39-.48-1.84-.91-3.69-1.38-5.61-.7.13-1.32.24-1.94.35-.17-.22-.31-.47-.5-.66-5.55-5.55-11.1-11.1-16.66-16.63-.24-.24-.59-.36-.88-.54l-1.92-7.19c.46.26 1.01.44 1.37.81 3.91 3.87 7.79 7.77 11.7 11.64.34.34.85.5 1.28.74.09.26.23.52.25.78.09 1.14.68 1.44 1.71 1.1Z" fill="#cad6dd"/>
        <path d="M36.94 81.05c-.36-.23-.77-.41-1.06-.7-1.57-1.53-3.09-3.11-4.67-4.62-.34-.33-.86-.46-1.3-.69-.15-.17-.3-.34-.44-.51-.18-.38-.29-.83-.56-1.12-4.22-4.25-8.46-8.48-12.7-12.7-.24-.24-.59-.37-.88-.55 1.03-1.77 2.06-3.55 3.09-5.32l7.66 7.63c-.39.93-.77 1.86-1.16 2.78 1.2.07 2.39.14 3.59.22.27.38.5.8.83 1.13 2.67 2.69 5.38 5.36 8.03 8.07.37.38.5 1.01.74 1.52-.38 1.61-.77 3.23-1.15 4.84Z" fill="#849aa6"/>
        <path d="M70.73 87.94c-5.91-.26-11.48-4.7-13.17-10.6-.27-.94-.64-1.28-1.61-1.24-1.39.06-2.79-.04-4.18-.07-.25-.39-.45-.83-.77-1.15-2.69-2.72-5.41-5.4-8.09-8.12-.34-.34-.5-.85-.74-1.28h6.96c.13.32.19.71.41.94 1.2 1.18 2.48 2.3 3.68 3.49 5.63 5.6 11.25 11.22 16.85 16.85.31.31.45.79.67 1.19Z" fill="#b8c5cd"/>
        <path d="M73.36 77.68c.1.21.14.47.3.63 2.46 2.44 4.94 4.86 7.42 7.29-1.69.66-3.37 1.32-5.06 1.98-.28-.42-.49-.9-.84-1.25-6.54-6.56-13.1-13.09-19.64-19.65-.35-.35-.6-.81-.9-1.22.72 0 1.45-.08 2.16 0 1.09.12 1.96-.1 2.4-1.22.78.66 1.59 1.27 2.33 1.98 1.89 1.8 3.74 3.64 5.6 5.46 0 .48-.02.96 0 1.43.06 1.56 1.18 3.23 2.39 3.59.28.24.53.64.84.69.99.16 2 .2 3 .28Z" fill="#d8dfe5"/>
        <path d="M54.64 65.47c.3.41.54.87.9 1.22 6.54 6.55 13.1 13.09 19.64 19.65.35.35.56.83.84 1.25-1.74.39-3.49.83-5.29.36-.22-.4-.36-.88-.67-1.19a5353.7 5353.7 0 0 0-16.85-16.85c-1.2-1.19-2.47-2.3-3.68-3.49-.23-.22-.28-.62-.41-.94 1.84 0 3.68 0 5.52-.01Z" fill="#cad6dd"/>
        <path d="M75.04 51.31c.3.18.65.31.88.54 5.56 5.54 11.11 11.08 16.66 16.63.19.19.33.44.5.66-1.1.31-2.19.62-3.45.97v2.05c-.4-.22-.89-.35-1.2-.66-4.99-4.95-9.97-9.92-14.92-14.91-.31-.31-.43-.8-.63-1.21h3.11c-.35-1.5-.65-2.79-.94-4.07Z" fill="#d8dfe5"/>
        <path d="M42.16 65.48c.24.43.41.94.74 1.28 2.68 2.72 5.4 5.41 8.09 8.12.32.32.51.76.77 1.15h-7.19c-.26-.38-.46-.82-.77-1.14-2.74-2.77-5.51-5.51-8.25-8.27-.32-.33-.55-.75-.82-1.12h7.44Z" fill="#a7b7c0"/>
        <path d="M34.73 65.48c.27.38.5.8.82 1.12 2.74 2.77 5.51 5.51 8.25 8.27.32.32.52.76.77 1.14-1.73.05-3.46.09-5.19.14-.43.01-.87.03-1.3.04-.24-.51-.37-1.14-.74-1.52-2.65-2.72-5.36-5.38-8.03-8.07-.32-.33-.55-.75-.83-1.13h6.24Z" fill="#94a7b2"/>
        <path d="M111.44 63.97c1.84-.55 3.68-1.13 5.54-1.63.47-.13 1.01.01 1.52.03-.23 1.26-.39 2.54-.71 3.77-.29 1.1-.77 2.15-1.17 3.21l-5.17-5.38Z" fill="#79909d"/>
        <path d="m111.44 63.97 5.17 5.38c-.27 1.47-1.31 2.01-2.65 2.18-.25-.39-.45-.83-.77-1.15-1.44-1.48-2.92-2.92-4.36-4.39-.29-.3-.47-.7-.69-1.06 1.1-.32 2.2-.64 3.31-.95Z" fill="#849aa6"/>
        <path d="M45.29 49.63c1.37.25 2.05-.42 2.65-1.61 1.75-3.49 3.65-6.9 5.5-10.34.11-.2.31-.35.47-.52 2.57 2.57 5.14 5.15 7.71 7.72-1.83 3.44-3.62 6.89-5.5 10.3-.7 1.27-1.61 2.42-2.42 3.63-.28-.33-.53-.68-.83-.99-2.29-2.3-4.6-4.58-6.87-6.9-.33-.34-.48-.85-.71-1.28Z" fill="#e3e9ed"/>
        <path d="M87.49 57.31c-.43-.24-.94-.41-1.28-.74-3.91-3.87-7.79-7.77-11.7-11.64-.37-.36-.91-.54-1.37-.81-.4-1.48-.79-2.95-1.21-4.42-.06-.22-.29-.4-.43-.6-.36-.09-.71-.23-1.07-.24-1.02-.04-2.04-.04-3.06-.05-.24-.43-.41-.94-.74-1.28-2.35-2.4-4.74-4.75-7.1-7.14-.32-.33-.53-.76-.8-1.14 1.29-1.03 2.81-1 4.34-.91.24.35.43.75.72 1.05 6.99 7 14 14 21.01 20.98.29.29.7.47 1.06.71.55 2.08 1.09 4.16 1.64 6.24Z" fill="#b8c5cd"/>
        <path d="M85.84 51.07c-.36-.23-.76-.41-1.06-.71-7.01-6.98-14.01-13.98-21.01-20.98-.3-.3-.49-.7-.72-1.05h4.56c.18.29.32.64.56.87 5 5.02 10.02 10.03 15.04 15.02.26.26.65.4.98.6.55 2.08 1.1 4.16 1.66 6.24Z" fill="#a7b7c0"/>
        <path d="M45.29 49.63c.23.43.38.95.71 1.28 2.27 2.32 4.58 4.6 6.87 6.9.3.3.56.66.83.99-.31.23-.6.48-.93.68-1.54.9-3.21.5-4.85.49-.25-.39-.45-.83-.77-1.15-2.67-2.7-5.36-5.36-8.03-8.06-.32-.32-.53-.76-.79-1.14h6.96Z" fill="#d8dfe5"/>
        <path d="M26.1 49.61h6.24c.26.38.46.82.77 1.14 2.62 2.65 5.28 5.26 7.89 7.92.33.33.46.86.68 1.29h-6c-.25-.39-.45-.83-.77-1.15-2.67-2.7-5.37-5.37-8.04-8.06-.32-.32-.52-.76-.78-1.15Z" fill="#b8c5cd"/>
        <path d="M41.69 59.97c-.22-.44-.36-.96-.68-1.29-2.61-2.66-5.27-5.27-7.89-7.92-.32-.32-.52-.76-.77-1.14h5.99c.26.38.47.82.79 1.14 2.67 2.69 5.36 5.36 8.03 8.06.32.32.52.76.77 1.15h-6.24Z" fill="#cad6dd"/>
        <path d="M84.19 44.83c-.33-.2-.71-.34-.98-.6-5.02-5-10.04-10-15.04-15.02-.24-.24-.37-.58-.56-.87h4.56c.28.47.48 1.01.85 1.39 2.65 2.69 5.32 5.36 8.01 8 .4.39.99.58 1.5.87.55 2.08 1.11 4.16 1.66 6.24Z" fill="#94a7b2"/>
        <path d="M26.1 49.61c.26.38.46.82.78 1.15 2.67 2.7 5.37 5.36 8.04 8.06.32.32.52.76.77 1.15h-5.75c-.09-.21-.12-.49-.27-.64-2.86-2.85-5.74-5.68-8.62-8.51.95-1.04 2.19-1.27 3.52-1.23.51.01 1.02.01 1.53.02Z" fill="#a7b7c0"/>
        <path d="M21.06 50.83c2.88 2.84 5.75 5.67 8.62 8.51.15.15.18.42.27.64-1.82-.13-3.07.62-3.71 2.35-.02.07-.11.11-.17.16l-7.66-7.63c.89-1.34 1.77-2.68 2.66-4.03Z" fill="#94a7b2"/>
        <path d="M61.62 44.88c-2.57-2.57-5.14-5.15-7.71-7.72.8-1.52 1.6-3.04 2.4-4.55l7.71 7.74c-.8 1.51-1.6 3.02-2.4 4.54Z" fill="#d8dfe5"/>
        <path d="m64.03 40.34-7.71-7.74 2.4-3.36c.26.38.47.82.8 1.14 2.36 2.39 4.75 4.74 7.1 7.14.33.34.5.85.74 1.28-1.35-.01-2.8-.23-3.33 1.54Z" fill="#cad6dd"/>
        <path d="M82.53 38.59c-.5-.28-1.1-.48-1.5-.87-2.7-2.64-5.37-5.31-8.01-8-.37-.38-.57-.92-.85-1.39.92-.01 1.83.02 2.74-.05 3.08-.23 5.11 1.11 6.14 3.99.42 1.72.84 3.43 1.25 5.15.09.38.15.77.22 1.16Z" fill="#849aa6"/>
        <path d="M71.48 39.1c.15.2.37.37.43.6.42 1.47.81 2.95 1.21 4.42l1.92 7.19c.3 1.29.6 2.57.94 4.07h-3.11c-6.07.63-10.67 3.52-13.68 8.87-.44 1.11-1.31 1.33-2.4 1.22-.71-.08-1.44 0-2.16 0-1.84 0-3.68 0-5.52.01H28.47c-1.2-.07-2.39-.14-3.59-.22l2.04-1.23c2.92 0 5.84.01 8.76.02h21.6c.23-.17.53-.3.68-.52.59-.86 1.14-1.75 1.71-2.63 2.16-2.45 4.67-4.43 7.74-5.64.79-.31 1.57-.62 2.36-.93 1.45-.16 2.9-.33 4.49-.51-.17-.52-.33-1.04-.49-1.55-1.04-4-2.07-8-3.11-12 .27-.38.54-.77.81-1.15Z" fill="#ffffff"/>
        <path d="M73.36 77.68c-1-.08-2.01-.12-3-.28-.31-.05-.56-.45-.84-.69.19-.25.37-.51.56-.76 1.52.53 3.02.71 4.47-.23 3.68-1.63 4.5-5.31 1.87-8.39.21-.3.41-.61.62-.91 1.84.93 2.86 3.1 2.43 5.04-.74 3.37-2.83 5.37-6.12 6.22Z" fill="#ffffff"/>
        <path d="M77.05 66.42c-.21.3-.41.61-.62.91-3.28-.86-5.86.24-7.18 3.06-.12.2-.27.38-.36.59-.78 1.94-.16 3.54 1.2 4.97-.19.25-.37.51-.56.76-1.22-.36-2.34-2.03-2.39-3.59-.02-.48 0-.96 0-1.43.58-1.66 1.36-3.16 2.72-4.35 1.86-1.63 4.93-2.24 6.88-1.24.13.07.21.21.32.32Z" fill="#2b4855"/>
        <path d="M29.46 74.54c.15.17.3.34.44.51.97 2.32-.79 4.8-3.48 5.26-1.42.24-2.81-1.21-2.73-2.76.12-2.27 3.28-4.99 5.76-3Z" fill="#e41b24"/>
        <path d="m26.94 64.04-2.04 1.23c.39-.93.77-1.86 1.16-2.78.06-.05.15-.09.18-.16.64-1.73 1.89-2.48 3.71-2.35h17.99c1.63 0 3.31.4 4.85-.49.33-.19.62-.45.93-.68.81-1.21 1.72-2.36 2.42-3.63 1.88-3.41 3.67-6.86 5.5-10.3.8-1.51 1.6-3.02 2.4-4.54.53-1.76 1.98-1.55 3.33-1.54 1.02.01 2.04 0 3.06.05.36.02.71.16 1.07.24-.27.38-.54.77-.81 1.15-.48.01-.97.12-1.42.02-2.7-.54-4.43.48-5.19 3.13-.59 1.11-1.17 2.23-1.76 3.34-.3.51-.61 1.01-.88 1.53-1.63 3.08-3.25 6.17-4.87 9.26-.8.94-1.6 1.89-2.4 2.83-1.11.37-2.22.73-3.33 1.1-1.76.03-3.52.07-5.28.1H34.28c-1.19 0-2.41.14-3.56-.06-2.16-.38-3.11.8-3.75 2.54Z" fill="#2b4855"/>
        <path d="M56.54 57.53c1.62-3.09 3.25-6.17 4.87-9.26.28-.52.59-1.02.88-1.53.27.15.59.24.8.44 2.09 2.06 4.16 4.13 6.22 6.22.23.23.32.61.47.91-.79.31-1.57.62-2.36.93-3.07 1.21-5.58 3.19-7.74 5.64l-3.15-3.36Z" fill="#f7beaa"/>
        <path d="M64.06 43.4c.76-2.65 2.49-3.67 5.19-3.13.45.09.95-.01 1.42-.02 1.04 4 2.07 8 3.11 12-.43-.24-.93-.41-1.27-.74-2.49-2.44-4.94-4.92-7.42-7.38-.3-.29-.69-.49-1.04-.73Z" fill="#f19887"/>
        <path d="M64.06 43.4c.35.24.74.44 1.04.73 2.48 2.45 4.93 4.93 7.42 7.38.34.33.84.5 1.27.74.16.52.33 1.03.49 1.55-1.58.18-3.03.34-4.49.51-.15-.31-.24-.68-.47-.91-2.06-2.09-4.13-4.16-6.22-6.22-.21-.21-.53-.3-.8-.44.59-1.11 1.17-2.23 1.76-3.34Z" fill="#f5af9b"/>
        <path d="m56.54 57.53 3.15 3.36c-.56.88-1.11 1.77-1.71 2.63-.15.22-.45.35-.68.52-.23-.36-.42-.75-.7-1.06-.8-.89-1.63-1.74-2.45-2.61.8-.94 1.6-1.89 2.4-2.83Z" fill="#f5af9b"/>
        <path d="M26.94 64.04c.65-1.73 1.59-2.92 3.75-2.54 1.15.2 2.37.05 3.56.06.21.43.41.87.65 1.28.24.42.54.81.81 1.21-2.92 0-5.84-.01-8.76-.02Z" fill="#e73a3e"/>
        <path d="M39.54 61.57h5.99c.48.83.97 1.65 1.45 2.48h-5.76c-.26-.39-.51-.77-.77-1.15-.3-.44-.61-.88-.91-1.33Z" fill="#eb5d5a"/>
        <path d="M46.98 64.05c-.48-.83-.97-1.65-1.45-2.48 1.76-.03 3.52-.07 5.28-.1.22.39.43.8.67 1.18.32.48.67.93 1.01 1.4h-5.52Z" fill="#ef8070"/>
        <path d="M39.54 61.57c.3.44.61.88.91 1.33.26.38.51.77.77 1.15H35.7c-.27-.4-.56-.79-.81-1.21-.24-.41-.43-.85-.65-1.28h5.29Z" fill="#e95044"/>
        <path d="M52.5 64.04c-.34-.47-.7-.92-1.01-1.4-.25-.38-.45-.78-.67-1.18 1.11-.37 2.22-.73 3.33-1.1.82.87 1.66 1.72 2.45 2.61.28.31.47.71.7 1.06h-4.8Z" fill="#f19887"/>
        <path d="M69.25 70.39c1.31-2.82 3.9-3.92 7.18-3.06 2.63 3.09 1.81 6.76-1.87 8.39-1.77-1.78-3.54-3.55-5.31-5.33Z" fill="#f7beaa"/>
        <path d="M69.25 70.39c1.77 1.78 3.54 3.55 5.31 5.33-1.45.94-2.95.76-4.47.23-1.36-1.43-1.98-3.03-1.2-4.97.09-.21.24-.4.36-.59Z" fill="#f5af9b"/>
    </g>
</svg>
