<?xml version="1.0" encoding="UTF-8"?>
<svg data-bbox="-0.003 -0.005 773.809 175.042" viewBox="0 0 773.8 175.03" xmlns="http://www.w3.org/2000/svg" data-type="ugc">
    <g>
        <path d="M773.55 123.72v17.51H238.74v-17.51h534.81Z" fill="#80b23e"/>
        <path d="M262.24 56.92v54.89H238.9V33.12c1.24-.09 2.54-.27 3.84-.27 10.44-.02 20.88.12 31.32-.1 2.82-.06 4.08.97 5.17 3.34 6 13.02 12.13 25.98 18.24 38.95.44.93 1.07 1.77 2.02 3.32 3.51-7.38 6.73-14.15 9.95-20.93 3.59-7.56 7.11-15.15 10.85-22.64.47-.94 2.05-1.86 3.12-1.88 11.94-.13 23.88-.08 36.07-.08v78.99h-22.66V56.7c-.29-.11-.57-.23-.86-.34-.6 1.05-1.26 2.08-1.81 3.16-8.23 16.36-16.53 32.69-24.57 49.14-1.37 2.79-3.07 3.6-5.91 3.61-12.62.05-12.62.1-18.36-11.32-7.4-14.72-14.8-29.44-22.2-44.15l-.88.12Z" fill="#289548"/>
        <path d="M721.36 112.12c-10.02 0-20.06.26-30.07-.07-9.21-.3-18.89-5.11-20.81-14.34-.27-1.29-.61-2.6-.62-3.91-.05-13.87.32-27.75-.16-41.6-.35-10.22 8.6-18.8 18.76-19.02 19.02-.42 38.05-.92 57.07-.68 6.82.09 13.92.11 20.26 4.4 5.49 3.72 7.73 8.67 7.82 14.71.22 13.73.3 27.46 0 41.19-.25 11.05-5.97 16.94-17.45 18.38-11.48 1.45-23.17 1.3-34.77 1.85 0-.3-.01-.61-.02-.91Zm.87-60.14c-7.82 0-15.64-.07-23.45.03-4.96.06-6.25 1.45-6.35 6.45-.07 3.29-.02 6.58-.01 9.87 0 6.3-.08 12.61.06 18.91.06 2.46.44 5.19 3.86 5.2 16.46.05 32.92.15 49.37-.07 4.62-.06 5.73-1.79 5.73-6.53 0-9.32.02-18.64 0-27.96-.01-4.55-1.16-5.82-5.76-5.88-7.82-.1-15.63-.03-23.45-.03Z" fill="#289548"/>
        <path d="M375.4 33.09c5.49-.08 10.97-.23 16.46-.23 22.94-.03 45.88-.01 69.06-.01V51.3h-61.06v12.74h57.77V80.6h-58.06v12.53h61.97v18.74h-86.81V33.96c.22-.29.45-.58.67-.87Z" fill="#289548"/>
        <path d="M498.16 52.9v59.01h-24.67V33.04c1.48-.07 2.82-.19 4.15-.19 21.15-.01 42.31-.08 63.46.05 4.19.02 8.51.29 12.54 1.32 7.73 1.97 13.71 6.27 14.02 15.09.25 7.15.89 14.56-.63 21.41-1.84 8.31-8.08 11.52-16.89 12.62-1.62.2-3.29.03-6.19.03l32.96 28.74c-6.13 0-11.18-.5-16.08.11-8.78 1.09-15.06-2.19-21.29-8.31-12.16-11.95-25.19-23.01-38.51-35.03 1.94-.13 3.07-.28 4.2-.28 10.44-.02 20.88.06 31.32-.04 6.53-.06 10.19-4.15 8.76-9.84-.98-3.91-4.13-5.72-7.88-5.77-12.89-.16-25.78-.06-39.27-.06Z" fill="#289548"/>
        <path d="M583.4 32.92h24.54v59.5h53.35v19.42H583.4V32.92Z" fill="#289548"/>
        <path d="M124.71 174.87c-7.77 0-15.57.43-23.3-.09-15.54-1.04-31.06-2.5-46.57-3.96-7.15-.67-14.33-1.41-21.38-2.69-10.08-1.83-18.22-7.48-23.1-16.19-3.24-5.77-4.62-12.78-5.92-19.41C.84 114.21-.67 95.66.27 77.01c.44-8.76 1.37-17.52 2.64-26.2 1.16-7.93 2.24-16.04 4.88-23.53C12.18 14.84 21.71 7.71 34.84 5.89c12.81-1.77 25.65-3.34 38.49-4.84C77.78.53 82.27.24 86.75.2 99.27.09 111.8-.25 124.3.3c10.92.48 21.81 1.96 32.69 3.16 7.74.86 15.6 1.4 23.15 3.15 14.49 3.34 23.67 12.46 26.18 27.38 1.66 9.84 3.09 19.74 4.08 29.66.94 9.45 1.83 19 1.56 28.47-.29 10.21-1.75 20.42-3.11 30.57-1.03 7.69-2.09 15.47-4.21 22.9-3.76 13.23-13.94 20.22-26.7 22.45-14.5 2.54-29.27 3.51-43.93 5.17-3.09.35-6.17.77-9.26 1.15-.02.16-.04.33-.05.49Zm68.52-157.45-1.05-1.23c-3.61-2.04-6.99-4.88-10.87-5.94-5.64-1.56-11.62-1.97-17.48-2.65-12.48-1.45-24.95-3.11-37.48-4-8.76-.62-17.62-.42-26.41-.05-13.02.55-26.04 1.39-39.03 2.46-9.13.76-18.28 1.75-27.3 3.32-6.88 1.19-12.86 4.58-17.08 10.47-2.12 3.68-5.08 7.13-6.19 11.1-1.83 6.54-2.75 13.38-3.56 20.15-1.3 10.99-2.82 22.01-3.1 33.05-.27 10.58.57 21.23 1.61 31.78.76 7.74 2.97 15.33 3.91 23.06 1.61 13.34 12.68 23.24 24.28 25.84 9.95 2.23 20.22 3.19 30.4 4.26 10.78 1.13 21.61 2.13 32.43 2.42 10.37.28 20.79-.05 31.13-.81 12.97-.96 25.93-2.33 38.8-4.14 6.99-.98 14.21-2.34 20.59-5.17 7.93-3.51 13.7-9.89 15.38-18.95 1-5.42 1.9-10.87 2.54-16.33 1.46-12.31 3.22-24.61 3.9-36.97.42-7.65-.68-15.43-1.52-23.1-1.17-10.58-2.45-21.16-4.26-31.65-.92-5.34-2.2-10.92-7.17-14.44l-2.48-2.48Z" fill="#356841"/>
        <path d="M375.4 33.09c-.22.29-.45.58-.67.87.22-.29.45-.58.67-.87Z" fill="#409c50"/>
        <path d="M195.7 19.89c4.98 3.52 6.25 9.1 7.17 14.44 1.81 10.48 3.09 21.07 4.26 31.65.85 7.67 1.94 15.45 1.52 23.1-.68 12.36-2.45 24.66-3.9 36.97-.65 5.47-1.54 10.92-2.54 16.33-1.68 9.05-7.44 15.44-15.38 18.95-6.39 2.83-13.6 4.18-20.59 5.17a594.67 594.67 0 0 1-38.8 4.14c-10.34.77-20.77 1.09-31.13.81-10.83-.29-21.65-1.29-32.43-2.42-10.18-1.07-20.45-2.02-30.4-4.26-11.6-2.6-22.67-12.5-24.28-25.84-.93-7.73-3.15-15.32-3.91-23.06-1.03-10.55-1.87-21.2-1.61-31.78.28-11.04 1.79-22.06 3.1-33.05.8-6.77 1.73-13.61 3.56-20.15 1.11-3.97 4.06-7.42 6.19-11.1.26.25.52.51.78.76-1.88 3.97-4.37 7.78-5.5 11.96-1.65 6.05-2.55 12.34-3.35 18.59-1.28 9.89-2.63 19.81-3.19 29.76-.93 16.59 1.34 33 4.16 49.3.97 5.63 2.7 11.12 4.08 16.68 3 3.56 6 7.13 9 10.69 1.34.85 2.67 1.7 4.01 2.55l.9.6c.21.19.46.26.74.23.3.19.6.38.91.56 1.91.61 3.78 1.53 5.73 1.79 11.35 1.49 22.71 2.99 34.09 4.17 10.08 1.05 20.2 2 30.32 2.4 7.05.28 14.16-.19 21.21-.76 15.39-1.24 30.78-2.6 46.13-4.23 5.15-.55 10.19-2.06 15.28-3.13l.31.02.3-.09c.82-.29 1.64-.59 2.46-.88l12.27-10.63c.2-.16.3-.38.3-.63.51-1.13 1.03-2.26 1.54-3.39.24-.3.6-.58.69-.92 4.34-17.48 7.11-35.31 7.13-53.22.02-15.92-2.19-31.87-3.91-47.75-.64-5.95-2.68-11.75-4.08-17.62-1.25-2.02-2.5-4.04-3.75-6.07.21-.21.42-.42.63-.62Z" fill="#fafbf9"/>
        <path d="M16.52 19.79c4.22-5.89 10.21-9.27 17.08-10.47C42.62 7.76 51.77 6.76 60.9 6c12.99-1.08 26.01-1.91 39.03-2.46 8.79-.37 17.65-.57 26.41.05 12.52.89 24.99 2.55 37.48 4 5.86.68 11.84 1.09 17.48 2.65 3.88 1.07 7.26 3.9 10.87 5.94l-.81.63c-1.06-.59-2.11-1.18-3.17-1.78-.53-.3-1.06-.6-1.6-.9-4.46-1.37-8.83-3.31-13.39-3.98-10.04-1.48-20.15-2.57-30.26-3.38-13.16-1.06-26.34-1.92-39.53-2.41-6.79-.25-13.62.49-20.43.79-.69.03-1.38.02-2.06.09-11.89 1.32-23.75 2.97-35.68 3.87-10.68.81-20.41 3.29-27.97 11.42-.26-.25-.52-.51-.78-.76Z" fill="#fafbf9"/>
        <path d="m193.23 17.42 2.48 2.48c-.21.21-.42.42-.63.62-.81-.82-1.63-1.64-2.45-2.46.2-.21.4-.42.6-.64Z" fill="#fafbf9"/>
        <path d="m192.18 16.19 1.05 1.23c-.2.21-.4.42-.6.64l-1.26-1.23.81-.63Z" fill="#fafbf9"/>
        <path d="M17.29 20.55c7.57-8.12 17.3-10.61 27.97-11.42 11.92-.9 23.79-2.56 35.68-3.87.68-.08 1.37-.06 2.06-.09 6.81-.29 13.64-1.04 20.43-.79 13.19.49 26.37 1.35 39.53 2.41 10.12.81 20.23 1.89 30.26 3.38 4.56.67 8.93 2.61 13.39 3.98l-.03.03c-.46.08-.93.16-1.39.25-1.74-.36-3.48-.72-5.21-1.08-.82-.03-1.65-.05-2.47-.08-1.13-.49-2.25-.99-3.38-1.48h-1.56c-1.41-.28-2.81-.55-4.22-.83-.79 0-1.58 0-2.37-.01-1.38-.03-2.76-.06-4.14-.08-.82-.01-1.64-.02-2.45-.04-.96-2.47-2.5-1.9-4.14-.78-1.09-.01-2.18-.03-3.28-.04-1.26-2.75-3.13-1.67-4.97-.79-.82 0-1.64-.01-2.45-.02l-5.88-1.53c-1.34.23-2.67.47-4.01.7-.94-.53-1.84-1.42-2.83-1.53-3.91-.43-7.86-.92-11.79-.82-16.48.42-32.96 1.03-49.43 1.66-.67.03-1.3 1.02-1.95 1.56l-1.59.15L63 8.52c-.86.51-1.73 1.03-2.59 1.54-.27.03-.55.03-.82.01-.3-.26-.6-.53-.89-.79l-3.12.06c-.86.52-1.72 1.03-2.59 1.55-.26.02-.51.06-.77.12l-4.17-.09-1.68.75c-1.33-.22-2.66-.45-3.99-.67l-1.77.78c-1.33.02-2.67.03-4 .05-.59.5-1.19.99-1.78 1.49-1.08.02-2.16.05-3.25.07l-6.63 3.27c-2.23 2.45-4.46 4.89-6.69 7.34-.59 1.34-1.17 2.68-1.76 4.03l-2.24 1.82-.06 1.65c-.01.54-.02 1.08-.04 1.62-.26.83-.52 1.66-.79 2.5 0 .54-.02 1.09-.03 1.63l-.81 3.3c0 .55-.02 1.09-.02 1.64-.26.83-.52 1.66-.78 2.5-.01.82-.03 1.63-.04 2.45-.27 1.1-.53 2.21-.8 3.31-.01.82-.02 1.64-.04 2.46l-.78 3.31c0 .82-.02 1.64-.03 2.46-2.73 1.25-1.65 3.12-.81 4.96 0 .82-.01 1.64-.02 2.46-2.89 1.88-1.66 4.26-.8 6.6 0 1.37 0 2.75.01 4.12-.53.65-1.5 1.3-1.52 1.96-.13 5.29-.13 10.58 0 15.86.02.68.97 1.33 1.5 2 0 1.64.01 3.29.02 4.93-1.02 2.1-1.84 4.18.79 5.78l.03 3.28c.26 1.38.53 2.76.79 4.13 0 .82.02 1.64.03 2.46l.81 4.13c.01.82.02 1.64.04 2.45.27 1.1.53 2.21.8 3.31 0 .55.01 1.09.02 1.64.27 1.1.54 2.2.8 3.31 0 .55.02 1.09.03 1.64l.78 2.49c.02.54.03 1.08.05 1.62.25.83.5 1.67.76 2.5.03.81.05 1.63.08 2.44.26.56.51 1.12.77 1.68l.06 1.61c-.51.27-1.03.54-1.54.81-1.38-5.56-3.1-11.05-4.08-16.68-2.82-16.3-5.09-32.71-4.16-49.3.56-9.95 1.92-19.86 3.19-29.76.8-6.24 1.7-12.53 3.35-18.59 1.14-4.18 3.62-7.99 5.5-11.96Z" fill="#409c50"/>
        <path d="m182.43 161.63-.3.09-.31-.02-11.73.72c-.56.01-1.11.02-1.67.04-1.64.26-3.28.53-4.93.79-.59.26-1.19.52-1.78.78-1.61.01-3.21.03-4.82.04-.59.26-1.19.52-1.78.78-1.88.02-3.76.03-5.64.05-.6.26-1.19.52-1.79.77l-6.46.05-2.61.78-8.11-.66c-.87.49-1.74.99-2.61 1.48l-13.88-.66h-15.7c-4.35.22-8.71.44-13.06.67-1.14-.5-2.29-.99-3.43-1.49l-8.11.66c-.6-.49-1.19-.99-1.79-1.48-2.15.22-4.31.44-6.46.67l-1.79-1.49c-2.13.03-4.27.21-6.39.07-3.12-.21-6.24-.52-9.33-1.01-6.29-1.01-12.56-2.17-18.84-3.28l-.89-.77c-1.62-.85-3.24-1.7-4.87-2.56-.04-.78-.07-1.57-.11-2.35 1.42.74 2.85 1.48 4.27 2.22.55-.19 1.1-.38 1.64-.58.22.03.44.04.67.04.26.04.52.06.78.05l3.41.84c.51 0 1.03-.01 1.54-.02 1.4.78 2.8 1.55 4.2 2.33 1.38.03 2.76.05 4.15.08.83-.03 1.65-.05 2.48-.08.26.02.53.04.79.07 1.1.28 2.21.55 3.31.83 1.37.03 2.74.05 4.11.08.85.49 1.69.97 2.54 1.46 1.08.01 2.17.03 3.25.04 1.65.02 3.3.04 4.95.07 4.4.53 8.8 1.06 13.19 1.58 2.75.03 5.51.05 8.26.08l5.03.59c1.34.02 2.68.04 4.02.07 6.17.15 12.35.31 18.52.41.16 0 .33-.7.49-1.07 1.92-.25 3.84-.5 5.76-.74 1.92.24 3.84.49 5.76.74 1.84.83 3.72 1.94 4.97-.82.81-.03 1.62-.05 2.43-.08l4.14.07 3.32-.81c1.08-.03 2.17-.07 3.25-.1l2.49.09c1.93-.03 3.86-.05 5.8-.08l2.42-.03 2.52-.87 2.37-.09c.57.05 1.14.09 1.71.14.85-.51 1.69-1.02 2.54-1.53.81-.03 1.61-.07 2.42-.1l1.66.09 2.51-.75c1.37-.3 2.74-.59 4.1-.89l3.28-.09 1.66.09c.56-.27 1.13-.54 1.69-.82 1.38-.56 2.76-1.13 4.15-1.69h2.46c-1.68 1.62-3.37 3.24-5.05 4.86l-.79 1.64Z" fill="#7ab162"/>
        <path d="M141.23 165.72c2.15-.02 4.31-.03 6.46-.05.6-.26 1.19-.52 1.79-.78 1.88-.02 3.76-.03 5.64-.04.6-.26 1.19-.52 1.78-.78 1.61-.01 3.21-.03 4.82-.04.59-.26 1.19-.52 1.78-.78 1.64-.26 3.28-.53 4.93-.79.56-.01 1.11-.02 1.67-.04l11.73-.72c-5.09 1.07-10.13 2.58-15.28 3.13-15.35 1.63-30.74 2.99-46.13 4.23-7.05.57-14.16 1.04-21.21.76-10.12-.4-20.24-1.35-30.32-2.4-11.39-1.18-22.74-2.68-34.09-4.17-1.96-.26-3.82-1.17-5.73-1.79-.3-.19-.6-.38-.91-.56a.946.946 0 0 1-.74-.23l-.9-.6c-1.34-.85-2.67-1.7-4.01-2.55.3-.29.59-.58.89-.87 1.62.85 3.24 1.7 4.87 2.56l.89.77c6.28 1.1 12.54 2.27 18.84 3.28 3.09.5 6.21.8 9.33 1.01 2.12.14 4.26-.03 6.39-.07l1.79 1.49c2.15-.22 4.31-.44 6.46-.67.6.49 1.19.99 1.79 1.48l8.11-.66c1.14.5 2.29.99 3.43 1.49 4.35-.22 8.71-.44 13.06-.67.52.52 1.03 1.47 1.56 1.48 4.19.12 8.39.12 12.58 0 .53-.02 1.04-.96 1.56-1.48l13.88.66c.87-.49 1.74-.99 2.61-1.48l8.11.66 2.61-.78Z" fill="#409c50"/>
        <path d="M198.83 26.58c1.4 5.87 3.44 11.67 4.08 17.62 1.72 15.88 3.93 31.83 3.91 47.75-.02 17.91-2.79 35.74-7.13 53.22-.08.34-.45.61-.69.92l-.11-.1c.82-5.78 1.65-11.55 2.47-17.33l1.83-23.8c.5-1.95.99-3.89 1.49-5.84l-.66-9.81c2.37-1.4 2.37-2.81 0-4.21.22-3.54.44-7.09.65-10.63-.49-1.67-.98-3.35-1.48-5.02-.02-1.64-.04-3.28-.05-4.92l-.77-3.32.66-3.22c-.49-1.12-.99-2.25-1.48-3.37l-.03-2.46c-.26-1.1-.53-2.2-.79-3.3-.01-.82-.03-1.63-.04-2.45l-.78-2.5-.93-9.02-.77-1.68-.06-2.43c.22-1.36.45-2.73.67-4.09Z" fill="#409c50"/>
        <path d="M183.21 159.99c1.68-1.62 3.37-3.24 5.05-4.86.28-.54.56-1.08.85-1.62 1.35-1.12 2.7-2.25 4.05-3.37 1.1-.32 2.2-.64 3.31-.95l.7.93c-4.09 3.54-8.18 7.09-12.27 10.63-.56-.25-1.12-.5-1.68-.76Z" fill="#54a253"/>
        <path d="M198.83 26.58c-.22 1.36-.45 2.73-.67 4.09-2.42-5.88-5.7-11.05-11.62-14.03a4.98 4.98 0 0 1-.05-.77c.57-.27 1.15-.55 1.72-.82 1.06.59 2.11 1.18 3.17 1.78l1.26 1.23c.82.82 1.63 1.64 2.45 2.46 1.25 2.02 2.5 4.04 3.75 6.07Z" fill="#54a253"/>
        <path d="M23.37 156.65c-.3.29-.59.58-.89.87-3-3.56-6-7.13-9-10.69.51-.27 1.03-.54 1.54-.81 1.1 1.1 2.21 2.2 3.31 3.3l.37.11c.37.43.75.86 1.12 1.3 1.14 1.19 2.29 2.38 3.43 3.58.04.78.07 1.57.11 2.35Z" fill="#54a253"/>
        <path d="M199.01 146.09c-.51 1.13-1.03 2.26-1.54 3.39l-.17-.16c-.01-.82-.03-1.65-.04-2.47.55-.28 1.1-.57 1.64-.85l.11.1Z" fill="#409c50"/>
        <path d="M183.21 159.99c.56.25 1.12.5 1.68.76-.82.29-1.64.59-2.46.88.26-.55.52-1.09.79-1.64Z" fill="#409c50"/>
        <path d="M28.14 160.9c.3.19.6.38.91.56-.3-.19-.6-.38-.91-.56Z" fill="#54a253"/>
        <path d="m26.49 160.07.9.6-.9-.6Z" fill="#54a253"/>
        <path d="M197.16 150.12c-.23-.31-.47-.62-.7-.93.28.05.55.09.83.14l.17.16c0 .26-.11.47-.3.63Z" fill="#409c50"/>
        <path d="M188.2 15.05c-.57.27-1.15.55-1.72.82l.09-1.69.03-.03c.53.3 1.06.6 1.6.9Z" fill="#409c50"/>
        <path d="M68.64 9.24c.65-.54 1.28-1.53 1.95-1.56 16.47-.63 32.95-1.24 49.43-1.66 3.92-.1 7.87.4 11.79.82.99.11 1.89 1 2.83 1.53-.58.05-1.16.11-1.74.16-2.21.05-4.41.11-6.62.17-1.89-.05-3.79-.09-5.68-.14-.55-.05-1.1-.1-1.65-.14H93.39l-2.48.15c-1.62.05-3.24.09-4.86.13-2.2-.05-4.4-.1-6.6-.14-.59.48-1.18.97-1.77 1.45l-3.26.12c-1.92-.3-3.85-.59-5.77-.89Z" fill="#54a253"/>
        <path d="m48.04 10.93 4.17.09c-.02.78-.04 1.56-.07 2.34-.55 0-1.09.01-1.64.02-1.1.03-2.19.05-3.29.08l-3.23.06-2.54.75c-1.07.02-2.15.05-3.22.07-.85.25-1.71.51-2.56.76-1.07.02-2.15.05-3.22.07-.29-.05-.58-.1-.88-.14v-1.65c1.08-.02 2.16-.05 3.25-.07.59-.5 1.19-.99 1.78-1.49 1.33-.02 2.67-.03 4-.05l1.77-.78c1.33.22 2.66.45 3.99.67l1.68-.75Z" fill="#7ab162"/>
        <path d="M8.38 96.62c-.52-.66-1.48-1.32-1.5-2-.12-5.29-.12-10.58 0-15.86.02-.67.99-1.31 1.52-1.96.03 2.49.06 4.98.1 7.47v4.87l-.12 7.48Z" fill="#54a253"/>
        <path d="M52.14 13.36c.02-.78.04-1.56.07-2.34.25-.05.51-.09.77-.12l2.47.12c1.11-.25 2.21-.49 3.32-.74.27-.07.54-.13.81-.2.27.02.55.02.82-.01.82.04 1.65.09 2.47.13.83.51 1.65 1.02 2.48 1.53-1.41.27-2.86.43-4.23.86-1.12.35-2.15 1.03-3.21 1.57h-1.62l-4.14-.81Z" fill="#93bc6e"/>
        <path d="M18.34 149.32c-1.1-1.1-2.21-2.2-3.31-3.3l-.06-1.61c-.26-.56-.51-1.12-.77-1.68-.03-.81-.05-1.63-.08-2.44.35-.3.69-.6 1.04-.9.22-.31.44-.61.66-.92.52.35 1.04.71 1.56 1.06v1.56c.28.85.55 1.71.83 2.56.07 1.32.15 2.65.22 3.97l-.09 1.7Z" fill="#7ab162"/>
        <path d="m8.38 96.62.12-7.48 1.7.03.75 8.22-.94 4.19c-.54 0-1.08-.01-1.62-.02 0-1.64-.01-3.29-.02-4.93Z" fill="#7ab162"/>
        <path d="M8.51 84.27c-.03-2.49-.06-4.98-.1-7.47 0-1.37 0-2.75-.01-4.12.54 0 1.08-.02 1.62-.02.32 1.12.63 2.24.95 3.37-.25 2.74-.5 5.48-.76 8.22-.57 0-1.14.02-1.71.03Z" fill="#7ab162"/>
        <path d="M68.64 9.24c1.92.3 3.85.59 5.77.89 0 .79 0 1.59-.01 2.38h-1.63l-5.78-.81.06-2.32 1.59-.15Z" fill="#93bc6e"/>
        <path d="M18.25 23.99c2.23-2.45 4.46-4.89 6.69-7.34.29.02.58.05.87.07.51.54 1.02 1.07 1.53 1.61-.26.25-.53.5-.79.75-1.26.6-2.59 1.07-3.75 1.82-1.52.98-2.91 2.17-4.35 3.26l-.2-.18Z" fill="#7ab162"/>
        <path d="M9.2 66.07c0-.82.01-1.64.02-2.46h1.55c.31.02.63.03.94.05.24.54.49 1.08.73 1.61l-.12 4.03c-.78.04-1.55.07-2.33.11l-.8-3.33Z" fill="#7ab162"/>
        <path d="M14.15 33.11c.01-.54.02-1.08.04-1.62l.06-1.65 2.24-1.82c.11.09.21.18.31.28-.27 2.19-.54 4.39-.8 6.58-.25.83-.5 1.66-.75 2.48l-.06 1.67-.99-.12c-.28-.56-.57-1.12-.85-1.67 0-.54.02-1.09.03-1.63.26-.83.52-1.66.79-2.5Z" fill="#7ab162"/>
        <path d="M11.68 47.12c.01-.82.03-1.63.04-2.45.26-.83.52-1.66.78-2.5 0-.55.02-1.09.02-1.64.54 0 1.09-.02 1.63-.03l.3.98-.12 3.14c-.02.58-.03 1.16-.05 1.73-.02.81-.05 1.62-.07 2.43-.81 0-1.63.01-2.44.02l-.09-1.69Z" fill="#7ab162"/>
        <path d="m9.23 110.61-.03-3.28c.05-.85.09-1.69.13-2.54.78.02 1.57.05 2.36.07.02 1.08.05 2.17.07 3.25 0 .83-.02 1.65-.02 2.48-.32 0-.64.02-.96.02H9.23Z" fill="#7ab162"/>
        <path d="M9.2 66.07c.27 1.11.53 2.22.8 3.33.04.82.07 1.64.11 2.47-.02.26-.06.52-.09.78-.54 0-1.08.02-1.62.02-.86-2.34-2.09-4.72.8-6.6Z" fill="#54a253"/>
        <path d="M132.9 8.54c.58-.05 1.16-.11 1.74-.16 1.34-.23 2.67-.47 4.01-.7.03.55.05 1.1.07 1.65-.27.53-.54 1.05-.81 1.58-1.65-.25-3.31-.51-4.96-.76-.02-.54-.03-1.07-.05-1.61Z" fill="#7ab162"/>
        <path d="M138.73 9.33c-.02-.55-.05-1.1-.07-1.65l5.88 1.53c-.56.29-1.12.57-1.67.86-1.38-.24-2.76-.49-4.14-.73Z" fill="#54a253"/>
        <path d="M11.7 128.74c0-.55-.01-1.09-.02-1.64.03-.56.05-1.12.08-1.68.81 0 1.63.01 2.44.02l.72 3.23c-.56.03-1.11.05-1.67.08H11.7Z" fill="#7ab162"/>
        <path d="M10.05 117.2c0-.82-.02-1.64-.02-2.46.27-.56.55-1.12.82-1.69.53.01 1.07.02 1.6.04.04 1.64.07 3.28.1 4.92l-.85-.06c-.55-.25-1.1-.5-1.65-.74Z" fill="#7ab162"/>
        <path d="M9.33 104.79c-.04.85-.09 1.69-.13 2.54-2.63-1.6-1.82-3.68-.79-5.78.54 0 1.08.01 1.62.02.04.26.07.52.09.78-.26.81-.53 1.63-.79 2.44Z" fill="#54a253"/>
        <path d="m67.05 9.39-.06 2.32c-.55 0-1.1.01-1.65.02-.83-.51-1.65-1.02-2.48-1.53l.12-1.67 4.07.87Z" fill="#7ab162"/>
        <path d="M25.81 16.73c-.29-.02-.58-.05-.87-.07l6.63-3.27v1.65c-1.92.57-3.83 1.13-5.75 1.7Z" fill="#54a253"/>
        <path d="M10.77 63.6H9.22c-.85-1.83-1.93-3.7.81-4.96.27.84.53 1.68.8 2.51l-.06 2.44Z" fill="#54a253"/>
        <path d="M146.99 9.22c1.84-.88 3.71-1.96 4.97.79-.28.29-.57.58-.85.87-1.37-.25-2.75-.49-4.12-.74v-.92Z" fill="#54a253"/>
        <path d="M165.97 10.96c.79 0 1.58 0 2.37.01l.09 2.35v.88c-1.09-.01-2.18-.03-3.27-.04l-.03-1.63c.28-.52.56-1.05.84-1.57Z" fill="#7ab162"/>
        <path d="M155.23 10.05c1.64-1.11 3.18-1.68 4.14.79-.28.29-.56.58-.85.87-1.1-.02-2.19-.03-3.29-.05v-1.61Z" fill="#54a253"/>
        <path d="m168.43 13.32-.09-2.35c1.4.28 2.81.55 4.21.83-.28.52-.55 1.04-.83 1.57-1.1-.02-2.19-.03-3.29-.05Z" fill="#54a253"/>
        <path d="m10.05 117.2 1.65.75c0 .56-.01 1.12-.02 1.69-.27.57-.55 1.13-.82 1.7l-.81-4.13Z" fill="#54a253"/>
        <path d="M10.84 113.06c-.27.56-.55 1.12-.82 1.69-.26-1.38-.53-2.76-.79-4.13h1.55l.06 2.44Z" fill="#54a253"/>
        <path d="M58.77 10.28c-1.11.25-2.21.49-3.32.74l.12-1.66 3.12-.06.09.99Z" fill="#7ab162"/>
        <path d="M155.23 10.05v2.5c-1.38-.26-2.76-.51-4.14-.77 0-.3 0-.61.01-.91.28-.29.57-.58.85-.87 1.09.01 2.18.03 3.28.04Z" fill="#7ab162"/>
        <path d="M165.97 10.96c-.28.52-.56 1.05-.84 1.57-1.1-.25-2.2-.49-3.3-.74v-.92c1.38.03 2.76.06 4.14.08Z" fill="#54a253"/>
        <path d="M146.99 9.22v2.51c-1.38-.25-2.76-.51-4.14-.76 0-.3.01-.6.02-.91.56-.29 1.11-.57 1.67-.86.82 0 1.64.01 2.45.02Z" fill="#7ab162"/>
        <path d="M179.97 13.35c1.74.36 3.48.72 5.21 1.07-.11.38-.22.75-.32 1.13-1.08.08-2.16.17-3.23.26.01-.27.01-.54 0-.8-.55-.55-1.1-1.11-1.66-1.66Z" fill="#54a253"/>
        <path d="M12.53 133.68c0-.55-.02-1.09-.02-1.64.27-.56.53-1.12.8-1.69.56.02 1.12.03 1.68.05.02.54.05 1.07.07 1.61 0 .55-.01 1.1-.02 1.65h-1.6c-.3 0-.6 0-.91.01Z" fill="#7ab162"/>
        <path d="M10.84 52.89c.01-.82.02-1.64.04-2.46.29 0 .59.01.88.02h1.6c-.26 1.37-.52 2.74-.78 4.12-.53.01-1.07.02-1.6.04-.05-.57-.09-1.14-.14-1.72Z" fill="#7ab162"/>
        <path d="M161.83 10.87v2.51c-1.09-.01-2.18-.03-3.27-.04l-.03-1.62c.28-.29.56-.58.85-.87l2.45.03Z" fill="#7ab162"/>
        <path d="M10.83 61.17c-.27-.84-.53-1.68-.8-2.51 0-.82.02-1.64.03-2.46.3 0 .6 0 .9.01h.89c.04.58.09 1.16.13 1.75l-.12 3.19h-1.03Z" fill="#7ab162"/>
        <path d="M13.31 130.36c-.27.56-.53 1.12-.8 1.69-.27-1.1-.54-2.2-.8-3.31h1.55c.02.54.03 1.08.05 1.61Z" fill="#54a253"/>
        <path d="M174.11 11.8c1.13.49 2.25.99 3.38 1.48v.91l-3.3-.75c-.03-.55-.06-1.09-.08-1.64Z" fill="#54a253"/>
        <path d="M10.85 121.34c.27-.57.55-1.13.82-1.7.32.84.63 1.68.95 2.53l.06 1.6c-.31 0-.61 0-.92.01-.29 0-.58 0-.87.01-.01-.82-.02-1.64-.04-2.45Z" fill="#7ab162"/>
        <path d="M14.15 40.51c-.54 0-1.09.02-1.63.03l.81-3.3c.28.56.56 1.11.85 1.67l-.03 1.6Z" fill="#54a253"/>
        <path d="M177.49 14.19v-.91c.82.02 1.65.05 2.47.08.55.55 1.1 1.11 1.66 1.66-.57.04-1.15.07-1.72.11l-2.42-.03c0-.3 0-.6.01-.9Z" fill="#7ab162"/>
        <path d="M174.11 11.8c.03.55.06 1.09.08 1.64 0 .3-.01.6-.02.89l-2.47-.06v-.9c.29-.52.57-1.05.84-1.57h1.56Z" fill="#7ab162"/>
        <path d="M10.89 123.79c.29 0 .58 0 .87-.01v1.64c-.03.56-.05 1.12-.08 1.68-.27-1.1-.53-2.21-.8-3.31Z" fill="#54a253"/>
        <path d="M10.96 56.21c-.3 0-.6 0-.9-.01l.78-3.31c.04.57.09 1.14.14 1.71 0 .54-.01 1.07-.02 1.61Z" fill="#54a253"/>
        <path d="M11.76 50.45c-.29 0-.59-.01-.88-.02.27-1.1.53-2.21.8-3.31.03.56.06 1.12.08 1.68v1.64Z" fill="#54a253"/>
        <path d="M15.16 139.39c-.35.3-.69.6-1.04.9-.25-.83-.51-1.67-.76-2.5h1.69c.03.54.07 1.07.1 1.61Z" fill="#54a253"/>
        <path d="M16.49 28.02c.59-1.34 1.17-2.68 1.76-4.03 0 0 .2.18.19.18-.28 1.36-.57 2.71-.85 4.07-.27.01-.53.03-.8.05-.1-.1-.2-.19-.31-.28Z" fill="#7ab162"/>
        <path d="m12.5 42.18-.78 2.5c.26-.83.52-1.66.78-2.5Z" fill="#54a253"/>
        <path d="M14.15 33.11c-.26.83-.52 1.66-.79 2.5.26-.83.52-1.66.79-2.5Z" fill="#54a253"/>
        <path d="m62.99 8.53-.12 1.67c-.82-.04-1.65-.08-2.47-.13.86-.51 1.73-1.03 2.59-1.54Z" fill="#54a253"/>
        <path d="M15.05 137.78h-1.69c-.02-.54-.03-1.08-.05-1.62.05-.3.1-.6.14-.9.57.01 1.14.02 1.71.04-.04.82-.08 1.65-.11 2.47Z" fill="#7ab162"/>
        <path d="m13.46 135.27-.15.9-.78-2.49c.3 0 .6 0 .9-.01 0 .54.02 1.07.02 1.61Z" fill="#54a253"/>
        <path d="m55.57 9.35-.12 1.66-2.47-.12c.86-.52 1.72-1.03 2.59-1.55Z" fill="#54a253"/>
        <path d="M184.86 15.56c.11-.38.21-.76.32-1.13.47-.08.93-.16 1.39-.24l-.09 1.69c0 .26.01.52.05.77l.03.01h-.82l-.86-1.02-.02-.08Z" fill="#93bc6e"/>
        <path d="m48.04 10.93-1.68.75 1.68-.75Z" fill="#54a253"/>
        <path d="m42.37 11-1.77.78 1.77-.78Z" fill="#54a253"/>
        <path d="m14.25 29.84-.06 1.65.06-1.65Z" fill="#54a253"/>
        <path d="M14.2 142.73c.26.56.52 1.12.77 1.68-.26-.56-.52-1.12-.77-1.68Z" fill="#54a253"/>
        <path d="M36.59 11.82c-.59.5-1.19.99-1.78 1.49.59-.5 1.19-.99 1.78-1.49Z" fill="#54a253"/>
        <path d="m58.77 10.28-.09-.99c.3.26.59.53.89.79-.27.07-.54.13-.81.2Z" fill="#54a253"/>
        <path d="m178.3 157.53-3.28.09c-1.39 0-2.78-.01-4.16-.02-.8.01-1.59.03-2.39.04l-1.72 1.52c-.81.03-1.61.07-2.42.1-.84-.02-1.67-.05-2.51-.07l-1.74 1.47-2.37.09c-.83-.25-1.66-.5-2.49-.74-.83.24-1.66.49-2.49.73-1.92.03-3.84.06-5.76.1-.83.27-1.66.53-2.49.8-1.08.03-2.17.07-3.25.1-1.11-.03-2.22-.05-3.33-.07-.83-.52-1.66-1.04-2.5-1.56 3.83-.57 7.66-1.21 11.51-1.7 13.19-1.7 26.39-3.36 39.59-5.03l.11.11-.82 1.63c-1.38.56-2.76 1.13-4.15 1.69-.56-.03-1.12-.05-1.69-.07-.56.27-1.11.53-1.67.8Z" fill="#c2d58b"/>
        <path d="M30.62 156.04c-.26 0-.52 0-.78-.05-.35-.19-.71-.38-1.06-.58l.39.54c-.55.19-1.1.38-1.65.58-.06-1-.11-2.01-.17-3.02 4.67.8 9.31 1.83 14.01 2.35 11.17 1.25 22.37 2.24 33.55 3.43.71.08 1.34 1 2 1.52l-11.58.03c-1.64-.03-3.29-.05-4.93-.08l-3.36-1.47c-.8-.01-1.6-.03-2.39-.04l-4.15-.06-3.32.06c-.26-.02-.53-.05-.79-.07-.83-.27-1.66-.54-2.48-.81l-4.11-.09c-1.41-.48-2.82-.95-4.23-1.43-.51 0-1.03.01-1.54.02-1.14-.28-2.27-.56-3.41-.83Z" fill="#c2d58b"/>
        <path d="M120.62 162.65c-1.92.25-3.84.5-5.76.74l-19.01.66-4.02-.06c-.03-.78-.05-1.57-.08-2.36 1.14-.26 2.28-.73 3.43-.74 7.33-.07 14.66-.07 21.99 0 1.14.01 2.28.48 3.43.74l.03 1.02Z" fill="#c2d58b"/>
        <path d="m95.84 164.05 19.01-.66c-.16.37-.33 1.07-.49 1.07-6.17-.1-12.35-.26-18.52-.41Z" fill="#93bc6e"/>
        <path d="M27.36 153.51c.06 1.01.11 2.01.17 3.01-1.42-.74-2.84-1.48-4.27-2.22-1.14-1.19-2.29-2.38-3.43-3.57-.37-.43-.75-.86-1.12-1.3l-.37-.11.09-1.7 2.34.09c2.2 1.93 4.39 3.87 6.59 5.8Z" fill="#a7c67a"/>
        <path d="M114.02 166.66c-.52.52-1.03 1.47-1.56 1.48-4.19.12-8.39.12-12.58 0-.53-.02-1.04-.97-1.56-1.48h15.7Z" fill="#54a253"/>
        <path d="M133.78 162.49c-.81.03-1.62.05-2.43.08-1.66-.02-3.32-.05-4.98-.07-1.38-.28-2.77-.57-4.15-.85 1.05-.53 2.08-1.45 3.16-1.52 2.81-.2 5.64-.03 8.46-.01-.02.79-.05 1.59-.07 2.38Z" fill="#c2d58b"/>
        <path d="m65.35 160.84 11.58-.03h1.63v1.6c0 .3-.02.6-.02.9-4.4-.53-8.8-1.06-13.19-1.58v-.89Z" fill="#a7c67a"/>
        <path d="M78.53 163.32c0-.3.02-.6.02-.9 2.73-.21 5.45-.42 8.18-.64l.06 1.62c-2.75-.03-5.51-.05-8.26-.08Z" fill="#93bc6e"/>
        <path d="M122.22 161.64c1.38.28 2.77.57 4.15.85v.89c-1.92-.25-3.84-.49-5.76-.74 0-.34-.02-.68-.03-1.01h1.63Z" fill="#a7c67a"/>
        <path d="m86.8 163.39-.06-1.62c1.13-.05 2.25-.09 3.38-.13h1.63c.02.79.05 1.57.08 2.36l-5.03-.6Z" fill="#a7c67a"/>
        <path d="M35.57 156.85c1.41.48 2.82.95 4.23 1.43l-.03.9c-1.4-.78-2.8-1.55-4.2-2.33Z" fill="#a7c67a"/>
        <path d="m57.05 159.29 3.36 1.47c0 .3-.02.6-.02.9-1.08-.01-2.17-.03-3.25-.04l-.09-2.33Z" fill="#a7c67a"/>
        <path d="M133.78 162.49c.02-.79.05-1.59.07-2.38h1.57c.83.52 1.66 1.04 2.5 1.56v.89l-4.14-.07Z" fill="#a7c67a"/>
        <path d="M126.38 163.38v-.89c1.66.02 3.32.05 4.98.07-1.25 2.76-3.13 1.65-4.97.82Z" fill="#93bc6e"/>
        <path d="M146.98 160.85c1.92-.03 3.84-.06 5.76-.1l.03.91c-1.93.03-3.86.05-5.8.08v-.89Z" fill="#93bc6e"/>
        <path d="M60.39 161.67c0-.3.02-.6.02-.9 1.64.03 3.29.05 4.93.08v.89l-4.95-.06Z" fill="#93bc6e"/>
        <path d="m152.77 161.66-.03-.91c.83-.25 1.66-.49 2.49-.73-.01.54-.02 1.07-.04 1.61l-2.42.03Z" fill="#a7c67a"/>
        <path d="m57.05 159.29.09 2.33c-.84-.49-1.69-.98-2.54-1.46l.06-.91c.8.01 1.6.03 2.39.04Z" fill="#93bc6e"/>
        <path d="M168.48 157.65c.8-.01 1.59-.03 2.39-.04l.06.91-2.51.75.06-1.62Z" fill="#93bc6e"/>
        <path d="m170.92 158.52-.06-.91c1.39 0 2.78.01 4.16.02-1.37.3-2.74.6-4.1.89Z" fill="#a7c67a"/>
        <path d="m39.77 159.19.03-.9 4.11.09v.89c-1.38-.03-2.76-.05-4.15-.08Z" fill="#93bc6e"/>
        <path d="m54.66 159.26-.06.91c-1.37-.02-2.74-.05-4.11-.08v-.89l4.15.06Z" fill="#a7c67a"/>
        <path d="M50.5 159.2v.89c-1.1-.28-2.21-.55-3.31-.83l3.32-.06Z" fill="#93bc6e"/>
        <path d="M85.25 167.33c-1.14-.5-2.29-.99-3.43-1.49 1.14.5 2.29.99 3.43 1.49Z" fill="#54a253"/>
        <path d="M137.92 162.56v-.89c1.11.02 2.22.05 3.33.07l-3.32.81Z" fill="#93bc6e"/>
        <path d="M30.62 156.04c1.14.28 2.27.56 3.41.83-1.14-.28-2.27-.56-3.41-.83Z" fill="#a7c67a"/>
        <path d="M130.51 165.84c-.87.49-1.74.99-2.61 1.48.87-.5 1.74-.99 2.61-1.48Z" fill="#54a253"/>
        <path d="m141.23 165.72-2.61.78 2.61-.78Z" fill="#54a253"/>
        <path d="M155.2 161.63c.01-.54.02-1.07.04-1.61.83.25 1.66.5 2.49.74l-2.52.87Z" fill="#93bc6e"/>
        <path d="M146.98 160.85v.89l-2.49-.09c.83-.27 1.66-.53 2.49-.8Z" fill="#a7c67a"/>
        <path d="M161.83 159.2c.84.02 1.67.05 2.51.07-.85.51-1.69 1.02-2.54 1.54l.03-1.61Z" fill="#93bc6e"/>
        <path d="m161.83 159.2-.03 1.61c-.57-.05-1.14-.09-1.71-.14l1.74-1.47Z" fill="#a7c67a"/>
        <path d="M43.91 159.27v-.89c.83.27 1.66.54 2.48.81-.83.03-1.65.05-2.48.08Z" fill="#a7c67a"/>
        <path d="M185.8 155.12c.27-.54.54-1.09.82-1.63.83 0 1.66.01 2.49.02-.28.54-.56 1.08-.85 1.62h-2.46Z" fill="#93bc6e"/>
        <path d="M73.72 166.5c-.6-.49-1.19-.99-1.79-1.48.6.49 1.19.99 1.79 1.48Z" fill="#54a253"/>
        <path d="M149.47 164.9c-.59.26-1.19.52-1.79.78.59-.26 1.19-.52 1.79-.78Z" fill="#54a253"/>
        <path d="m65.46 165.69-1.79-1.49 1.79 1.49Z" fill="#54a253"/>
        <path d="M156.89 164.08c-.59.26-1.19.52-1.78.78.59-.26 1.19-.52 1.78-.78Z" fill="#54a253"/>
        <path d="M163.49 163.26c-.59.26-1.19.52-1.78.78.59-.26 1.19-.52 1.78-.78Z" fill="#54a253"/>
        <path d="M170.09 162.43c-.56.01-1.11.02-1.67.04.56-.01 1.11-.02 1.67-.04Z" fill="#54a253"/>
        <path d="M179.97 156.74c.56.02 1.12.05 1.69.07-.56.27-1.13.54-1.69.82v-.89Z" fill="#93bc6e"/>
        <path d="M179.97 156.74v.89l-1.66-.09c.56-.27 1.11-.53 1.67-.8Z" fill="#a7c67a"/>
        <path d="m168.48 157.65-.06 1.62-1.66-.09c.57-.51 1.15-1.02 1.72-1.52Z" fill="#a7c67a"/>
        <path d="m29.18 155.95-.39-.54c.35.19.71.38 1.06.58-.22 0-.45 0-.67-.04Z" fill="#a7c67a"/>
        <path d="m29.13 159.98-.89-.77.89.77Z" fill="#54a253"/>
        <path d="M197.29 149.33c-.28-.05-.55-.09-.83-.14-1.1.32-2.2.64-3.31.95.28-1.33.57-2.66.85-3.99.55-.8 1.47-1.54 1.6-2.4 2-13.55 3.88-27.11 5.88-40.66.13-.86 1.01-1.61 1.54-2.42l.18 4.2-1.83 23.8c-.65 1.61-1.56 3.17-1.9 4.84-.88 4.42-1.5 8.89-2.22 13.34.01.82.03 1.65.04 2.47Z" fill="#7ab162"/>
        <path d="M186.53 16.65c5.92 2.98 9.2 8.15 11.62 14.03l.06 2.43c.26.56.51 1.12.77 1.68l.93 9.02c.26.83.52 1.67.79 2.5.01.82.03 1.63.04 2.45-.07.58-.13 1.16-.19 1.74-.53-.66-1.39-1.26-1.53-2-.94-5.05-1.6-10.16-2.63-15.19-.37-1.81-1.51-3.47-2.29-5.2-.82-.85-1.64-1.69-2.46-2.54-1.42-1.86-2.85-3.71-4.27-5.57-.27-.83-.53-1.67-.8-2.5v-.83h-.03Z" fill="#7ab162"/>
        <path d="m204.03 89.22.66 9.81c-.55 0-1.11.02-1.66.02-.26-3.44-.75-6.88-.73-10.32.04-4.8.46-9.59.72-14.39.55 0 1.11.02 1.66.03-.22 3.54-.44 7.09-.65 10.63v4.21Z" fill="#7ab162"/>
        <path d="M197.25 146.85c.72-4.45 1.34-8.92 2.22-13.34.33-1.67 1.25-3.23 1.9-4.84-.82 5.77-1.65 11.55-2.47 17.33-.55.28-1.1.57-1.64.85Z" fill="#54a253"/>
        <path d="M203.16 64.43c.02 1.64.04 3.28.05 4.92-.06 1.13-.12 2.25-.19 3.38-1.8-1.81-2.86-11.44-1.64-14.87.55 0 1.1.01 1.66.02l-.66 3.22c.26 1.11.52 2.22.77 3.32Z" fill="#7ab162"/>
        <path d="M203.03 99.05c.55 0 1.11-.01 1.66-.02-.5 1.95-.99 3.89-1.49 5.84-.06-1.4-.12-2.8-.17-4.2v-1.62Z" fill="#54a253"/>
        <path d="M203.02 72.73c.06-1.13.12-2.25.19-3.38.49 1.67.99 3.35 1.48 5.02-.55 0-1.11-.02-1.66-.03v-1.62Z" fill="#54a253"/>
        <path d="m201.53 52.05.03 2.46c-.07.58-.13 1.16-.19 1.74-2.44-.97-1.93-2.51-.79-4.16.32-.01.64-.03.96-.04Z" fill="#7ab162"/>
        <path d="M204.03 89.22v-4.21c2.37 1.4 2.37 2.81 0 4.21Z" fill="#54a253"/>
        <path d="M201.53 52.05c-.32.01-.64.03-.96.04 0-.54-.02-1.07-.03-1.61.06-.58.13-1.16.19-1.74.27 1.1.53 2.2.79 3.3Z" fill="#54a253"/>
        <path d="M203.16 64.43c-.26-1.11-.52-2.22-.77-3.32.26 1.11.52 2.22.77 3.32Z" fill="#54a253"/>
        <path d="M201.36 56.26c.06-.58.13-1.16.2-1.74.5 1.12.99 2.24 1.48 3.37-.55 0-1.1-.01-1.66-.02 0-.54-.01-1.07-.02-1.61Z" fill="#54a253"/>
        <path d="M200.7 46.3c-.26-.83-.53-1.67-.79-2.5.26.83.52 1.67.79 2.5Z" fill="#54a253"/>
        <path d="M198.98 34.78c-.26-.56-.51-1.12-.77-1.68.26.56.51 1.12.77 1.68Z" fill="#54a253"/>
        <path d="M194.01 146.15c-.28 1.33-.57 2.66-.85 3.99-1.35 1.12-2.7 2.24-4.05 3.37-.83 0-1.66-.01-2.49-.02l-.11-.11c.75-.89 1.52-1.76 2.23-2.67 1.21-1.55 3.1-2.99 3.45-4.73 1.66-8.11 2.82-16.32 4.32-24.47.58-3.14 1.57-6.21 2.37-9.31-.37 3.8-.58 7.62-1.15 11.38-1.14 7.54-2.47 15.05-3.72 22.57Z" fill="#c2d58b"/>
        <path d="M18.71 149.43c.38.43.75.87 1.12 1.3-.38-.43-.75-.87-1.12-1.3Z" fill="#c2d58b"/>
        <path d="M86.05 8.7c1.62-.05 3.24-.09 4.86-.14.82.25 1.65.51 2.47.76 6.02.25 12.05.6 18.07.7 2.5.04 5-.45 7.5-.7.55-.26 1.1-.51 1.65-.77 1.89.05 3.79.09 5.68.14.04.99.07 1.99.1 2.99H85.93c.03-1 .07-1.99.1-2.99Z" fill="#a7c67a"/>
        <path d="M118.95 9.33c-2.5.25-5.01.74-7.5.7-6.03-.1-12.05-.45-18.07-.7v-.91h25.56v.91Z" fill="#93bc6e"/>
        <path d="M74.4 12.51c0-.79 0-1.59.01-2.38l3.26-.12c.56.05 1.12.09 1.68.14l4.96 1.53c-3.31.28-6.62.55-9.92.83Z" fill="#a7c67a"/>
        <path d="M126.39 11.69c-.03-1-.07-1.99-.1-2.99 2.2-.05 4.41-.11 6.62-.16.01.54.03 1.07.05 1.61-1.37.52-2.74 1.03-4.1 1.55h-2.45Z" fill="#93bc6e"/>
        <path d="m84.32 11.69-4.96-1.53c.03-.53.06-1.06.08-1.59 2.2.05 4.4.09 6.6.14-.03 1-.07 1.99-.1 2.99h-1.62Z" fill="#93bc6e"/>
        <path d="M93.38 8.42v.91c-.82-.25-1.65-.51-2.47-.76l2.48-.15Z" fill="#7ab162"/>
        <path d="M79.44 8.56c-.03.53-.06 1.06-.08 1.59-.56-.05-1.12-.09-1.68-.14.59-.49 1.18-.97 1.77-1.45Z" fill="#7ab162"/>
        <path d="M118.95 9.33v-.91c.55.05 1.1.1 1.65.14-.55.26-1.1.51-1.65.77Z" fill="#7ab162"/>
        <path d="m52.14 13.36 4.14.81-18.17 2.46.11-2.28c1.07-.02 2.15-.05 3.22-.07l2.54-.75c1.08-.02 2.15-.04 3.23-.07 1.1-.03 2.19-.05 3.29-.08.55 0 1.09-.01 1.64-.02Z" fill="#a7c67a"/>
        <path d="M32.44 15.17c1.07-.02 2.15-.05 3.22-.07.28.51.56 1.03.83 1.54-2.47.31-4.94.62-7.42.92 1.12-.8 2.24-1.59 3.36-2.39Z" fill="#a7c67a"/>
        <path d="M32.44 15.17c-1.12.8-2.24 1.59-3.36 2.39-.58.26-1.16.52-1.74.77-.51-.54-1.02-1.07-1.53-1.61 1.92-.57 3.83-1.13 5.75-1.7.29.05.58.1.88.14Z" fill="#93bc6e"/>
        <path d="M36.49 16.64c-.28-.51-.56-1.03-.83-1.54.85-.25 1.71-.51 2.56-.76-.04.76-.07 1.52-.11 2.29-.54 0-1.08 0-1.62.01Z" fill="#93bc6e"/>
        <path d="M50.5 13.38c-1.1.02-2.19.05-3.29.08 1.1-.02 2.19-.05 3.29-.08Z" fill="#93bc6e"/>
        <path d="m43.98 13.52-2.54.75 2.54-.75Z" fill="#93bc6e"/>
        <path d="M8.51 84.27c.57 0 1.14-.02 1.7-.03v4.93c-.57 0-1.14-.02-1.7-.03v-4.87Z" fill="#93bc6e"/>
        <path d="M36.49 16.64c.54 0 1.08 0 1.62-.01l18.17-2.46h1.62c4.95-.55 9.91-1.09 14.86-1.64h1.63c3.31-.28 6.61-.55 9.92-.83h44.52c3.03.27 6.06.54 9.09.82h1.63c2.48.27 4.96.55 7.44.82h1.63c4.41.55 8.81 1.09 13.22 1.64h1.63c1.65.28 3.3.55 4.95.83h1.64c1.38.27 2.77.54 4.15.8.54 0 1.08 0 1.62.01l4.15.81 1.62.03c1.36.84 2.73 1.67 4.09 2.51-7.17-.89-14.33-1.91-21.52-2.64-13.84-1.41-27.67-3.54-41.54-3.77-18.74-.31-37.51.76-56.26 1.52-5.97.24-11.91 1.35-17.86 2.1-7.3.92-14.6 1.87-21.9 2.81-.03-.3-.06-.61-.08-.91.26-.25.53-.5.79-.75.58-.26 1.16-.52 1.74-.77 2.47-.31 4.94-.62 7.42-.92Z" fill="#c2d58b"/>
        <path d="M72.77 12.52c-4.95.55-9.91 1.09-14.86 1.64 1.07-.54 2.09-1.21 3.21-1.57 1.36-.43 2.81-.58 4.23-.86.55 0 1.1-.01 1.65-.02l5.78.81Z" fill="#a7c67a"/>
        <path d="M15.05 137.78c.04-.82.08-1.65.11-2.47.23-.55.47-1.1.71-1.64.52 0 1.04-.01 1.56-.02.04 1.1.09 2.2.13 3.31-.58.51-1.17 1.01-1.75 1.52-.22.31-.44.61-.66.92-.03-.54-.07-1.07-.1-1.61Z" fill="#c2d58b"/>
        <path d="m20.77 147.71-2.34-.09c-.07-1.32-.15-2.65-.22-3.97.07-.32.13-.64.2-.97.79 1.68 1.58 3.35 2.36 5.03Z" fill="#c2d58b"/>
        <path d="M17.38 141.09v-1.56c.07-.33.14-.65.21-.97.26.84.53 1.68.79 2.51-.34 0-.67.01-1.01.02Z" fill="#c2d58b"/>
        <path d="M17.38 141.09c.34 0 .67-.01 1.01-.02 0 .54.02 1.07.03 1.61-.07.32-.13.64-.2.97-.28-.85-.56-1.71-.83-2.56Z" fill="#a7c67a"/>
        <path d="m17.59 138.56-.21.97c-.52-.35-1.04-.71-1.56-1.06.58-.51 1.17-1.02 1.75-1.52 0 .54.01 1.07.02 1.61Z" fill="#a7c67a"/>
        <path d="M10.21 89.16v-4.93c.25-2.74.51-5.48.76-8.22l2.35-.09v21.54l-2.35-.09-.75-8.22Z" fill="#c2d58b"/>
        <path d="m10.96 97.38 2.35.09v3.21c-.51.56-1.03 1.11-1.54 1.67-.55 0-1.11 0-1.66-.01l-.09-.78c.31-1.39.63-2.79.94-4.19Z" fill="#a7c67a"/>
        <path d="m13.32 75.93-2.35.09c-.32-1.12-.63-2.24-.95-3.37.04-.26.07-.52.09-.78l2.37-.06c.28.57.55 1.15.83 1.72v2.39Z" fill="#a7c67a"/>
        <path d="M26.55 19.09c.03.3.06.61.08.91-2.24 2.72-4.48 5.43-6.71 8.15l-2.33.1c.28-1.36.56-2.72.85-4.07 1.45-1.1 2.83-2.29 4.35-3.26 1.16-.75 2.5-1.22 3.75-1.82Z" fill="#a7c67a"/>
        <path d="M13.31 73.54c-.28-.57-.55-1.15-.83-1.72l-.15-2.52.12-4.03c.34 0 .67.01 1 .02-.05 2.75-.09 5.5-.14 8.25Z" fill="#c2d58b"/>
        <path d="m12.33 69.3.15 2.52-2.37.06c-.04-.82-.07-1.64-.11-2.47.78-.04 1.55-.07 2.33-.11Z" fill="#93bc6e"/>
        <path d="M13.45 65.29c-.33 0-.67-.01-1-.02-.25-.54-.49-1.08-.73-1.61.3-.28.59-.57.89-.85.28.29.57.58.86.86v1.62Z" fill="#a7c67a"/>
        <path d="M12.6 62.81c-.29.28-.59.56-.89.85-.31-.02-.63-.03-.94-.05l.06-2.44h1.03c.25.55.49 1.1.74 1.65Z" fill="#93bc6e"/>
        <path d="m14.33 44.62.12-3.14c.61-.19 1.22-.38 1.84-.57l-1.11-1.89.06-1.67c1-.06 2.01-.11 3.01-.16-.53 3.89-1.01 7.8-1.66 11.67-.1.59-.98 1.05-1.5 1.58h-.85l-.03-1.66c.02-.81.05-1.62.07-2.43.42-.34.84-.68 1.25-1.02-.4-.24-.8-.47-1.2-.71Z" fill="#c2d58b"/>
        <path d="M17.59 28.24c.78-.03 1.55-.07 2.33-.1-.55 2.5-1.1 5-1.66 7.49-.76-.25-1.51-.51-2.27-.76.27-2.19.53-4.39.8-6.58.27-.02.53-.04.8-.05Z" fill="#c2d58b"/>
        <path d="M15.99 34.88c.76.25 1.51.51 2.27.76 0 .52-.01 1.04-.02 1.56-1.01.05-2.01.11-3.01.16.25-.83.5-1.65.76-2.48Z" fill="#a7c67a"/>
        <path d="m15.17 39.03 1.11 1.89-1.84.57c-.1-.32-.2-.65-.3-.98 0-.53.02-1.07.03-1.6l.99.12Z" fill="#a7c67a"/>
        <path d="m14.2 48.79.03 1.66h-2.49v-1.64c.81 0 1.63-.01 2.44-.02Z" fill="#93bc6e"/>
        <path d="M14.33 44.62c.4.24.8.47 1.2.71-.42.34-.84.68-1.25 1.02.02-.58.04-1.16.05-1.73Z" fill="#a7c67a"/>
        <path d="M11.78 102.36c.51-.56 1.03-1.11 1.54-1.67.27 2.5.55 5 .82 7.5-.79-.02-1.59-.05-2.38-.07-.02-1.08-.05-2.17-.07-3.25l.09-2.5Z" fill="#c2d58b"/>
        <path d="m10.84 113.06-.06-2.44c.32 0 .64-.02.96-.02.52.02 1.04.03 1.56.05.02.8.03 1.59.05 2.39l-.91.06c-.53-.01-1.07-.02-1.6-.04Z" fill="#93bc6e"/>
        <path d="m11.78 102.36-.09 2.5c-.79-.02-1.57-.05-2.36-.07.26-.81.53-1.63.79-2.44.55 0 1.11 0 1.66.01Z" fill="#93bc6e"/>
        <path d="M13.29 110.64c-.52-.02-1.04-.03-1.56-.05 0-.83.02-1.65.02-2.48.79.02 1.59.05 2.38.07v1.58c-.28.29-.56.59-.85.88Z" fill="#a7c67a"/>
        <path d="M137.94 12.51c-3.03-.27-6.06-.54-9.09-.82 1.37-.52 2.74-1.03 4.1-1.55 1.65.25 3.31.51 4.96.76 0 .53.02 1.07.02 1.6Z" fill="#a7c67a"/>
        <path d="M137.94 12.51c0-.53-.02-1.07-.02-1.6.27-.53.54-1.05.81-1.58 1.38.25 2.76.49 4.13.73 0 .3-.01.6-.02.91-1.09.52-2.19 1.03-3.28 1.55h-1.63Z" fill="#93bc6e"/>
        <path d="M15.06 132.01c-.02-.54-.05-1.07-.07-1.61-.02-.58-.04-1.16-.05-1.74l-.72-3.23c.01-.55.03-1.11.04-1.66-.24-.56-.48-1.11-.73-1.67-.03-1.36-.06-2.73-.1-4.09.28-.29.57-.58.85-.87.5.4 1.37.75 1.43 1.21.65 4.57 1.17 9.15 1.72 13.73-.79-.02-1.58-.05-2.37-.07Z" fill="#c2d58b"/>
        <path d="M14.25 123.77c-.01.55-.03 1.11-.04 1.66-.82 0-1.63-.01-2.45-.02v-1.64c.31 0 .61 0 .92-.01h1.57Z" fill="#93bc6e"/>
        <path d="M14.93 128.66c.02.58.04 1.16.05 1.74-.56-.01-1.12-.03-1.68-.05-.02-.54-.03-1.08-.05-1.61.56-.03 1.11-.05 1.67-.08Z" fill="#93bc6e"/>
        <path d="M14.28 117.15c-.28.29-.57.58-.85.87h-.88c-.03-1.64-.07-3.28-.1-4.92l.9-.06c.31.83.61 1.67.92 2.5 0 .54 0 1.07.01 1.61Z" fill="#a7c67a"/>
        <path d="M12.54 118.01h.88c.03 1.36.06 2.73.1 4.1-.3.02-.6.04-.9.05-.31-.84-.63-1.68-.95-2.53 0-.56.01-1.12.02-1.69l.85.06Z" fill="#93bc6e"/>
        <path d="M148.63 13.34H147c0-.53-.02-1.07-.02-1.6v-1.59c1.37.25 2.75.5 4.12.74 0 .3 0 .6-.01.91-.82.52-1.64 1.03-2.46 1.55Z" fill="#93bc6e"/>
        <path d="M168.44 15.82c-1.65-.28-3.3-.55-4.95-.83.56-.28 1.12-.56 1.68-.83 1.09.01 2.18.03 3.27.04 0 .54 0 1.08.01 1.62Z" fill="#a7c67a"/>
        <path d="M165.16 14.16c-.56.28-1.12.56-1.68.83h-1.63c0-.53-.02-1.07-.02-1.6V11.8c1.1.25 2.2.49 3.3.74l.03 1.63Z" fill="#93bc6e"/>
        <path d="M168.44 15.82c0-.54 0-1.08-.01-1.62v-.88c1.1.01 2.19.03 3.29.05 0 .3 0 .6-.01.9l-1.64 1.55h-1.64Z" fill="#93bc6e"/>
        <path d="m158.53 11.71.03 1.62c-1.11-.26-2.22-.52-3.32-.78v-.89c1.1.01 2.19.03 3.29.04Z" fill="#93bc6e"/>
        <path d="M155.23 12.56c1.11.26 2.22.52 3.32.78 1.09.01 2.18.03 3.27.04 0 .53.02 1.07.02 1.6-4.41-.55-8.81-1.09-13.22-1.64.82-.52 1.64-1.04 2.46-1.55 1.38.26 2.76.51 4.14.77Z" fill="#a7c67a"/>
        <path d="M146.98 11.73c0 .53.01 1.07.02 1.6-2.48-.27-4.96-.55-7.44-.82 1.09-.52 2.19-1.03 3.28-1.55 1.38.26 2.76.51 4.14.76Z" fill="#a7c67a"/>
        <path d="M185.71 19.99c-1.36-.84-2.73-1.67-4.09-2.51v-1.66c1.08-.09 2.16-.18 3.23-.26 0 0 .02.08.02.09-.33.51-.66 1.02-1.11 1.71.76.05 1.37.09 1.97.14h.82c.27.83.53 1.67.8 2.5h-1.66Z" fill="#a7c67a"/>
        <path d="M181.62 15.82v1.66l-1.62-.03-.09-2.33c.57-.04 1.15-.07 1.72-.11.01.27 0 .54 0 .8Z" fill="#93bc6e"/>
        <path d="M15.87 133.67c-.24.55-.47 1.1-.71 1.64-.57-.01-1.14-.02-1.71-.04 0-.54-.01-1.07-.02-1.61h2.44Z" fill="#93bc6e"/>
        <path d="M15.87 133.66h-.84c0-.55.01-1.1.02-1.65.79.02 1.58.05 2.37.07v1.56c-.52 0-1.04.01-1.56.02Z" fill="#a7c67a"/>
        <path d="M13.35 50.45h1.74L15 55.38l-3.02 2.59c-.04-.58-.09-1.16-.13-1.75.24-.55.48-1.1.73-1.65.26-1.37.52-2.74.78-4.12Z" fill="#a7c67a"/>
        <path d="M12.58 54.57c-.24.55-.49 1.1-.73 1.65h-.89c0-.54.01-1.08.02-1.61.53-.01 1.07-.02 1.6-.04Z" fill="#93bc6e"/>
        <path d="M11.98 57.97c1.01-.86 2.01-1.73 3.02-2.59-.14 2.83 1.32 5.97-1.55 8.29-.29-.29-.57-.58-.86-.86-.25-.55-.49-1.1-.74-1.65l.12-3.19Z" fill="#c2d58b"/>
        <path d="M175.85 16.64c-.54 0-1.08 0-1.62-.01-.02-.76-.03-1.53-.05-2.29 0-.3.01-.6.02-.89l3.3.75c0 .3 0 .6-.01.9-.54.52-1.09 1.03-1.64 1.55Z" fill="#93bc6e"/>
        <path d="M12.62 122.16c.3-.02.6-.04.9-.05.24.56.48 1.11.73 1.67h-1.57l-.06-1.6Z" fill="#a7c67a"/>
        <path d="m175.85 16.64 1.64-1.55 2.42.03.09 2.33-4.15-.81Z" fill="#a7c67a"/>
        <path d="M174.18 14.33c.02.76.03 1.53.05 2.29-1.38-.27-2.77-.54-4.15-.8.55-.52 1.09-1.04 1.64-1.55l2.47.06Z" fill="#a7c67a"/>
        <path d="m185.74 17.48-1.97-.13c.45-.69.78-1.2 1.11-1.71.29.34.57.68.86 1.02v.82Z" fill="#7ab162"/>
        <path d="M185.74 17.48v-.82h.82v.83h-.82Z" fill="#54a253"/>
        <path d="M13.45 63.67c2.87-2.32 1.41-5.46 1.55-8.29l.09-4.93c.52-.52 1.4-.98 1.5-1.58.65-3.88 1.12-7.78 1.66-11.67 0-.52 0-1.04.01-1.56.55-2.5 1.1-4.99 1.66-7.49L26.63 20c7.3-.94 14.6-1.89 21.9-2.81 5.95-.75 11.89-1.86 17.86-2.1 18.75-.76 37.52-1.83 56.26-1.52 13.86.23 27.7 2.36 41.54 3.77 7.19.73 14.35 1.75 21.52 2.64h1.65c1.42 1.86 2.85 3.71 4.27 5.57.24 1.19.49 2.38.74 3.56 1.38 6.56 2.77 13.11 4.15 19.67 0 .53.01 1.06.02 1.59.56 6.22 1.09 12.45 1.73 18.66.05.45.93.81 1.43 1.21v1.61c-.25 1.02-.72 2.03-.73 3.05-.04 8.89.01 17.77.03 26.66v1.6c-.04 2.47-.08 4.94-.13 7.41v1.6c-.81 3.1-1.8 6.17-2.38 9.31-1.5 8.15-2.66 16.36-4.32 24.47-.36 1.74-2.24 3.18-3.45 4.73-.71.92-1.48 1.78-2.23 2.67-13.2 1.67-26.39 3.33-39.59 5.03-3.84.5-7.67 1.13-11.51 1.7h-1.57c-2.82-.02-5.66-.19-8.46.01-1.09.08-2.11.99-3.16 1.52h-1.63c-1.14-.26-2.28-.73-3.43-.74-7.33-.07-14.66-.07-21.99 0-1.14.01-2.28.48-3.43.74h-1.63c-3.65-3.18-7.64-1.52-11.56-.83H76.9c-.67-.53-1.29-1.45-2-1.52-11.18-1.19-22.38-2.18-33.55-3.43-4.7-.53-9.34-1.55-14.01-2.35-2.2-1.93-4.39-3.87-6.59-5.8-.79-1.68-1.58-3.35-2.36-5.03 0-.54-.02-1.07-.03-1.61-.26-.84-.53-1.68-.79-2.51 0-.54-.01-1.07-.02-1.61-.04-1.1-.09-2.2-.13-3.31 0-.52 0-1.04-.01-1.56-.55-4.58-1.07-9.16-1.72-13.73-.07-.46-.94-.81-1.43-1.21 0-.54 0-1.07-.01-1.61-.04-1.92-.09-3.85-.13-5.77v-1.58c-.27-2.5-.55-5-.82-7.5V73.5c.05-2.75.09-5.5.14-8.25v-1.62Zm170.58-13.18c-.27-.84-.54-1.68-.8-2.52l-.02-1.61c-.77-2.2-1.53-4.4-2.3-6.6-.32-2.17-.63-4.35-.95-6.52l-.87-2.55c-10.72-.04-21.43-.09-32.15-.13.8-.55 1.54-1.3 2.42-1.62 3.57-1.28 7.24-2.29 10.75-3.71 1-.41 1.59-1.85 2.36-2.81-1.13-.82-2.2-2.22-3.41-2.34-4.84-.52-9.73-.64-14.6-.9h-3.27c-1-.28-2-.81-3-.82-12.29-.06-24.58-.06-36.87 0-1 0-2 .53-3 .81-2.74 0-5.47.01-8.21.02l-8.29.81c-1.36 0-2.72.01-4.09.02l-5.81.81c-.81 0-1.63 0-2.44.01l-4.98.81h-1.61l-4.16.81c-.54 0-1.08 0-1.61.01-8.36 1.29-16.79 2.39-23.64 8.63 1 .12 2.01.25 3.01.37.82.01 1.64.03 2.46.04l-7.34 7.4v-7.32c-.33 0-.66.01-.99.02v5.66c-.56.8-1.5 1.54-1.62 2.4-1.97 13.32-4.3 26.62-5.53 40.01-.72 7.84.35 15.84.68 23.77.03.74.53 1.46.81 2.2v2.44c.28 1.93.56 3.86.83 5.8v1.62l.81 4.16c0 .54 0 1.08.01 1.61.27.84.54 1.67.8 2.51 0 .54.02 1.08.02 1.61l3.15 8.25c.58 1.68 1.16 3.35 1.73 5.03v1.52c1.39.3 2.78.84 4.18.86 7.97.13 15.93.14 23.9.18-2.76 1.19-5.57 2.27-8.27 3.6-1.8.89-3.43 2.13-6.08 3.8 4.99 3.05 9.39 2.59 13.54 3.1l8.2.03c2.76.26 5.53.53 8.29.79h31.25c2.21-.26 4.43-.52 6.64-.79 3.83-.01 7.67-.03 11.5-.04l3.34-.78c.82 0 1.63 0 2.45-.01l7.45-.82h1.62c11.03-.57 21.81-2.53 32.22-6.25 1.25-.45 2.19-1.76 3.27-2.67 1.61-.33 3.22-.65 4.82-.98l.24-10.67c.55-.8 1.47-1.55 1.59-2.41 1.41-10.46 2.7-20.93 4.02-31.4V80.16c.01-2.82.17-5.65-.04-8.45-.08-1.08-.99-2.11-1.53-3.16.24-1.62.49-3.25.73-4.87-.51-1.39-1.01-2.78-1.52-4.17l.69-4.07c-.26-.84-.52-1.68-.77-2.52l-.05-2.43Z" fill="#dce39d"/>
        <path d="M78.55 160.81c3.92-.69 7.92-2.35 11.56.83-1.13.04-2.25.09-3.38.13-2.73.21-5.45.43-8.18.64v-1.6Z" fill="#c2d58b"/>
        <path d="M199.7 71.87v-1.61c-.46-4.86-.8-9.73-1.43-14.57-.24-1.81-1.13-3.54-1.73-5.31 0-.53-.01-1.06-.02-1.59.1-1.41.47-2.85.27-4.22-.81-5.51-1.78-10.99-2.7-16.48.79 1.73 1.92 3.39 2.29 5.2 1.03 5.03 1.69 10.14 2.63 15.19.14.73 1 1.33 1.53 2 0 .54.02 1.07.03 1.61-1.14 1.66-1.65 3.19.79 4.16 0 .54.01 1.07.02 1.61-1.22 3.42-.16 13.06 1.64 14.87v1.62c-.26 4.8-.68 9.59-.72 14.39-.03 3.44.47 6.88.73 10.32v1.62c-.53.8-1.41 1.55-1.54 2.42-2 13.55-3.88 27.11-5.88 40.66-.13.86-1.05 1.6-1.6 2.4 1.25-7.52 2.59-15.03 3.72-22.57.57-3.77.78-7.59 1.15-11.38v-1.6c.04-2.47.08-4.94.13-7.41v-1.6c.52-1.09 1.48-2.18 1.5-3.28.13-7.81.1-15.62.03-23.43 0-1-.54-2-.83-3Z" fill="#a7c67a"/>
        <path d="M194.09 28.1c.92 5.49 1.89 10.97 2.7 16.48.2 1.36-.17 2.81-.27 4.22-1.38-6.56-2.77-13.11-4.15-19.67-.25-1.19-.49-2.37-.74-3.56.82.85 1.64 1.69 2.46 2.54Z" fill="#c2d58b"/>
        <path d="M14.14 109.76c.04 1.92.09 3.85.13 5.77-.31-.83-.61-1.67-.92-2.5-.02-.8-.03-1.6-.05-2.39.28-.29.56-.59.84-.88Z" fill="#c2d58b"/>
        <path d="M125.5 151.73c-3.83.01-7.67.03-11.5.04-2.35-.9-4.74-2.11-6.64.79H76.11c-2.5-3.02-5.42-1.64-8.29-.79-2.73 0-5.47-.02-8.2-.03-.8-.53-1.55-1.15-2.4-1.59-1.41-.73-2.87-1.35-4.31-2.01.05-.44.09-.88.14-1.32 2.07-.9 4.21-1.67 6.17-2.76 1.11-.63 1.92-1.8 2.87-2.73.53 0 1.06-.01 1.58-.02 2.39 2.3 4.2 1.14 5.84-.99.54 0 1.08-.01 1.61-.02l1.69-.8c2.3-.2 4.61-.33 6.9-.62 9.3-1.18 18.6-2.41 27.89-3.63.26.55.51 1.1.77 1.65-1.7.31-3.4.61-5.1.92h-1.61l-2.51.78c-1.09.01-2.18.03-3.27.04l-2.51.79c-.82 0-1.63.02-2.45.03-.85.51-1.7 1.03-2.55 1.54l-2.42.03c-6.25 1.26-12.51 2.48-18.72 3.92-.19.04.08 3.28.2 3.28 5.62.23 11.25.26 16.88.31 8.24.25 16.48.49 24.71.74 2.27.01 4.57.21 6.82-.04 1.36-.15 2.65-.99 3.97-1.52 1.91 0 3.82-.01 5.73-.02 1.92-.02 3.85-.03 5.77-.05 1.09 0 2.18-.01 3.28-.02l5.79-.81h1.63c6.96-1.16 13.94-2.24 20.87-3.54 1.12-.21 2.05-1.4 3.07-2.14 1.65 0 3.3 0 4.95.01-1.21.98-2.29 2.5-3.65 2.83-5.82 1.42-11.74 2.44-17.59 3.72-3.13.68-6.21 1.6-9.31 2.41h-1.62c-2.6-.81-5.26-2.12-7.45.82-.82 0-1.63 0-2.45.01l-3.34.78Z" fill="#ecf0cb"/>
        <path d="M32.34 138.67c-.58-1.68-1.16-3.35-1.73-5.03v-5.76c.06-.54.11-1.09.17-1.63.25-.27.5-.55.75-.82 1.39-.7 3.05-1.12 4.13-2.15 4.93-4.71 9.65-9.62 14.54-14.38 1.02-.99 2.4-1.62 3.61-2.42.1 5.27.2 10.54.31 15.81l-21.78 16.38Z" fill="#9cbd39"/>
        <path d="m31.62 38.91 7.34-7.4c.56-.03 1.12-.05 1.68-.08 1.66-.02 3.31-.04 4.97-.07l5.71.18c-.72 1.12-1.28 2.39-2.19 3.32-4.69 4.8-9.44 9.55-14.25 14.24-.93.9-2.21 1.45-3.33 2.16l.06-12.35Z" fill="#dbe29c"/>
        <path d="M179.97 33.24c.32 2.17.63 4.35.95 6.52v14.83l-.03 44.46v30.48l-.24 10.67c-.54 0-1.09.01-1.63.02.03-9.88.07-19.76.1-29.65 0-9.07-.01-18.13-.02-27.2 0-9.61-.01-19.23-.02-28.84l-.06-19.44.93-1.86Z" fill="#60615a"/>
        <path d="M24.99 108.09c0-.81 0-1.62-.01-2.44.26-1.29.78-2.58.74-3.86-.16-5.17-.99-10.36-.67-15.48.65-10.42 1.75-20.82 2.97-31.2.32-2.72 1.73-5.31 2.64-7.96l.18 7.33c-.08 1.42-.15 2.83-.23 4.25-3.27 5.99-3.92 12.31-2.43 18.91-.25 2.01-.75 4.02-.71 6.03.16 8.15.48 16.29.74 24.44-.3 0-.59.02-.89.03-.78-.02-1.56-.03-2.34-.05Z" fill="#ecf0cb"/>
        <path d="M30.66 47.15c-.91 2.65-2.33 5.24-2.64 7.96-1.22 10.37-2.32 20.77-2.97 31.2-.32 5.13.51 10.32.67 15.48.04 1.28-.48 2.57-.74 3.86-.28-.73-.78-1.45-.81-2.2-.33-7.93-1.4-15.93-.68-23.77 1.23-13.4 3.56-26.69 5.53-40.01.13-.86 1.06-1.6 1.62-2.4l.03 9.87Z" fill="#e4eab3"/>
        <path d="M141.21 19.17h3.27c1.49.54 2.96 1.16 4.48 1.59 2.06.57 4.16.97 6.75 1.57-2.81 4.59-6.86 4.5-10.15 5.86-1.76.73-3.48 1.58-5.22 2.37h-7.42c1.73-.79 3.43-1.66 5.2-2.36 2.98-1.18 6-2.25 9-3.36-.15-.51-.3-1.01-.44-1.52-6.83-2.82-14.09-1.38-21.17-1.68-1.08.25-2.16.51-3.24.76l-.06-2.4c2.32-.01 4.64.06 6.96-.05 4.02-.2 8.02-.51 12.04-.77Z" fill="#ecf0cb"/>
        <path d="M40.65 31.43c-.56.03-1.12.05-1.68.08-.82-.01-1.64-.03-2.46-.04 1.02-1.11 1.83-2.76 3.09-3.22 3.79-1.37 7.77-2.21 11.63-3.41 2.02-.63 3.95-1.57 5.92-2.37.54 0 1.08 0 1.61-.01 1.65 1.09 3.2 1.65 4.16-.81h1.61c1.85.87 3.73 1.95 4.98-.81.81 0 1.63 0 2.44-.01 2.12 1.03 4.21 1.87 5.81-.81 1.36 0 2.72-.01 4.09-.02 2.21.27 4.42.55 6.63.82l-.06 2.4h-2.44c-1.29-.26-2.58-.78-3.85-.73-3.25.12-6.53.25-9.72.82-9.72 1.74-19.42 3.63-29.08 5.64-1.02.21-1.78 1.63-2.66 2.49Z" fill="#ecf0cb"/>
        <path d="M140.35 30.56c1.74-.79 3.45-1.64 5.22-2.37 3.28-1.36 7.33-1.26 10.15-5.86-2.6-.59-4.7-1-6.75-1.57-1.52-.42-2.99-1.05-4.48-1.59 4.87.27 9.76.39 14.6.9 1.2.13 2.27 1.53 3.41 2.34-.78.97-1.36 2.41-2.36 2.81-3.51 1.42-7.18 2.43-10.75 3.71-.89.32-1.62 1.07-2.42 1.62-2.2 0-4.4 0-6.6-.01Z" fill="#e4eab3"/>
        <path d="M141.21 19.17c-4.01.26-8.02.57-12.04.77-2.31.11-4.64.04-6.96.05h-9.84c-4.68-.27-9.36-.55-14.04-.82 1-.28 2-.81 3-.81 12.29-.06 24.58-.06 36.87 0 1 0 2 .53 3 .82Z" fill="#e4eab3"/>
        <path d="M180.91 129.54v-8.24c.48-.4 1.3-.74 1.39-1.21.67-3.44 1.44-6.9 1.69-10.38.29-4.08.1-8.19.12-12.29v-1.63c.8-.02 1.61-.03 2.41-.05-1.32 10.47-2.61 20.94-4.02 31.4-.12.86-1.04 1.61-1.59 2.41Z" fill="#e4eab3"/>
        <path d="M140.36 150.11c3.1-.81 6.18-1.72 9.31-2.41 5.86-1.28 11.77-2.29 17.59-3.72 1.37-.33 2.44-1.86 3.65-2.83 1.64 0 3.29.02 4.93.03-1.08.91-2.02 2.22-3.27 2.67-10.41 3.72-21.18 5.69-32.22 6.25Z" fill="#e4eab3"/>
        <path d="M62.09 141.33c-.95.93-1.75 2.1-2.87 2.73-1.96 1.1-4.1 1.86-6.17 2.76-.05.44-.09.88-.14 1.32 1.44.66 2.9 1.28 4.31 2.01.85.44 1.6 1.05 2.4 1.59-4.15-.51-8.55-.04-13.54-3.1 2.64-1.67 4.27-2.91 6.08-3.8 2.69-1.33 5.51-2.41 8.27-3.6l1.66.09Z" fill="#e4eab3"/>
        <path d="M140.35 30.56c2.2 0 4.4 0 6.6.01 10.72.04 21.43.09 32.15.13l-1.65 3.03c.62-1.68.25-2.39-1.75-2.33-4.89.15-9.79.07-14.69.09h-28.87c-5.21-.06-10.43-.12-15.64-.17 2.73-.25 5.45-.51 8.18-.76h15.66Z" fill="#60615a"/>
        <path d="M32.34 138.67c7.26-5.46 14.52-10.92 21.77-16.38l.1-.12c.42 0 .83 0 1.25.01.25.25.51.5.76.75l-21.61 16.21c-.24.06-.47.15-.69.25-.53.27-1.06.53-1.59.8v-1.52Z" fill="#c2d58b"/>
        <path d="m177.45 33.73 1.65-3.03.87 2.55-.93 1.86c-1.28.71-2.61 1.35-3.85 2.13-4.98 3.15-9.94 6.34-14.91 9.52.17-.51.17-1.25.52-1.5 5.52-3.88 11.08-7.7 16.64-11.53Z" fill="#c2d58b"/>
        <path d="M199.7 71.87c.29 1 .83 2 .83 3 .07 7.81.1 15.62-.03 23.43-.02 1.1-.98 2.19-1.5 3.28-.02-8.89-.07-17.77-.03-26.66 0-1.02.47-2.04.73-3.05Z" fill="#c2d58b"/>
        <path d="M98.34 19.17c4.68.27 9.36.55 14.04.82l-.06 2.4-9.01-.75c-4.4-.27-8.81-.54-13.21-.82l.03-1.64c2.74 0 5.47-.01 8.21-.02Z" fill="#ecf0cb"/>
        <path d="M57.14 22.48c-1.97.8-3.9 1.75-5.92 2.37-3.86 1.2-7.84 2.03-11.63 3.41-1.25.45-2.07 2.11-3.09 3.22-1-.12-2.01-.25-3.01-.37 6.85-6.24 15.28-7.33 23.64-8.63Z" fill="#e4eab3"/>
        <path d="M186.52 95.73c-.8.02-1.61.03-2.41.05.25-5.22.51-10.44.76-15.66.55 0 1.1.02 1.65.03v15.58Z" fill="#ecf0cb"/>
        <path d="M196.54 50.39c.6 1.77 1.49 3.49 1.73 5.31.63 4.84.98 9.71 1.43 14.57-.5-.4-1.39-.76-1.43-1.21-.65-6.21-1.17-12.44-1.73-18.66Z" fill="#c2d58b"/>
        <path d="M32.34 140.19c.53-.27 1.06-.53 1.59-.8.32.24.64.47.96.71 9.89.03 19.79.05 29.68.08.3.1.6.2.91.3-.6.28-1.21.55-1.81.83-.53 0-1.06.01-1.58.02l-1.66-.09c-7.97-.05-15.94-.05-23.9-.18-1.4-.02-2.79-.56-4.18-.86Z" fill="#93bc6e"/>
        <path d="M186.52 80.14c-.55 0-1.1-.02-1.65-.03-.26-3.3-.51-6.6-.77-9.9.28-.56.57-1.12.85-1.68.53 1.05 1.45 2.07 1.53 3.16.21 2.8.05 5.63.04 8.45Z" fill="#e4eab3"/>
        <path d="M30.79 126.24c-.06.54-.11 1.09-.17 1.63-1.05-.83-2.1-1.66-3.15-2.48 0-.54-.02-1.08-.02-1.61-.27-.84-.54-1.67-.8-2.51 0-.54 0-1.08-.01-1.61l1.56-2.49c.81 1.9 1.61 3.8 2.42 5.69.06 1.13.13 2.25.19 3.38Z" fill="#ecf0cb"/>
        <path d="m175.85 141.18-4.93-.03c-1.65 0-3.3 0-4.95-.01h-5.78c-1.35-.31-2.69-.61-4.04-.92.21-.03.41-.05.62-.06 3.91 0 7.82-.01 11.73-.02 3.52.02 7.03.05 10.55.07.54 0 1.09-.01 1.63-.02-1.61.33-3.22.65-4.82.98Z" fill="#93bc6e"/>
        <path d="m30.66 47.15-.03-9.87v-5.66c.33 0 .66-.01.99-.02v7.32l-.06 12.35c-.03 1.11-.06 2.22-.08 3.33-.21-.01-.43-.05-.63-.11l-.18-7.33Z" fill="#93bc6e"/>
        <path d="M184.96 68.54c-.28.56-.57 1.12-.86 1.68-.54-.01-1.08-.03-1.62-.04.03-2.2.06-4.4.1-6.61 1.03.03 2.07.07 3.1.1-.24 1.62-.49 3.25-.73 4.87Z" fill="#ecf0cb"/>
        <path d="M27.46 125.39c1.05.83 2.1 1.66 3.15 2.48v5.76l-3.15-8.25Z" fill="#e4eab3"/>
        <path d="M67.82 151.76c2.87-.84 5.79-2.22 8.29.79-2.76-.26-5.53-.53-8.29-.79Z" fill="#e4eab3"/>
        <path d="m90.13 19.19-.03 1.64h-1.63c-2.21-.27-4.42-.55-6.63-.82l8.29-.81Z" fill="#e4eab3"/>
        <path d="M131.29 150.93c2.19-2.94 4.85-1.62 7.45-.82-2.48.27-4.97.54-7.45.82Z" fill="#e4eab3"/>
        <path d="M185.69 63.67c-1.03-.03-2.07-.07-3.11-.1-.02-.8-.05-1.6-.07-2.4.26-.55.51-1.1.77-1.65.29 0 .59-.01.88-.02.51 1.39 1.01 2.78 1.52 4.17Z" fill="#e4eab3"/>
        <path d="M199.01 103.18c-.04 2.47-.08 4.94-.13 7.41.04-2.47.08-4.94.13-7.41Z" fill="#c2d58b"/>
        <path d="M24.99 108.09c.78.02 1.56.03 2.34.05 0 .82.02 1.64.03 2.46-.52 1.1-1.03 2.2-1.55 3.29-.27-1.93-.54-3.86-.82-5.8Z" fill="#e4eab3"/>
        <path d="M25.8 113.88c.52-1.1 1.03-2.2 1.55-3.29h.88c0 1.65-.02 3.31-.03 4.96l-2.39-.06v-1.62Z" fill="#ecf0cb"/>
        <path d="M107.36 152.55c1.9-2.9 4.29-1.68 6.64-.79-2.21.26-4.43.52-6.64.79Z" fill="#e4eab3"/>
        <path d="M180.93 43.9v-4.13c.77 2.2 1.53 4.4 2.3 6.6-.76-.82-1.53-1.64-2.29-2.47Z" fill="#e4eab3"/>
        <path d="M77.75 20.01c-1.6 2.68-3.69 1.84-5.81.81l5.81-.81Z" fill="#e4eab3"/>
        <path d="M184.17 59.5c-.29 0-.59.01-.88.02-.29-.28-.58-.55-.87-.83l-.78-3.29c.29 0 .59-.01.88-.02.78.02 1.57.03 2.35.05l-.69 4.07Z" fill="#ecf0cb"/>
        <path d="M69.51 20.83c-1.25 2.76-3.14 1.68-4.98.81l4.98-.81Z" fill="#e4eab3"/>
        <path d="m25.81 115.5 2.39.06.06-.04c-.03.55-.06 1.1-.08 1.65l-1.56 2.49-.81-4.16Z" fill="#e4eab3"/>
        <path d="M180.93 43.9c.76.82 1.53 1.64 2.29 2.47 0 .54.01 1.07.02 1.61-.53.28-1.07.55-1.6.83-.23 0-.47.01-.7.01V43.9Z" fill="#ecf0cb"/>
        <path d="M62.91 21.65c-.96 2.47-2.5 1.91-4.16.81l4.16-.81Z" fill="#e4eab3"/>
        <path d="M184.86 55.43c-.78-.02-1.57-.03-2.35-.05-.02-.82-.03-1.64-.05-2.46h1.63c.26.84.52 1.68.77 2.52Z" fill="#e4eab3"/>
        <path d="M184.08 52.92h-1.63c-.27-.83-.53-1.67-.8-2.5.79.02 1.59.05 2.38.07.02.81.03 1.62.05 2.43Z" fill="#ecf0cb"/>
        <path d="m125.5 151.73 3.34-.78-3.34.78Z" fill="#e4eab3"/>
        <path d="M184.04 50.49c-.79-.02-1.59-.05-2.38-.07 0-.54-.02-1.08-.02-1.62.53-.28 1.07-.55 1.6-.83.27.84.53 1.68.8 2.52Z" fill="#e4eab3"/>
        <path d="M26.64 121.27c.27.84.53 1.67.8 2.51-.27-.84-.54-1.67-.8-2.51Z" fill="#e4eab3"/>
        <path d="M179.1 54.55c0 9.61.01 19.23.02 28.84-1.2.81-2.57 1.45-3.59 2.45-4.86 4.74-9.58 9.63-14.48 14.33-1.08 1.03-2.71 1.47-4.09 2.18-.16-.59-.33-1.17-.49-1.76-.19.33-.38.65-.57.98-2.41 1.77-5.08 3.28-7.19 5.35-9.57 9.36-19.02 18.86-28.42 28.4-1.04 1.06-1.44 2.74-2.14 4.13-2.5-.21-4.99-.43-7.49-.64-.56-.33-1.13-.65-1.69-.98l-.58-.92c-.26-.55-.51-1.1-.77-1.65-1.73-2.7-3.46-5.41-5.19-8.11 2.71-2.86 5.33-5.82 8.18-8.55 2.12-2.02 4.54-3.73 6.82-5.58 1.56 1.52 3.13 3.04 4.85 4.71 3.61-6.85 7.17-13.59 10.72-20.33 1.82-1.13 3.92-1.98 5.41-3.45 12.32-12.15 24.51-24.43 36.8-36.62 1.12-1.11 2.6-1.87 3.91-2.79Z" fill="#2c8645"/>
        <path d="M108.96 137.82c.56.33 1.13.65 1.69.98.27.49.54.98.82 1.47.44.26.87.74 1.31.74 7.58-.04 15.15-.14 22.73-.23.89-.62 2.15-1.03 2.6-1.88 1.95-3.61 3.66-7.35 5.46-11.04.84-1.38 1.68-2.75 2.52-4.13 1.4-.67 2.81-1.33 4.2-2.02 1.84-.92 3.66-1.88 5.49-2.82.12 7.12.24 14.23.37 21.35 1.35.31 2.69.61 4.04.92-3.28 1.08-6.55 2.19-9.84 3.22-2.76.87-5.55 1.64-8.33 2.46h-1.63c-2.12-1.05-4.21-1.92-5.79.81-1.09 0-2.18.01-3.28.02-1.92.02-3.85.03-5.77.05-1.91 0-3.82.01-5.73.02-2.55-.02-5.11-.2-7.64.02-1.08.09-2.1 1-3.15 1.53-8.24-.25-16.48-.49-24.71-.74-2.21-.29-4.43-.52-6.62-.89-1.36-.23-2.68-.67-4.03-1.01 0-.45.02-.9.03-1.35 1.55-.68 3.05-1.49 4.65-2.02 2.51-.84 5.08-1.49 7.63-2.22l2.42-.03c.85-.51 1.7-1.03 2.55-1.54.82 0 1.63-.02 2.45-.03.84-.26 1.67-.53 2.51-.79 1.09-.01 2.18-.03 3.27-.04l2.51-.78h7.29Z" fill="#ffffff"/>
        <path d="M102.42 127.14c1.73 2.7 3.46 5.41 5.19 8.11-9.3 1.21-18.59 2.45-27.89 3.63-2.29.29-4.6.42-6.9.62-.56.27-1.13.53-1.69.8-.54 0-1.08.01-1.61.01-.59-.37-1.19-.73-1.78-1.1.03-.47.07-.94.1-1.41.26-.06.52-.13.77-.2.55-.48 1.11-.96 1.66-1.45 8.42-5.94 16.85-11.88 25.26-17.81l6.89 8.79Z" fill="#dbe29c"/>
        <path d="M85.96 141.04c-2.54.73-5.12 1.39-7.63 2.22-1.6.53-3.1 1.34-4.65 2.02 0 .45-.02.9-.03 1.35 1.34.34 2.67.78 4.03 1.01 2.2.37 4.41.6 6.62.89-5.63-.05-11.26-.08-16.88-.31-.12 0-.39-3.24-.2-3.28 6.21-1.43 12.47-2.66 18.72-3.92Z" fill="#f5f8e5"/>
        <path d="M142.02 146.82c2.78-.82 5.57-1.59 8.33-2.46 3.29-1.03 6.56-2.14 9.84-3.22h5.78c-1.02.74-1.95 1.93-3.07 2.14-6.93 1.3-13.91 2.39-20.87 3.54Z" fill="#f5f8e5"/>
        <path d="M109.03 149.29c1.05-.54 2.06-1.44 3.15-1.53 2.53-.21 5.09-.04 7.64-.02-1.32.53-2.61 1.37-3.97 1.52-2.25.25-4.54.05-6.82.04Z" fill="#f5f8e5"/>
        <path d="M67.73 139.21c.59.37 1.19.73 1.78 1.1-1.64 2.14-3.44 3.29-5.84 1 .6-.27 1.21-.55 1.81-.83.25-.29.5-.58.74-.87l.11-.13 1.4-.27Z" fill="#e4eab3"/>
        <path d="M125.55 147.71c1.92-.02 3.85-.03 5.77-.05-1.92.02-3.85.03-5.77.05Z" fill="#f5f8e5"/>
        <path d="M134.59 147.65c1.59-2.73 3.68-1.86 5.79-.81l-5.79.81Z" fill="#f5f8e5"/>
        <path d="M108.96 137.82h-5.68c1.7-.31 3.4-.61 5.1-.92.19.31.39.61.58.92Z" fill="#f5f8e5"/>
        <path d="M95.89 138.65c-.84.26-1.67.53-2.51.79.84-.26 1.67-.53 2.51-.79Z" fill="#f5f8e5"/>
        <path d="m101.67 137.83-2.51.78 2.51-.78Z" fill="#f5f8e5"/>
        <path d="M90.94 139.47c-.85.51-1.7 1.03-2.55 1.54.85-.51 1.7-1.03 2.55-1.54Z" fill="#f5f8e5"/>
        <path d="M71.12 140.3c.56-.27 1.13-.53 1.69-.8-.56.27-1.13.53-1.69.8Z" fill="#e4eab3"/>
        <path d="M53.81 106.47c-1.21.8-2.59 1.43-3.61 2.42-4.88 4.75-9.61 9.67-14.54 14.38-1.08 1.03-2.74 1.45-4.13 2.15l.06-15.66c1.38-.71 3.03-1.15 4.1-2.18 4.91-4.7 9.64-9.61 14.51-14.35 1.02-.99 2.39-1.62 3.6-2.42v15.66Z" fill="#a4c137"/>
        <path d="m31.6 109.77-.06 15.66c-.25.27-.5.55-.75.82-.06-1.13-.13-2.25-.19-3.38 0-1.37-.02-2.75-.03-4.12 0-.5.02-.99.02-1.49V67.79c0-3.02.01-6.04.02-9.06.08-1.42.15-2.83.23-4.25.21.06.42.1.63.11l.06 4.08c.01 5.77.03 11.54.04 17.32v16.48c0 5.77.02 11.54.02 17.3Z" fill="#a1d0af"/>
        <path d="M53.81 106.47v-33c0-3.07-.12-6.15.09-9.21.07-1.07.98-2.08 1.51-3.12-.02.33-.04.66-.05.98-.25 1.43-.7 2.85-.7 4.28-.06 14.22-.03 28.44-.08 42.66-.02 4.36-.23 8.72-.35 13.08 0 0-.11.12-.1.12l-.3-15.81Z" fill="#93bc6e"/>
        <path d="m103.31 21.64 9.01.75h9.96c1.08-.25 2.16-.51 3.24-.76 2.42.54 4.86 1 7.24 1.65 1.42.39 2.76 1.08 4.13 1.63-1.17.84-2.24 1.91-3.53 2.46-2.83 1.2-5.78 2.14-8.68 3.19-2.73.25-5.45.51-8.18.76-2.48.61-4.97 1.21-7.45 1.82-3.7.09-7.45-.2-11.08.33-9.66 1.4-18.65 4.9-27.24 9.47-.79.42-1.96.1-2.96.12-.52-.32-1.03-.64-1.55-.96-3.31-2.73-6.63-5.46-9.94-8.19-1.65-.79-3.31-1.58-4.96-2.36-1.9-.06-3.81-.12-5.72-.17 1.02-.73 1.96-1.91 3.09-2.13 8-1.56 16.04-2.99 24.08-4.32 4.37-.72 8.79-1.15 13.18-1.71h2.44c3.91.01 7.83.14 11.73-.04 1.08-.05 2.11-1 3.17-1.53Z" fill="#ffffff"/>
        <path d="M51.33 31.54c1.65.79 3.31 1.58 4.96 2.36-.5.93-.81 2.03-1.52 2.75-6.78 6.87-13.62 13.7-20.49 20.48-.72.71-1.82 1.03-2.74 1.54l-.06-4.08c.03-1.11.06-2.22.08-3.33 1.12-.71 2.4-1.25 3.33-2.16 4.81-4.69 9.56-9.43 14.25-14.24.91-.93 1.47-2.2 2.19-3.32Z" fill="#c2d58b"/>
        <path d="M85.96 23.21c-4.4.56-8.81.99-13.18 1.71-8.05 1.33-16.08 2.76-24.08 4.32-1.12.22-2.06 1.39-3.09 2.13l-4.97.06c.88-.86 1.65-2.28 2.66-2.49 9.67-2.01 19.36-3.9 29.08-5.64 3.19-.57 6.47-.7 9.72-.82 1.27-.05 2.57.47 3.85.73Z" fill="#f5f8e5"/>
        <path d="M179.1 54.55c-1.31.92-2.79 1.67-3.91 2.79-12.28 12.19-24.47 24.47-36.8 36.62-1.49 1.47-3.59 2.31-5.41 3.45.71-1.62 1.35-3.27 2.14-4.85 6.25-12.5 12.55-24.97 18.76-37.48.71-1.42.96-3.07 1.42-4.61 1.66-1.23 3.32-2.47 4.98-3.7 4.97-3.18 9.92-6.37 14.9-9.52 1.24-.78 2.56-1.42 3.85-2.13.02 6.48.04 12.96.05 19.44Z" fill="#2b9548"/>
        <path d="M156.95 102.34c1.38-.71 3.02-1.15 4.09-2.18 4.91-4.7 9.62-9.59 14.48-14.33 1.02-1 2.38-1.64 3.59-2.45 0 9.06.01 18.13.02 27.2-1.21.8-2.58 1.44-3.6 2.44-4.87 4.74-9.59 9.65-14.5 14.35-1.08 1.03-2.72 1.47-4.1 2.18 0-9.07.01-18.13.02-27.2Z" fill="#2f7642"/>
        <path d="M156.93 129.54c1.38-.71 3.03-1.15 4.1-2.18 4.91-4.7 9.63-9.6 14.5-14.35 1.02-.99 2.39-1.63 3.6-2.44-.03 9.88-.06 19.76-.1 29.64-3.52-.02-7.03-.05-10.55-.07-3.86-.25-7.71-.49-11.57-.74v-9.87Z" fill="#356841"/>
        <path d="m181.63 55.4.78 3.29c.03.83.06 1.66.1 2.48.02.8.05 1.6.07 2.4l-.09 6.61c-.02 7.51-.08 15.03-.01 22.54.01 1.56.49 3.12.75 4.68v1.63c-.77 0-1.54.02-2.32.03 0-14.82.02-29.64.02-44.46.23.27.47.54.7.8Z" fill="#fafbf9"/>
        <path d="M183.23 99.03V97.4c.3 0 .59 0 .89.01-.02 4.1.18 8.21-.12 12.29-.25 3.49-1.02 6.94-1.69 10.38-.09.48-.91.81-1.39 1.21v-10.71c.48-.39 1.33-.75 1.38-1.19.4-3.45.64-6.91.93-10.37Z" fill="#ecf0cb"/>
        <path d="M183.23 99.03c-.29 3.46-.53 6.92-.93 10.37-.05.44-.9.79-1.38 1.19V99.06c.77 0 1.55-.02 2.32-.03Z" fill="#f5f8e5"/>
        <path d="M181.63 55.4c-.23-.27-.47-.54-.7-.8v-5.78c.23 0 .47 0 .7-.01 0 .54.02 1.08.02 1.62.27.83.53 1.67.8 2.5.02.82.03 1.64.05 2.46-.29 0-.58.01-.88.02Z" fill="#f5f8e5"/>
        <path d="M30.6 67.79v47.72c-.78 0-1.56.01-2.34.02l-.06.04c0-1.65.02-3.31.03-4.96 0-.83-.01-1.66-.02-2.49-.26-8.15-.58-16.29-.74-24.44-.04-2 .46-4.02.71-6.03.29-2.08.46-4.18.92-6.22.28-1.26.98-2.42 1.49-3.63Z" fill="#ffffff"/>
        <path d="M30.6 67.79c-.51 1.21-1.22 2.37-1.49 3.63-.45 2.04-.62 4.14-.92 6.22-1.49-6.6-.84-12.92 2.43-18.91 0 3.02-.01 6.04-.02 9.06Z" fill="#f5f8e5"/>
        <path d="M28.21 108.1c0 .83.01 1.66.02 2.49h-.88c0-.82-.02-1.64-.03-2.46.29 0 .59-.02.89-.03Z" fill="#f5f8e5"/>
        <path d="M124.69 30.56c2.9-1.05 5.84-1.98 8.68-3.19 1.29-.55 2.36-1.63 3.53-2.46-1.37-.55-2.71-1.24-4.13-1.63-2.39-.65-4.83-1.11-7.24-1.65 7.08.3 14.33-1.14 21.17 1.68.15.51.3 1.01.44 1.52-3 1.11-6.03 2.18-9 3.36-1.77.7-3.47 1.57-5.2 2.36h-8.24Z" fill="#f5f8e5"/>
        <path d="M122.28 22.39h-9.96l.06-2.41h9.84l.06 2.41Z" fill="#f5f8e5"/>
        <path d="M103.31 21.64c-1.06.54-2.09 1.48-3.17 1.53-3.9.18-7.82.05-11.73.04l.06-2.4h1.63c4.4.27 8.81.54 13.21.82Z" fill="#f5f8e5"/>
        <path d="M184.11 97.41c-.3 0-.59 0-.89-.01-.26-1.56-.74-3.12-.75-4.68-.06-7.51 0-15.03.01-22.54.54.01 1.08.03 1.62.04.26 3.3.51 6.6.77 9.9-.25 5.22-.51 10.44-.76 15.66v1.63Z" fill="#f5f8e5"/>
        <path d="M109.05 33.14c2.48-.6 4.97-1.21 7.45-1.82 5.21.05 10.43.1 15.64.16-.8 1.49-1.31 3.28-2.45 4.43-16.68 16.8-33.44 33.53-50.23 50.22-1.23 1.22-2.86 2.05-4.3 3.06-2.46-3.28-4.92-6.55-7.38-9.83 3.32-2.92 6.75-5.72 9.91-8.8 1.88-1.83 3.33-4.11 4.98-6.18l4.04 4.3 18.13-32.25c1.14-.82 2.28-1.63 3.42-2.45.26-.28.53-.56.79-.84Z" fill="#a4c137"/>
        <path d="M75.17 89.19c1.44-1.01 3.07-1.83 4.3-3.06 16.79-16.69 33.55-33.42 50.23-50.22 1.14-1.15 1.65-2.94 2.45-4.43h13.19c-.8 1.21-1.44 2.58-2.43 3.61-3.6 3.74-7.41 7.28-10.94 11.08-1.33 1.43-2.1 3.38-3.13 5.09-3.27.22-6.53.45-9.8.67-2.58 5.01-5.17 10.01-7.75 15.02-.19.27-.37.54-.56.81v.03c-1.5.77-3.28 1.25-4.44 2.37-7.54 7.34-14.89 14.88-22.43 22.22-1.26 1.23-3.18 1.78-4.79 2.64l-3.92-5.84Z" fill="#9cbd39"/>
        <path d="M128.84 51.27c1.03-1.71 1.8-3.66 3.13-5.09 3.53-3.8 7.34-7.34 10.94-11.08.99-1.03 1.63-2.4 2.43-3.61h15.68c-.81 1.22-1.45 2.59-2.45 3.63-3.91 4.05-8.01 7.91-11.87 12.01-1.03 1.09-1.47 2.75-2.17 4.15h-15.68Z" fill="#93b83d"/>
        <path d="M144.52 51.27c.71-1.4 1.14-3.05 2.17-4.15 3.86-4.09 7.95-7.96 11.87-12.01 1-1.03 1.65-2.41 2.45-3.63 4.9-.02 9.8.06 14.69-.09 2-.06 2.37.65 1.75 2.33-5.56 3.83-11.12 7.65-16.64 11.52-.35.25-.36.99-.52 1.5-1.66 1.23-3.32 2.47-4.98 3.7-.83.28-1.65.56-2.48.85l-8.31-.03Z" fill="#80b23e"/>
        <path d="M68.6 137.61c-.26.07-.51.14-.77.2l-1.5 1.68-.11.13c-.55.19-1.1.37-1.65.56-9.89-.03-19.79-.05-29.68-.08l-.27-.96 21.61-16.21c9.11-6.52 18.23-13.02 27.29-19.6.76-.55 1.08-1.72 1.6-2.6 1.07-.36 2.33-.48 3.19-1.13 4.22-3.17 8.34-6.47 12.5-9.73 3.26 4.28 6.6 8.51 9.75 12.87 2.41 3.34 4.58 6.85 6.85 10.28-2.28 1.85-4.7 3.55-6.82 5.58-2.85 2.72-5.46 5.69-8.18 8.55l-6.89-8.79c-8.42 5.94-16.84 11.87-25.26 17.81-.55.48-1.11.96-1.66 1.45Z" fill="#2b9548"/>
        <path d="M85.13 100.73c-.52.88-.84 2.04-1.6 2.59-9.06 6.59-18.19 13.08-27.29 19.6-.25-.25-.51-.5-.76-.75.04-19.51.09-39.02.13-58.53 3.45 4.4 6.89 8.81 10.34 13.21.34.53.68 1.05 1.02 1.58l.05.07.76.79v.08c2.47 3.28 4.93 6.55 7.39 9.83l3.92 5.84c1.6 2.34 2.07 5.87 6.04 5.69Z" fill="#dbe29c"/>
        <path d="M55.6 63.65c-.04 19.51-.09 39.02-.13 58.53-.42 0-.83 0-1.25-.01.12-4.36.34-8.72.35-13.08.05-14.22.02-28.44.08-42.66 0-1.43.46-2.85.7-4.28.08.5.16 1 .24 1.51Z" fill="#60615a"/>
        <path d="m34.62 139.14.27.96c-.32-.24-.64-.48-.96-.71.22-.1.45-.18.69-.25Z" fill="#54a253"/>
        <path d="M64.57 140.17c.55-.19 1.1-.38 1.65-.56-.25.29-.5.58-.74.87-.3-.1-.6-.2-.91-.3Z" fill="#54a253"/>
        <path d="M28.26 115.52c.78 0 1.56-.01 2.34-.02v1.75c0 .5-.02.99-.02 1.49 0 1.37.02 2.75.03 4.12-.81-1.9-1.61-3.8-2.42-5.69.03-.55.06-1.1.08-1.65Z" fill="#f5f8e5"/>
        <path d="M156.93 129.54v9.87c-.04.26-.09.51-.16.76a6.5 6.5 0 0 0-.62.06c-.12-7.12-.24-14.23-.37-21.35.01-1.36.03-2.72.04-4.08-.21-2.74-.41-5.49-.62-8.23.23-1.67.46-3.34.7-5.01.19-.33.38-.65.57-.98.16.59.33 1.17.49 1.76 0 9.07-.01 18.13-.02 27.2Z" fill="#54a253"/>
        <path d="M156.76 140.17c.07-.25.12-.5.16-.76 3.86.25 7.71.49 11.57.74-3.91 0-7.82.01-11.73.02Z" fill="#60615a"/>
        <path d="M182.51 61.17c-.03-.83-.06-1.66-.1-2.48.29.28.58.55.87.83-.26.55-.51 1.1-.77 1.65Z" fill="#f5f8e5"/>
        <path d="M117.42 113.02c-2.28-3.43-4.44-6.94-6.85-10.28-3.15-4.36-6.49-8.58-9.75-12.87 0-.18-.01-.36-.02-.54.86-1.15 1.92-2.2 2.56-3.46 5.08-9.97 10.15-19.95 15.06-30 1.04-2.14 2.26-2.92 4.66-2.87 8.48.16 16.96.1 25.43.02 1.22-.01 2.42-.61 3.64-.94.23-.26.46-.51.69-.77.83-.28 1.65-.56 2.48-.85-.46 1.54-.71 3.19-1.42 4.61-6.21 12.51-12.51 24.98-18.76 37.48-.79 1.58-1.43 3.23-2.14 4.85-3.55 6.74-7.11 13.48-10.72 20.33-1.72-1.67-3.28-3.19-4.85-4.71Z" fill="#dbe29c"/>
        <path d="M155.89 101.56c-.23 1.67-.46 3.34-.7 5.01-1.94 3.52-3.87 7.04-5.81 10.56l-3.3 6.6c-.84 1.38-1.68 2.75-2.52 4.13-1.91 2.82-4.03 5.53-5.65 8.51-1.18 2.18-2.46 3.25-5.05 3.15-4.9-.19-9.82-.07-14.73-.07.7-1.39 1.1-3.08 2.14-4.13 9.39-9.54 18.84-19.03 28.42-28.4 2.12-2.07 4.78-3.58 7.19-5.35Z" fill="#2f7642"/>
        <path d="M118.14 139.44c4.91 0 9.83-.12 14.73.07 2.59.1 3.87-.96 5.05-3.15 1.62-2.98 3.74-5.69 5.65-8.51-1.8 3.69-3.51 7.43-5.46 11.04-.46.85-1.72 1.27-2.6 1.88l-24.04-.51c-.27-.49-.55-.98-.82-1.47 2.5.22 5 .43 7.49.64Z" fill="#60615a"/>
        <path d="m146.09 123.73 3.3-6.6c2.14-.77 4.28-1.55 6.42-2.32-.01 1.36-.03 2.72-.04 4.08-1.83.94-3.65 1.9-5.49 2.82-1.39.7-2.8 1.35-4.2 2.02Z" fill="#f5f8e5"/>
        <path d="m111.47 140.27 24.04.51c-7.58.09-15.15.19-22.73.23-.43 0-.87-.48-1.31-.74Z" fill="#a7c67a"/>
        <path d="m66.33 139.48 1.5-1.68c-.03.47-.07.94-.1 1.41l-1.4.27Z" fill="#54a253"/>
        <path d="M68.6 137.61c.55-.48 1.11-.96 1.66-1.45-.55.48-1.11.96-1.66 1.45Z" fill="#54a253"/>
        <path d="M53.81 73.48v17.34c-1.21.8-2.58 1.43-3.6 2.42-4.87 4.75-9.6 9.65-14.51 14.35-1.08 1.03-2.72 1.47-4.1 2.18 0-5.77-.02-11.54-.02-17.3 1.39-.71 3.03-1.15 4.11-2.18 4.92-4.71 9.65-9.61 14.52-14.36 1.02-1 2.4-1.63 3.61-2.43Z" fill="#b3c834"/>
        <path d="M31.54 58.67c.92-.5 2.02-.83 2.74-1.54 6.88-6.78 13.71-13.61 20.49-20.48.71-.72 1.02-1.82 1.52-2.75 3.31 2.73 6.63 5.46 9.94 8.19-.3.45-.54.97-.91 1.34C55 53.77 44.68 64.1 34.32 74.39c-.72.72-1.81 1.07-2.73 1.58-.01-5.77-.03-11.54-.04-17.32Z" fill="#c8d460"/>
        <path d="M31.58 75.99c.92-.52 2.01-.87 2.73-1.58a8226.6 8226.6 0 0 0 31-30.96c.38-.38.61-.89.91-1.34.52.32 1.03.64 1.55.96.84 1.09 1.68 2.19 2.52 3.28.03.52.07 1.04.1 1.55-2.83 2.69-5.61 5.45-8.51 8.05-2.06 1.84-4.31 3.48-6.47 5.21-.53 1.04-1.44 2.05-1.51 3.12-.21 3.06-.08 6.14-.09 9.21-1.21.8-2.58 1.44-3.61 2.43-4.88 4.75-9.6 9.66-14.52 14.36-1.08 1.03-2.73 1.47-4.11 2.18V75.98Z" fill="#c2d051"/>
        <path d="M30.57 118.75c0-.5.02-.99.02-1.49 0 .5-.02.99-.02 1.49Z" fill="#ffffff"/>
        <path d="M55.41 61.16c2.16-1.73 4.41-3.37 6.47-5.21 2.91-2.6 5.68-5.36 8.51-8.05.77.6 1.54 1.19 2.31 1.79.44.81.8 1.68 1.32 2.43 2.86 4.11 5.75 8.19 8.64 12.27-1.64 2.07-3.1 4.35-4.98 6.18-3.16 3.08-6.59 5.88-9.91 8.8v-.07l-.76-.79-.05-.07c-.34-.53-.68-1.05-1.02-1.58-3.45-4.4-6.89-8.81-10.34-13.21l-.24-1.51c.02-.33.04-.65.05-.98Z" fill="#b3c834"/>
        <path d="M70.29 46.34c-.84-1.09-1.68-2.19-2.52-3.28 1-.02 2.17.3 2.96-.12 8.6-4.57 17.58-8.07 27.24-9.47 3.63-.53 7.38-.24 11.08-.33-.26.28-.53.56-.79.84-4.77.88-9.75 1.18-14.28 2.76-8.04 2.79-15.8 6.36-23.69 9.6Z" fill="#f5f8e5"/>
        <path d="M82.67 64.39c-2.88-4.09-5.78-8.17-8.64-12.27-.52-.75-.89-1.62-1.32-2.43 10.11-5.88 20.62-10.77 32.13-13.25L86.71 68.69l-4.04-4.3Z" fill="#dce39d"/>
        <path d="M104.84 36.43c-11.51 2.48-22.03 7.37-32.13 13.25-.77-.6-1.54-1.19-2.31-1.79-.03-.52-.07-1.04-.1-1.56 7.88-3.24 15.65-6.8 23.69-9.6 4.53-1.57 9.5-1.88 14.28-2.76-1.14.82-2.28 1.63-3.42 2.45Z" fill="#ecf0cb"/>
        <path d="M100.8 89.33c0 .18.02.36.02.54-4.16 3.26-8.27 6.56-12.5 9.73-.86.65-2.12.76-3.19 1.13-3.97.17-4.44-3.36-6.04-5.69 1.61-.86 3.53-1.42 4.79-2.64 7.55-7.34 14.89-14.87 22.43-22.22 1.15-1.12 2.94-1.6 4.44-2.37-.71 1.63-1.38 3.27-2.13 4.88-2.59 5.56-5.21 11.1-7.82 16.65Z" fill="#93b83d"/>
        <path d="M100.8 89.33c2.61-5.55 5.23-11.09 7.82-16.65.75-1.61 1.42-3.25 2.13-4.88v-.03c.19-.27.37-.54.56-.81 2.58-5.01 5.17-10.01 7.75-15.02l33.1.12c-1.21.33-2.42.93-3.64.94-8.48.08-16.96.14-25.43-.02-2.4-.04-3.62.73-4.66 2.87-4.91 10.05-9.98 20.03-15.06 30-.64 1.26-1.7 2.31-2.56 3.46Z" fill="#356841"/>
        <path d="m152.14 52.07-33.1-.12c3.27-.23 6.53-.45 9.8-.68h15.68l8.31.03c-.23.26-.46.51-.69.77Z" fill="#7ab162"/>
        <path d="M111.3 66.97c-.19.27-.37.54-.56.81.19-.27.37-.54.56-.81Z" fill="#93b83d"/>
        <path d="M65.94 76.86c.34.53.68 1.05 1.02 1.58-.34-.53-.68-1.05-1.02-1.58Z" fill="#a4c137"/>
        <path d="m67.01 78.5.76.79-.76-.79Z" fill="#a4c137"/>
        <path d="M155.81 114.8c-2.14.77-4.28 1.55-6.42 2.32 1.94-3.52 3.87-7.04 5.81-10.56.21 2.74.41 5.49.62 8.23Z" fill="#e4eab3"/>
    </g>
</svg>
