<?xml version="1.0" encoding="UTF-8"?>
<svg xmlns="http://www.w3.org/2000/svg" version="1.1" viewBox="0 0 323.32 110.99">
  <!-- Generator: Adobe Illustrator 30.5.1, SVG Export Plug-In . SVG Version: 2.1.4 Build 3)  -->
  <defs>
    <style>
      .st0 {
        fill: #070707;
      }

      .st1 {
        fill: #e91212;
      }

      .st2 {
        fill: #a90d0d;
      }

      .st3 {
        fill: #e3e2e1;
      }

      .st4 {
        fill: #766864;
      }

      .st5 {
        fill: #979696;
      }

      .st6 {
        fill: #fd0a07;
      }

      .st7 {
        fill: #fefeff;
      }

      .st8 {
        fill: #130608;
      }

      .st9 {
        fill: #e81212;
      }

      .st10 {
        fill: #020101;
      }

      .st11 {
        fill: #fdeaeb;
      }

      .st12 {
        fill: #ec3433;
      }

      .st13 {
        fill: #6c080c;
      }

      .st14 {
        fill: #cf0f0e;
      }

      .st15 {
        fill: #040404;
      }

      .st16 {
        fill: #150809;
      }

      .st17 {
        fill: #290305;
      }

      .st18 {
        fill: #fefefe;
      }

      .st19 {
        fill: #e91312;
      }

      .st20 {
        fill: #fff;
        stroke: #fff;
        stroke-miterlimit: 10;
      }

      .st21 {
        fill: #b3a7a9;
      }

      .st22 {
        fill: #0a0101;
      }

      .st23 {
        fill: #373839;
      }

      .st24 {
        fill: #200101;
      }

      .st25 {
        fill: #161616;
      }

      .st26 {
        fill: #fcfdfd;
      }
    </style>
  </defs>
  <g id="Layer_1" data-bbox="0 -0.02 322.495 110.99" data-type="ugc">
    <g>
      <path class="st10" d="M0,.22c.41-.03.83-.05,1.24-.08l.03,1.13c0,.06,0,.12-.05.18-.04.34-.07.69-.11,1.03,0,7.86.02,15.73.02,23.59,0,3.77-.06,7.55-.09,11.32-.03.73-.05,1.47-.08,2.2,0,.11,0,.21,0,.32l-.15,1.43c-.02.75-.03,1.49-.05,2.24v1c-.02.79-.05,1.59,1.03,1.74-.26,2.5-.73,5-.72,7.5.02,3.36.41,6.72.65,10.09-.93.58-1.46,3.05-.96,4.46.02.59.04,1.17.07,1.76l.03,1.2.09.56c0,.13,0,.27.02.4,0,.11,0,.22.02.32.07.43.13.86.2,1.29v34.09c-.05.5-.11,1-.16,1.5v1.45c-.33.02-.66.03-1,.05-.02-36.92-.02-73.84-.02-110.77Z"/>
      <path class="st20" d="M208.19,56.01v1.46h-7.22c-.02-.43-.05-.79-.05-1.14v-13.87c0-.49.06-1.02-.08-1.47-.1-.33-.55-.84-.75-.81-.35.07-.81.44-.91.78-.18.62-.16,1.3-.17,1.96,0,4.5-.02,9,.03,13.5,0,.93-.25,1.21-1.2,1.18-1.99-.08-3.98-.02-6.08-.02v-1.95c0-5.12.11-10.24,0-15.35-.07-3.32,1.96-6.34,4.34-6.64,2.31-.3,4.73-.78,6.81.85.6.47,1.05,1.12,1.43,1.54,1.2-.83,2.25-2.09,3.49-2.3,1.94-.33,4.06-.21,6.01.19,1.98.4,2.7,2.28,2.94,4.06.34,2.45.47,4.95.52,7.43.08,3.99.02,7.99.02,12.06-2.04.1-4,.15-5.96.3-1,.08-1.29-.29-1.28-1.26.04-4.58.03-9.16,0-13.74,0-.52-.19-1.03-.23-1.55-.04-.57-.07-1.22-.83-1-.34.1-.51.73-.76,1.12-.02.11-.04.22-.06.34,0,4.69-.03,9.37-.04,14.06v.31l.03-.04Z"/>
      <path d="M46.36.02c1.66.04,3.32.09,4.98.13.09.37.19.74.28,1.11l.47.71c.15,2.11.4,4.22.43,6.33.07,4.17.02,8.34.03,12.5,0,.31.05.62.07.91h6.73v-1.42c0-5.03,0-10.07.06-15.1,0-1.07.28-2.14.42-3.21.06-.25.12-.51.19-.76.25-.07.49-.13.74-.2-.18-.4-.31-.69-.45-.99,2.16.07,4.32.14,6.48.22v.7c-.82.04-1.75-.15-1.98,1.02.18,1.35.51,2.7.52,4.06.07,5.15.03,10.31.04,15.47.06.08.13.15.19.23,1.78.02,3.56.07,5.34.04.78-.02,1.15.18,1.13,1.02-.04,1.42-.01,2.83-.01,4.33.2.04.48.1.75.15-.33.39-.66.79-1,1.18-3.56-.02-7.12-.04-10.68-.07h-.32c-.57.03-1.14.05-1.71.08h-6.48c-4.24-.02-8.47-.03-12.71-.05,0-.49-.02-.98-.03-1.47v-5.18h6.73V2.22c-.08-.73-.15-1.46-.23-2.2h.02Z"/>
      <path class="st20" d="M176.3,33.5c3.65-.55,6.62.79,9.06,3.44,1.84,2.01,2.96,4.31,3.37,7.07.46,3.14-.04,6-1.85,8.52-1.66,2.31-3.7,4.38-6.64,5.01-4.67,1-9.2.87-12.82-2.79-2.02-2.04-3.28-4.51-3.72-7.46-.48-3.2.22-6.09,1.97-8.62,2.51-3.63,5.91-5.83,10.63-5.16h0ZM181.44,45.63c.2-2.83-1.94-5.51-5.15-5.53-3.33-.02-5.32,2.72-5.32,5.58,0,3.04,2.37,5.37,5.4,5.38,2.51,0,5.31-2.45,5.07-5.42h0Z"/>
      <path class="st20" d="M287.54,33.43c2.17-.11,4.35-.1,6.26,1.11,3.18,2.01,5.36,4.7,6.04,8.53.67,3.79.13,7.26-2.33,10.26-1.9,2.32-4.12,4.19-7.4,4.42-2.37.16-4.74.58-7.01-.3-4.32-1.67-6.96-4.82-7.94-9.32-.66-3.04-.3-5.95,1.3-8.65,2.26-3.82,5.37-6.26,10.08-6.05.33,0,.66,0,1,0ZM282.35,45.68c-.27,2.63,2.36,5.49,5.2,5.39,2.53-.09,5.62-2.03,5.31-6.11-.18-2.39-2-4.7-5.32-4.81-2.87-.1-5.36,2.45-5.2,5.53h.01Z"/>
      <path class="st20" d="M322.33,57.59h-6.26c-.64,0-1.04-.2-1.27-.87-.33-.95-.69-1.91-1.22-2.76-1.83-2.93-1.96-6.14-1.81-9.43.03-.71.3-.9.96-.95,1.47-.12,1.78-.55,1.82-1.88.04-1.38-.99-1.42-1.88-1.56-.64-.1-1.32-.02-2.19-.02.11,1.19.27,2.3.3,3.41.05,2.15.02,4.29.02,6.44s-.07,4.13.02,6.2c.05,1.16-.28,1.49-1.45,1.42-1.89-.11-3.79-.03-5.73-.03v-23.78c.31-.03.63-.1.94-.1,2.95,0,5.9-.1,8.84.03,2.01.09,3.97.48,5.66,1.82,1.64,1.3,2.43,2.98,2.67,4.93.31,2.61-.34,4.93-2.45,6.68-.53.44-.55.82-.27,1.47,1.07,2.48,2.05,5,3.03,7.52.17.42.18.9.28,1.44v.02Z"/>
      <path class="st19" d="M150.58,50.29c.06,2.04.13,4.09.16,6.13,0,.74-.18,1.35-1.18,1.31-1.66-.06-3.32-.03-4.98,0-.63,0-1.03-.1-1.03-.87,0-7.68,0-15.35,0-23.18,3.03,0,6-.07,8.97.03,1.4.05,2.8.38,4.16.71,4.46,1.06,6.91,7.88,3.16,11.92-.33.35-.73.65-1,1.05-.17.25-.28.68-.18.93,1.17,2.81,2.36,5.61,3.59,8.4.31.7.19,1-.59,1-1.91,0-3.82.04-5.73-.04-.37-.02-.88-.43-1.05-.79-1.02-2.18-1.96-4.4-2.92-6.6-.15-1.32-.37-2.63-.43-3.95-.04-.91.17-1.82.26-2.73.21,0,.41,0,.62-.02.89-.13,1.76-.18,1.87-1.45.12-1.35-.59-1.69-1.7-1.78-.2-.02-.4-.05-.59-.12-1.01-.39-1.47,0-1.48,1.01,0,.78.02,1.55.04,2.33v6.7h.03Z"/>
      <path class="st20" d="M231.29,57.55v-15.79c0-1.32-.32-1.67-1.52-1.64-1.08.03-1.5.62-1.48,1.67.03,1.23,0,2.46,0,3.78h1.94v6.11h-1.92v5.8h-7.11c0-2.2.02-4.32,0-6.45-.03-3.21-.19-6.43-.12-9.64.06-2.87,1.07-5.39,3.65-6.99.7-.44,1.53-.87,2.32-.92,2.07-.12,4.17-.22,6.22.02,2.76.33,4.24,2.33,4.72,4.86.44,2.34.55,4.76.62,7.16.1,3.71.03,7.43.06,11.14,0,.59-.09.92-.79.91-2.15-.03-4.3,0-6.59,0h0Z"/>
      <path class="st20" d="M255.64,34.26c.24-.19.48-.56.71-.56,5.69-.03,11.37-.02,17.06-.02.11,0,.22.07.47.16,0,1.98.04,4-.05,6-.01.27-.71.7-1.12.73-1.24.1-2.49,0-3.73.07-.23,0-.44.42-.67.64,0,.12.01.23.02.35,0,4.95,0,9.9.03,14.85,0,.65-.02,1.11-.9,1.09-2.03-.05-4.06-.02-6.22-.02v-16.95c-1.59,0-3.07.05-4.55-.03-.36-.02-.69-.46-1.03-.71l-.03-5.61h0Z"/>
      <path class="st20" d="M254.17,40.1c-.76.08-1.62-.03-2.25.29-1.07.56-1.19,1.69-.66,2.87.71,1.57,1.58,3.11,2.01,4.76,1.43,5.45-2.72,9.97-7.54,9.92-1.18-.02-2.36-.11-3.53-.29-.27-.04-.67-.51-.68-.79-.06-2.01-.03-4.03-.03-6.07.83.08,1.55.22,2.28.2,1.61-.03,2.28-1.19,1.66-2.64-.8-1.89-1.64-3.77-2.25-5.72-1.12-3.56,2.24-9.65,6.96-9.22,1.34.12,2.69.18,4.03.27,0,2.14,0,4.27,0,6.41h0Z"/>
      <path class="st20" d="M220.14,70.47c.21-.24.49-.44.59-.7.77-1.98,1.51-3.97,2.25-5.96.29-.78,2.01-1.31,2.58-.74.12.12.1.51,0,.7-.61,1.11-1.27,2.19-2.05,3.53h2.98c-.11,1.79-.77,2.15-3.84,2.14-.19.6-.36,1.22-.57,1.83-.44,1.33-.16,1.72,1.28,1.81.41.03.82.14,1.38.25-.88,1.35-2.02,1.37-3.15,1.14-.64-.13-1.44-.41-1.77-.9-.3-.45-.06-1.26-.06-2.24-.6.37-1.1.57-1.45.92-2.32,2.32-5.5,2.63-8.16.7-.27-.2-.56-.82-.45-1.01.79-1.31,1.53-2.69,2.57-3.78,1.94-2.03,5.88-1.05,7.5.88.23.28.21.77.37,1.42h0ZM217.99,70.19c-1.95-2.27-4.94-1.9-6.07.49-.46.96-.2,1.4.81,1.92,1.7.87,4.31-.93,5.27-2.4h0Z"/>
      <path class="st22" d="M46.36.02c.08.73.15,1.46.23,2.2-.83.06-1.65.12-2.48.17-.14-.45-.27-.9-.49-1.61-.78.25-1.52.48-2.25.72-.41-.07-.83-.15-1.24-.22h-.75l-4.22-.02H1.22l-.03-1.13c.49-.03.98-.06,1.47-.08h.31c.81,0,1.61.02,2.42.04.11,0,.22-.02.33-.03.22,0,.45,0,.67.02.11,0,.22-.02.32-.03.89,0,1.78.02,2.67.02.11,0,.21-.02.32-.02,4.21,0,8.43.02,12.64.02.11,0,.21-.02.32-.02.22,0,.45.02.67.02.11,0,.21-.02.32-.02.56,0,1.11.02,1.67.03.11,0,.22-.02.32-.02,1.89,0,3.77.02,5.66.03.11,0,.22,0,.32-.02.22.01.45.02.67.04.11,0,.22-.02.33-.03h.65c.45,0,.89,0,1.34,0,.23,0,.46.02.68.03.11,0,.21-.02.32-.03.23,0,.45.03.68.04.11,0,.21-.02.32-.02h5.21l4.46-.09.08.02Z"/>
      <path class="st22" d="M66.79.97V.27c2.74-.01,5.48-.02,8.22-.05.57,0,1.14-.09,1.71-.14.11,0,.22,0,.32.02.56,0,1.12-.02,1.67-.03h.82c.22,0,.45,0,.67.02.11,0,.22-.02.33-.03h2.67c.11,0,.21-.02.32-.02l3.67.03c.11,0,.21,0,.32-.02.23,0,.45.02.68.03.11,0,.21-.02.32-.02,4.54,0,9.09.02,13.63.02.11,0,.21-.02.32-.02.89,0,1.78.02,2.67.03.78,0,1.56,0,2.35,0,.2.02.41.04.61.05h.88l1.39-.03c.11,0,.21-.03.32-.04.23,0,.45,0,.68,0,.08.06.17.12.25.18,0,.32.02.65.03.97-.36.05-.94-.56-1.02.33l-4.96-.3h-23.97c-3.15,0-6.31-.03-9.46-.04-.82,0-1.64.02-2.46.03l-2.03-.27h-1,.05Z"/>
      <path class="st6" d="M153.53,66.93c.77-.09,1.25-.46,1.58-1.22.41-.95,1.16-1.59,2.62-1.52-.34.52-.61.86-.78,1.24-.13.29-.13.63-.18.95.24.4.49.81.73,1.21-.9.39-1.85.7-2.68,1.21-.93.57-1.07,1.4-.16,2.29-.27.2-.46.43-.7.51-1.3.43-2.18,1.29-2.94,2.4-.31.46-.91.72-1.38,1.08-.08-.1-.17-.2-.25-.3.35-.92.7-1.84,1.08-2.85-2.61-.07-3.29,2.31-4.89,3.32l-.34-.26c.24-.68.47-1.37.71-2.05-.15-.09-.36-.15-.5-.29-.31-.3-.58-.64-.87-.96.4-.19.8-.53,1.22-.55,1.74-.06,2.93-.79,3.58-2.7-.64-.12-1.23-.23-1.82-.33.08-.39.16-.78.24-1.18.44.05.87.12,1.31.16,1.02.11,1.82-.09,2.3-1.16.26-.56.85-.97,1.29-1.45.07.08.15.15.22.23-.12.63-.24,1.27-.37,1.9,0,.41-.03.82-.04,1.23-1.44-.11-1.89,1.07-2.44,1.99-.35.58.32,1.25.88.89.88-.57,1.59-1.38,2.37-2.1l-.09-.72c.1-.33.19-.65.29-.98h0Z"/>
      <path class="st20" d="M263.4,66.98c.96.29,2.1.63,3.24,1,.87.28.91.99.77,1.71-.4,2.04-.98,4.01-1.82,5.95-1.05,2.45-4.26,4.23-7.18,3-.57-.24-1.66-.16-1.35-1.11.11-.33,1.29-.44,1.97-.42.83.02,1.65.29,2.47.45,1.11.22,1.82-.25,2.1-1.3.54-2.05,1.07-4.11,1.56-6.18.2-.84-.55-1.22-1.09-1.13-1.12.18-2.28.48-3.26,1.01-.8.43-.39,1.2.24,1.56.54.31,1.22.36,1.8.61.24.1.55.45.53.65-.02.21-.46.58-.63.54-1.07-.27-2.25-.44-3.14-1.02-1.29-.85-1.26-1.72-.16-2.81.76-.75,1.56-1.45,2.41-2.09.32-.24.82-.23,1.52-.4l.02-.02Z"/>
      <path class="st24" d="M111.64,110.96h-1.48v-.92c.17-.45.48-.9.48-1.35.03-8.98.02-17.97.02-26.95,0-2.8.04-5.6.06-8.4.38-1.64.24-3.26-.27-5.12-.34.51-.55.83-.75,1.14-.18-.26-.37-.51-.55-.77.1-.74.21-1.47.31-2.21.4.32.83.61,1.19.97.37.38.67.83,1,1.25.03.49.05.98.08,1.47v39.94l-.09.94h0Z"/>
      <path class="st20" d="M288.56,65.46c-.69.15-1.38.38-2.08.42-2.01.13-4.03.23-6.04.23-.71,0-.98.3-1.02.88-.03.56-.3,1.25.71,1.39,1.39.18,2.76.5,4.15.73.42.07.86.01,1.32.17-1.51.75-2.64,2.4-4.7,1.61-.54-.21-1.24.03-1.85-.05-.86-.12-1.17.34-1.38,1.04-.13.46-.34.91-.5,1.36-.27.74-.78,1.08-1.55,1.02.18-1.32.21-2.69.57-3.97.38-1.36.72-3.11,1.71-3.83,1.36-.99,2.48-2.82,4.75-2.35,1.23.26,2.57-.07,3.84.09.74.09,1.42.62,2.13.95l-.06.3h0Z"/>
      <path class="st20" d="M310.47,71.64c.81.32,1.34.44,1.76.72.31.21.47.64.69.97-.31.17-.67.53-.92.47-1.34-.32-2.67-.73-3.99-1.15-.4-.13-.75-.43-1.05-.6-.8.9-1.52,1.7-2.24,2.5-.21-.11-.41-.23-.62-.34l1.08-3.82c.46-1.61.91-3.22,1.37-4.82.08-.27.11-.59.28-.78.23-.26.7-.67.85-.59.33.17.75.62.73.92-.09.99-.36,1.97-.55,2.95-.14.7-.25,1.41-.38,2.11,1.12.48,1.9.02,2.68-.54,1.18-.84,2.31-1.8,3.59-2.43.66-.33,1.62-.06,2.45-.06.03.13.06.26.08.39-1.85,1.31-3.71,2.62-5.82,4.11h0Z"/>
      <path class="st24" d="M110.63,1.55c.08-.89.66-.29,1.02-.33.03.16.05.32.08.47v35.68c-.01.09-.02.19-.04.28-.02.08-.05.15-.08.23-.23,0-.45,0-.68,0-.08-.09-.15-.18-.23-.27-.02-2.02-.04-4.04-.05-6.05l-.03-30.02h.01Z"/>
      <path class="st20" d="M284.99,72.77c.85-2.26,1.61-4.24,3.82-5.31,1.63-.79,5.08-.19,6.28,1.6.25.37.26,1.17.02,1.56-1.46,2.42-3.56,3.98-6.5,3.64-1.21-.14-2.35-.94-3.62-1.49ZM288.96,72.83c1.49.01,3.73-1.2,4.23-2.26.13-.27-.18-1.05-.47-1.18-2.65-1.18-3.5-1.11-5.31,1.33-.42.57-.44,1.16.24,1.54.51.29,1.08.47,1.3.56h.01Z"/>
      <path class="st20" d="M179.87,73.88c.73-2.7,1.18-5.5,2.76-7.87l.49.15c-.06,1.23-.13,2.47-.19,3.7,0,.21.02.42.03.62.2-.05.46-.05.6-.17,1.15-.93,2.27-1.89,3.42-2.83.18-.14.53-.31.65-.23.39.24.72.58,1.03.92.08.09,0,.32,0,.48.14,1.83.29,3.67.46,5.67-.84.03-1.85-.59-2.3-1.35-.44-.74-.22-1.87-.31-3.15-.7.44-1.33.76-1.87,1.18-1.06.83-2.05,1.74-3.12,2.56-.39.3-.91.42-1.37.62l-.29-.32v.02Z"/>
      <path class="st20" d="M247.94,71.83c.55-1.63,1.07-3.28,1.69-4.89.15-.4.69-.64,1.26-1.15-.2,1.83-.36,3.25-.52,4.73.33.02.54.1.63.03,1.16-.92,2.3-1.86,3.45-2.78.28-.22.71-.63.86-.55.44.23.83.61,1.11,1.02.16.23.14.67.04.97-.57,1.79-.11,3.4.92,5.13-1.34-.09-2.15-.73-2.96-1.45-1.12-1.01.49-2.01-.2-3.22-.66.43-1.36.8-1.97,1.28-1.21.97-2.35,2.03-3.56,2.99-.22.18-.66.09-.99.13.08-.75.15-1.49.23-2.24h.01Z"/>
      <path class="st20" d="M241.35,63.24c-.73,1.35-1.4,2.59-2.2,4.08h3.03c-.14,1.41-1.08,2.25-2.39,2.3-.56.02-1.41-.05-1.6.26-.41.64-.59,1.5-.61,2.28,0,.3.61.75,1.03.89.48.16,1.06.04,1.61.04.12,1.18-.82,1.12-1.43,1.33-1.43.51-3.01-.18-3.3-1.49-.11-.51.06-1.14.26-1.65.9-2.41,1.87-4.79,2.79-7.19.51-1.31,1.7-1.63,2.82-.84h0Z"/>
      <path class="st20" d="M234.56,74.26c-1.18.2-2.03.1-2.49-1.01-.3-.74-.75-.41-1.27-.1-.78.46-1.61.93-2.48,1.13-1.55.35-2.55-1.04-1.96-2.82.79-2.35,2.47-3.9,4.9-4.56.87-.24,1.45.28,1.75,1,.27.65.61,1.42.47,2.05-.34,1.62.06,2.98,1.07,4.31h.01ZM227.8,72.25c2.23.22,3.98-1.29,4.16-3.54-2.03-.23-3.62,1.1-4.16,3.54Z"/>
      <path class="st20" d="M207.89,66.39c-1.4-.88-2.98-.61-4.4-.36-.69.12-1.4,1.2-1.73,2-.67,1.62-1.1,3.34-1.6,5.03-.25.84-.76,1.31-1.78,1.42.62-2.47,1.16-4.92,1.87-7.32.59-2.02,2.2-3.34,4.55-3.24,1.52.07,3.03.25,4.57.38,0,1.41.24,2.59-.94,3.36l-.57-.81c0-.07.02-.14.05-.21.1-.04.2-.09.3-.13-.1-.04-.2-.08-.31-.12h-.01Z"/>
      <path class="st6" d="M158.57,73.96v-1.44c.07-.05.14-.15.2-.14,1.56.07,2.8-.17,3.21-2.05.26-1.19.95-2.29,1.6-3.78-.92.19-1.44.34-1.97.39-.25.03-.53-.12-.79-.18.08-.25.08-.63.25-.74,1.23-.8,2.27-2.12,4.13-1.47.29,1.65-.68,3.08-1.13,4.62-.06.19-.15.38-.24.56-.78,1.58-.21,2.5,1.71,2.75-.5.54-.81,1.19-1.25,1.29-1.22.28-2.48.38-3.73.46-.6.03-1.21-.16-1.98-.27h-.01Z"/>
      <path class="st20" d="M321.24,70.87c.03,1.7-1.64,3.54-3.46,3.68-1.06.08-2.12.02-3.2.02.23-1.53.72-1.99,2.04-2.01.79,0,1.58.08,2.35-.02.37-.05.69-.46,1.03-.71-.31-.24-.59-.56-.95-.71-.4-.17-.86-.23-1.29-.26-1.35-.1-1.61-.48-.92-1.67.79-1.38,1.93-2.34,3.61-2.55,1.73-.21,2.47.78,1.8,2.46-1.29-.21-2.58-.43-3.86-.64-.06.11-.13.23-.19.34.17.26.29.62.53.77.82.48,1.68.87,2.52,1.3h0Z"/>
      <path class="st20" d="M298.72,67.13c.07.02.45.02.68.2.75.61,1.32.11,2.01-.12.58-.2,1.33-.21,1.89-.01.31.11.58.88.52,1.3-.11.74-.77,1.06-1.49.87-1.91-.52-2.47-.14-3.01,1.82-.35,1.25-.53,2.65-1.74,3.49-.26.18-.64.19-.96.28-.02-.31-.11-.64-.03-.93.2-.73.54-1.42.72-2.16.26-1.04.91-2.04-.13-3.15-.56-.6.3-1.6,1.54-1.59h0Z"/>
      <path class="st20" d="M205.86,69.32c-1.97,1.14-1.98,1.34-.07,2.8.47.36.98.8,1.53.91,1.1.21.87.77.5,1.38-.31.51-.72.95-1.17,1.54-1.36-1.11-2.75-2.04-3.9-3.21-1.53-1.56-1.62-2.87.8-3.64.71-.23,1.38-.61,2.06-.92.08.38.17.76.25,1.14Z"/>
      <path class="st20" d="M176.25,72.67c1.22-.25,2.17-.45,3.17-.66-.15,1.16-1.32,2.39-2.67,2.49-.68.05-1.45-.53-2.11-.92-.18-.11-.24-.63-.15-.9.48-1.41.95-2.82,1.57-4.17.21-.46.6-1.24,1.41-.74.74.46.37.95.06,1.55-.49.98-.8,2.05-1.28,3.35h0Z"/>
      <path class="st20" d="M246.47,73.52c-.83.27-1.64.71-2.48.76-1.48.09-2.11-.95-1.6-2.28.42-1.09.77-2.2,1.2-3.29.26-.66.66-1.41,1.51-1.02.87.4.39,1.1.12,1.72-.42.97-.79,1.96-1.27,3.19,1.33-.2,2.3-.34,3.28-.49l-.76,1.41h0Z"/>
      <path class="st25" d="M111.65,49.79v10.16c-.4.08-.8.17-1.2.25-.08-3.55-.17-7.11-.25-10.66.48.08.97.17,1.45.25Z"/>
      <path class="st15" d="M110.45,60.2l1.2-.25v8.67c-.33-.42-.62-.87-1-1.25-.36-.36-.79-.65-1.19-.97.1-.38.25-.75.3-1.13.24-1.69.46-3.37.69-5.06h0Z"/>
      <path class="st0" d="M60.32.05c.13.29.27.59.45.99-.25.07-.5.13-.74.2-.08,0-.15.04-.22.09-2.24,0-4.48-.03-6.71-.04h-.25c-.17,0-.33,0-.5,0-.24,0-.48,0-.73,0-.09-.37-.19-.74-.28-1.11.74-.02,1.48-.05,2.22-.07h.32c2.15,0,4.3-.02,6.45-.03h-.01Z"/>
      <path class="st15" d="M111.65,49.79c-.48-.08-.97-.17-1.45-.25-.19-1.48-.38-2.97-.56-4.45.42-.42.85-.83,1.27-1.25.26-.08.51-.17.77-.25,0,2.07-.02,4.13-.02,6.2h-.01Z"/>
      <path class="st20" d="M246.35,63.94c.38.43,1.09.86,1.08,1.28,0,1.07-1.06,1.06-1.83,1.14-.24.02-.8-.52-.76-.6.29-.63.04-1.74,1.51-1.82Z"/>
      <path class="st20" d="M177.3,66.52c-.14-1.71.13-2.15,1.26-2.1.47.02.92.31,1.38.47-.3.4-.53.94-.93,1.18-.46.28-1.07.29-1.72.44h0Z"/>
      <path class="st24" d="M111.67,43.59c-.26.08-.51.17-.77.25-.35-.05-1.02-.11-1.01-.15.01-.61.11-1.23.2-1.84.15.16.3.31.45.47.15-.32.29-.65.44-.97.21,0,.42,0,.64.02.03.33.05.65.08.98.02.09.03.19.05.28l-.06.97h-.02Z"/>
      <path class="st12" d="M147.79,66.92c-.08.39-.16.78-.24,1.18-.55.09-1.12.3-1.65.24-.31-.03-.56-.5-.84-.77.26-.23.5-.63.78-.67.64-.09,1.3,0,1.95.03h0Z"/>
      <path class="st15" d="M111.62,41.36c-.21,0-.42,0-.64-.02v-1.46c-.02-.66-.03-1.32-.05-1.98.23,0,.45,0,.68,0v3.47h.01Z"/>
      <path class="st19" d="M157.51,67.58c-.24-.4-.49-.81-.73-1.21l1.91.09c.22,1.14-.38,1.24-1.18,1.12h0Z"/>
      <path class="st12" d="M152.52,67.83c0-.41.02-.82.04-1.23.33.11.65.22.98.33-.1.33-.19.65-.29.98-.24-.02-.48-.05-.72-.07h0Z"/>
      <path class="st4" d="M107.49.07c-.78,0-1.56,0-2.35.01.78,0,1.56,0,2.35-.01Z"/>
      <path class="st5" d="M41.9.11h-1.3,1.3Z"/>
      <path class="st5" d="M34.67.07c-.45,0-.89,0-1.34.01.45,0,.89,0,1.34-.01Z"/>
      <path class="st4" d="M108.98.12h-.88.88Z"/>
      <path class="st4" d="M79.54.08h-.82.82Z"/>
      <path class="st20" d="M208.22,41.64c.02-.11.04-.22.06-.34-.02.11-.04.22-.06.34Z"/>
      <path class="st21" d="M111.74,42.62c-.02-.09-.03-.19-.05-.28.02.09.03.19.05.28Z"/>
      <path class="st21" d="M111.72,1.98v-.29.29Z"/>
      <path class="st21" d="M111.72,70.37v-.29.29Z"/>
      <path class="st21" d="M111.73,71.37v-.29.29Z"/>
      <path class="st4" d="M111.62.24c-.08-.06-.17-.12-.25-.18.08.06.17.12.25.18Z"/>
      <path class="st4" d="M110.69.05c-.11,0-.21.03-.32.04.11,0,.21-.03.32-.04Z"/>
      <path class="st21" d="M111.73,72.36v-.29.29Z"/>
      <path class="st21" d="M111.69,37.66c.01-.09.02-.19.04-.28-.01.09-.02.19-.04.28Z"/>
      <path class="st4" d="M102.47.06c-.11,0-.21.02-.32.02.11,0,.21-.02.32-.02Z"/>
      <path class="st4" d="M88.51.06c-.11,0-.21.02-.32.02.11,0,.21-.02.32-.02Z"/>
      <path class="st4" d="M87.51.06c-.11,0-.21,0-.32.02.11,0,.21-.01.32-.02Z"/>
      <path class="st4" d="M83.52.05c-.11,0-.21.02-.32.02.11,0,.21-.02.32-.02Z"/>
      <path class="st4" d="M80.54.07c-.11,0-.22.02-.33.03.11,0,.22-.02.33-.03Z"/>
      <path class="st4" d="M77.05.1c-.11,0-.22,0-.32-.02.11,0,.22.01.32.02Z"/>
      <path class="st4" d="M53.87.08h-.32.32Z"/>
      <path class="st5" d="M39.91.1h-.32.32Z"/>
      <path class="st5" d="M38.92.11h-.32.32Z"/>
      <path class="st5" d="M36.67.09c-.11,0-.21.02-.32.02.11,0,.21-.02.32-.02Z"/>
      <path class="st5" d="M35.67.07c-.11,0-.21.02-.32.03.11,0,.21-.02.32-.03Z"/>
      <path class="st4" d="M32.69.08c-.11,0-.22.02-.33.03.11,0,.22-.02.33-.03Z"/>
      <path class="st4" d="M31.69.07c-.11,0-.22.01-.32.02.11,0,.22,0,.32-.02Z"/>
      <path class="st4" d="M25.71.06c-.11,0-.22.02-.32.02.11,0,.22-.02.32-.02Z"/>
      <path class="st4" d="M23.71.06c-.11,0-.21.02-.32.02.11,0,.21-.02.32-.02Z"/>
      <path class="st4" d="M22.71.06c-.11,0-.21.02-.32.02.11,0,.21-.02.32-.02Z"/>
      <path class="st4" d="M9.75.06c-.11,0-.21.02-.32.02.11,0,.21-.02.32-.02Z"/>
      <path class="st4" d="M6.76.06c-.11,0-.22.02-.32.03.11,0,.22-.02.32-.03Z"/>
      <path class="st4" d="M5.77.07c-.11,0-.22.02-.33.03.11,0,.22-.02.33-.03Z"/>
      <path class="st4" d="M3.02.06h-.31.31Z"/>
      <path class="st21" d="M111.73,110.02v-.29.29Z"/>
      <path class="st18" d="M1.7,63.91c-.23-3.36-.63-6.72-.65-10.09,0-2.5.46-5,.72-7.5.08-.16.21-.32.25-.5.29-1.48.46-3.01.88-4.45.59-2.02,1.38-3.97,2.09-5.96.74-1.55,1.46-3.11,2.25-4.63.18-.35.57-.73.92-.8.21-.04.62.44.81.76,4.43,7.61,8.85,15.22,13.27,22.83.17.28.28.61.51.82.88.82.57,1.3-.38,1.77-.93.46-1.79,1.05-2.7,1.54-.77.42-.73.86-.3,1.55.96,1.54,1.81,3.14,2.72,4.75-4.89,2.79-9.57,5.44-14.23,8.11-1.21.69-2.38,1.45-3.57,2.18-.63-2.29-1.29-4.57-1.88-6.87-.3-1.16-.47-2.34-.71-3.51Z"/>
      <path class="st19" d="M1.17,108v-34.09c.52-.27,1.04-.54,1.56-.82.19.49.38.99.58,1.48.57,1.4,1.15,2.81,1.72,4.21.15.26.29.52.44.79-.02.08,0,.14.06.2,1.22,2.16,2.43,4.31,3.65,6.47,1.41,1.82,2.82,3.64,4.24,5.46.03.08.05.17.1.22,4.22,4.98,9.21,9.12,14.89,12.26,3.61,2,7.63,3.27,11.47,4.87-.33.31-.66.61-.98.92h-3.98c-.67-.01-1.34-.02-2-.04-8.47,0-16.94,0-25.41-.01h-1c-1,.01-2,.03-3,.04-.76-.15-1.51-.29-2.27-.44l-.04-1.53h-.03Z"/>
      <path class="st19" d="M28.9,1.26h6.25c1.41,0,2.81,0,4.22.02h.75v.9c-.96.32-1.92.66-2.89.97-6.61,2.09-12.41,5.61-17.62,10.09-3.76,3.24-7.25,6.77-9.9,11.02l-.21.27-.02.03c-.09.15-.18.3-.27.46-.25.4-.51.8-.76,1.2-2.09,2.8-3.47,5.98-4.75,9.2-.16.5-.32.99-.49,1.49-.14.33-.28.67-.42,1-.02.08-.05.16-.07.25-.06.18-.12.35-.19.53v.02c-.39-.04-.78-.09-1.13-.13-.14-.44-.26-.81-.38-1.17.03-3.77.09-7.55.09-11.32,0-7.86,0-15.73,0-23.59.04-.34.07-.69.11-1.03.04-.05.05-.11.05-.18h27.69l-.05-.03Z"/>
      <path class="st17" d="M6.48,109.92h1c8.47,0,16.94,0,25.41.01.67.01,1.34.02,2,.04h3.98c.85.01,1.7.05,2.55.02.68-.02.61-.33.19-.7l2-.49c.42.14.84.28,1.25.43-.18.26-.36.51-.55.77-.23.32-.47.63-.7.94-4.14.02-8.28.05-12.43.05H2.09c-.37,0-.74-.03-1.11-.05v-1.45c.07,0,.14.02.21.02.76.15,1.51.29,2.27.44,1-.01,2-.03,3-.04h.02Z"/>
      <path class="st16" d="M3.3,74.57c-.19-.49-.38-.99-.58-1.48-.25-.9-.51-1.81-.76-2.71-.12-.51-.17-1.05-.39-1.51-.12-.24-.55-.34-.83-.5-.5-1.42.03-3.89.96-4.46.23,1.17.41,2.36.71,3.51.59,2.3,1.25,4.58,1.88,6.87l-.98.27h0Z"/>
      <path class="st22" d="M3.23,36.89c.16-.5.32-.99.49-1.49.43,0,.85,0,1.28.02-.71,1.98-1.49,3.94-2.09,5.96-.43,1.44-.59,2.97-.88,4.45-.03.17-.16.33-.25.5-1.08-.15-1.05-.94-1.03-1.74,1.17-.25,1.29-.42.92-1.28l.12-2.17c.08-.09.16-.17.25-.26.15-.5.31-1,.46-1.49.02-.23.03-.46.05-.69v-.02c.06-.18.12-.35.19-.53.02-.08.05-.16.07-.25.14-.33.28-.67.42-1h0Z"/>
      <path class="st2" d="M1.96,70.37c.25.9.51,1.81.76,2.71-.52.27-1.04.54-1.56.82-.07-.43-.13-.86-.2-1.29,0-.11,0-.22-.02-.32,0-.13,0-.27-.02-.4l-.09-.56-.03-1.2s1.16.24,1.16.24Z"/>
      <path class="st2" d="M2.55,38.69c-.02.23-.03.46-.05.69-.15.5-.31,1-.46,1.49-.08.09-.16.17-.25.26l-.99.21.15-1.43c0-.11,0-.21,0-.32.03-.73.05-1.47.08-2.2.12.37.23.73.38,1.17.35.04.74.08,1.13.13Z"/>
      <path class="st13" d="M.8,41.35l.99-.21-.12,2.17c-.3.1-.61.19-.92.29.02-.75.03-1.49.05-2.24h0Z"/>
      <path class="st13" d="M1.96,70.37l-1.16-.24c-.02-.59-.04-1.17-.07-1.76.29.16.71.25.83.5.22.46.27,1,.39,1.51h.01Z"/>
      <path class="st24" d="M.75,43.59c.31-.09.61-.19.92-.29.37.86.25,1.03-.92,1.28v-1h0Z"/>
      <path class="st13" d="M1.21,109.52c-.07,0-.14-.02-.21-.02.05-.5.11-1,.16-1.5,0,.51.03,1.02.04,1.53h.01Z"/>
      <path class="st13" d="M1.22,1.45c-.04.34-.07.69-.11,1.03.04-.34.07-.69.11-1.03Z"/>
      <path class="st13" d="M.84,71.34l.09.56s-.09-.56-.09-.56Z"/>
      <path class="st13" d="M.96,39.59c0,.11,0,.21,0,.32,0-.11,0-.21,0-.32Z"/>
      <path class="st13" d="M.94,72.29c0,.11,0,.22.02.32,0-.11,0-.22-.02-.32Z"/>
      <path class="st16" d="M58.05,110.95h-4.21v-.91c.75-.02.92-.21.48-.95-3.14-5.31-6.24-10.64-9.32-15.98-1.74-3.02-3.42-6.08-5.13-9.13.25-.33.5-.66.76-.99.34.47.71.91,1,1.41,2.78,4.82,5.54,9.65,8.31,14.48,1.68,2.92,3.36,5.85,5.06,8.76.25.43.63.79,1.06,1.31.38-.54.67-.88.89-1.26,2.7-4.71,5.38-9.43,8.09-14.14,2.05-3.56,4.14-7.09,6.21-10.63.27.27.53.54.8.81-3.26,5.69-6.52,11.39-9.8,17.07-1.6,2.78-3.26,5.53-4.85,8.32-.13.22-.83.79.17.9.16.3.32.61.48.91v.02Z"/>
      <path class="st17" d="M110.16,110.04v.91c-8.74.01-17.48.04-26.22.04-5.22,0-10.44-.02-15.66-.04-.33-.72-.66-1.43-1-2.15.58-.08,1.17-.17,1.75-.25.73.31,1.47.63,2.21.94,1.17.16,2.35.31,3.52.47l3-.04h29.42c.24,0,.49,0,.73.01.25,0,.51.01.76.02.5.02.99.05,1.49.07v.02Z"/>
      <path class="st15" d="M67.29,108.81c.33.72.66,1.43,1,2.15h-6.47v-1.4c1.83-.25,3.65-.5,5.48-.74h-.01Z"/>
      <path class="st15" d="M43.62,110.94l.7-.94c.19-.25.37-.51.55-.77,1.66.19,3.32.37,4.97.56v1.16c-2.07,0-4.15,0-6.22-.01Z"/>
      <path class="st25" d="M61.81,109.55v1.4h-3.76c-.16-.3-.32-.61-.48-.91,1.41-.16,2.83-.32,4.24-.49Z"/>
      <path class="st25" d="M49.84,110.95v-1.16c1.33.08,2.66.17,3.99.25v.91h-4,0Z"/>
      <path class="st18" d="M44.1,2.39c.83-.06,1.65-.12,2.48-.17v19.55h-6.73v5.18c-.43.1-.85.28-1.28.28-9.25.02-18.51.02-27.76,0-.46,0-.93-.16-1.39-.24.09-.22.13-.48.27-.66,1.79-2.35,3.41-4.87,5.45-7,2.57-2.68,5.37-5.19,8.28-7.51,3.4-2.7,7.21-4.8,11.28-6.37,2.54-.98,5.11-1.87,7.67-2.8l1.73-.27h0Z"/>
      <path class="st18" d="M65.37,21.52c0-5.16.03-10.31-.04-15.47-.02-1.35-.34-2.71-.52-4.06.21,0,.43-.06.62,0,2.98.8,6,1.46,8.92,2.46,7.47,2.56,13.97,6.73,19.67,12.13,1.63,1.55,3.14,3.25,4.56,5,1.42,1.74,2.64,3.64,4.13,5.71h-29.93c-.27-.06-.54-.11-.75-.15,0-1.5-.03-2.91.01-4.33.02-.84-.35-1.04-1.13-1.02-1.78.04-3.56-.02-5.34-.04-.06-.08-.13-.15-.19-.23h-.01Z"/>
      <path class="st1" d="M61.09,28.39c3.56.02,7.12.04,10.68.07.15.02.3.05.46.07.43.05.87.09,1.3.14h.48c.84,0,1.68-.01,2.51-.02.24,0,.48-.01.72-.02h18.37c.16,0,.31-.01.47-.02h.53l.47-.02c.17,0,.35,0,.52.01.16,0,.31,0,.47-.01.18,0,.35.01.53.02.15,0,.31,0,.46-.01h.75l.28.07c.41,0,.82-.02,1.23-.03.57.05,1.04.15.58.89-.26.41-.44.87-.68,1.29-2.12,3.6-4.27,7.19-6.37,10.81-2.67,4.61-5.3,9.24-7.94,13.86-1.61,2.81-3.22,5.61-4.82,8.42-.41-.25-.81-.51-1.22-.76v-.49c.04-.06.07-.12.1-.18l.18-.75c.05-.09.09-.18.14-.27.02-.26.04-.51.05-.77.09-.22.24-.44.27-.68.5-4.3.39-8.56-1.02-12.71l-.17-.29.02-.03c-.31-.84-.53-1.71-.93-2.5-2.8-5.62-6.99-9.87-12.75-12.48-1.29-.59-2.71-.88-4.08-1.3-1.33-.26-2.65-.51-3.98-.77l.24-1.45c.57-.03,1.14-.05,1.71-.08h.44Z"/>
      <path class="st1" d="M39.88,28.42c4.24.02,8.47.03,12.71.05.05.5.55,1.08-.27,1.42l.03.11c-.17,0-.33-.01-.5-.02-.34.06-.67.13-1.01.19-3.2.56-6.2,1.67-8.91,3.45-6.75,4.45-10.78,10.65-11.97,18.64-.41,2.77-.15,5.52.21,8.27.04.31.21.6.31.9.05.17.09.34.14.51.08.16.16.33.23.49l.06.48c.07.33.15.67.22,1v.02c-.35.25-.69.5-1.04.75-.25-.42-.52-.83-.76-1.25-1.81-3.14-3.62-6.29-5.43-9.43-.18-.37-.34-.75-.55-1.1-2.25-3.92-4.48-7.84-6.76-11.74-2.34-4-4.74-7.96-7.11-11.94.76-.23,1.51-.46,2.27-.7.14,0,.27.02.41.03l.57.06c.16,0,.31.01.47.02h22.57c.16,0,.32-.01.48-.02.5,0,1.01.01,1.51.02l.48-.02c.34-.04.68-.07,1.02-.11.17-.02.33-.05.5-.07h.12Z"/>
      <path class="st7" d="M53.09,1.29c2.24,0,4.48.03,6.71.04l.03.67c-.15,1.07-.41,2.14-.42,3.21-.06,5.03-.05,10.07-.06,15.1v1.42h-6.73c-.02-.29-.07-.6-.07-.91,0-4.17.04-8.34-.03-12.5-.04-2.11-.28-4.22-.43-6.33.09-.23.17-.46.26-.7h.75,0Z"/>
      <path class="st8" d="M87.03,55.49c2.65-4.62,5.27-9.25,7.94-13.86,2.1-3.62,4.25-7.2,6.37-10.81.25-.42.42-.88.68-1.29.47-.74-.01-.83-.58-.89-.17-.15-.32-.34-.51-.45-.57-.32-1.16-.62-1.74-.92h3.51c-1.48-2.07-2.71-3.96-4.13-5.71s-2.93-3.45-4.56-5c-5.7-5.4-12.2-9.58-19.67-12.13-2.91-1-5.94-1.66-8.92-2.46-.19-.05-.41,0-.62,0,.23-1.17,1.17-.98,1.98-1.02h1c.32,1.14,1.05,1.21,1.99.75.67.14,1.34.29,2.01.43.41.09.82.18,1.24.27.33.17.64.41.99.51,4.32,1.24,8.28,3.28,12.05,5.66,6.89,4.36,12.56,9.99,16.98,16.81,2.71,4.18,4.95,8.6,6.17,13.47.14.26.28.52.42.77.17.67.34,1.33.5,2,0,.07-.02.13-.05.2-.08.61-.18,1.22-.2,1.84,0,.05.66.1,1.01.15-.42.42-.85.83-1.27,1.25-.21-.92-.42-1.85-.65-2.76-1.15-4.57-2.9-8.91-5.26-13.16-.37.6-.71,1.13-1.03,1.69-2.86,4.98-5.71,9.97-8.59,14.95-1.87,3.24-3.78,6.46-5.67,9.69h-1.41.02Z"/>
      <path class="st16" d="M9.48,29.23c2.37,3.98,4.77,7.94,7.11,11.94,2.28,3.89,4.52,7.82,6.76,11.74.2.35.36.73.55,1.1-.56-.14-1.12-.28-1.68-.43-4.42-7.61-8.83-15.23-13.27-22.83-.19-.32-.6-.8-.81-.76-.35.08-.74.45-.92.8-.79,1.53-1.51,3.09-2.25,4.63-.43,0-.85,0-1.28-.02,1.28-3.22,2.66-6.39,4.75-9.2.32.26.65.52.97.78.46.08.93.24,1.39.24,9.25.01,18.51.01,27.76,0,.43,0,.85-.18,1.28-.28,0,.49.02.98.03,1.47-.17.02-.33.05-.5.07l-.5-.09c-.18-.22-.33-.58-.55-.64-.63-.16-1.3-.26-1.95-.27-7.79-.02-15.59-.03-23.38.03-.52,0-1.03.58-1.55.89-.45.01-.92-.06-1.33.07-.27.09-.43.48-.65.74l.02.02Z"/>
      <path class="st24" d="M99.19,27.28c.58.3,1.17.6,1.74.92.19.11.34.3.51.45-.41,0-.82.02-1.23.03-.09-.02-.19-.05-.28-.07h-.75c-.15,0-.31,0-.46.01-.18,0-.35-.01-.53-.02-.16,0-.31,0-.47.01-.17,0-.35-.01-.52-.02-.16,0-.31.02-.47.02h-.53c-.16,0-.31.01-.47.02h-18.37c-.24,0-.48.01-.72.02-.84,0-1.68.01-2.51.02h-.48c-.43-.05-.87-.09-1.3-.14-.15-.02-.3-.05-.46-.07.33-.39.66-.79,1-1.18h26.42-.12Z"/>
      <path class="st14" d="M52.32,29.89c.82-.33.32-.92.27-1.42h6.48l-.24,1.45c-1.83.03-3.67.05-5.5.08l-.49-.03-.52-.09h0Z"/>
      <path class="st3" d="M52.34,1.27c-.09.23-.17.46-.26.7l-.47-.71c.24,0,.48,0,.73,0Z"/>
      <path class="st3" d="M59.85,1.78l-.02-.49s.1-.06.16-.07c-.04.18-.09.37-.14.55Z"/>
      <path class="st21" d="M65.37,21.52c.06.08.13.15.19.23-.06-.08-.13-.15-.19-.23Z"/>
      <path class="st13" d="M61.09,28.39h-.32.32Z"/>
      <path class="st20" d="M181.44,45.63c.24,2.97-2.56,5.43-5.07,5.42-3.03,0-5.4-2.34-5.4-5.38,0-2.86,1.98-5.59,5.32-5.58,3.21.02,5.35,2.7,5.15,5.53h0Z"/>
      <path class="st20" d="M282.36,45.68c-.16-3.08,2.33-5.63,5.2-5.53,3.31.12,5.14,2.43,5.32,4.81.31,4.08-2.78,6.03-5.31,6.11-2.84.1-5.47-2.77-5.2-5.39h-.01Z"/>
      <path class="st17" d="M44.1,2.39l-1.73.27-1.51-.45.5-.71c.73-.23,1.47-.47,2.25-.72.22.71.35,1.16.49,1.61Z"/>
      <path class="st14" d="M39.37,1.27c-1.41,0-2.81,0-4.22-.02,1.41,0,2.81,0,4.22.02Z"/>
      <path class="st14" d="M41.36,1.49l-.5.71c-.25,0-.5-.02-.74-.03v-.9c.41.07.83.15,1.24.22Z"/>
      <path class="st9" d="M7.96,1.26h-2.46,2.46Z"/>
      <path class="st9" d="M4.97,1.27h-1.47s1.47,0,1.47,0Z"/>
      <path class="st9" d="M29.9,1.26h-.48.48Z"/>
      <path class="st9" d="M27.9,1.26h-.48.48Z"/>
      <path class="st9" d="M8.96,1.26h-.48.48Z"/>
      <path class="st9" d="M9.96,1.26h-.48.48Z"/>
      <path class="st9" d="M10.96,1.26h-.48.48Z"/>
      <path class="st9" d="M11.95,1.26h-.48.48Z"/>
      <path class="st9" d="M12.95,1.26h-.48.48Z"/>
      <path class="st9" d="M13.95,1.26h-.48.48Z"/>
      <path class="st9" d="M14.94,1.26h-.48.48Z"/>
      <path class="st9" d="M15.94,1.26h-.48.48Z"/>
      <path class="st9" d="M16.94,1.26h-.48.48Z"/>
      <path class="st9" d="M17.93,1.26h-.48.48Z"/>
      <path class="st9" d="M18.93,1.26h-.48.48Z"/>
      <path class="st9" d="M19.93,1.26h-.48.48Z"/>
      <path class="st9" d="M20.92,1.26h-.48.48Z"/>
      <path class="st9" d="M21.92,1.26h-.48.48Z"/>
      <path class="st9" d="M22.92,1.26h-.48.48Z"/>
      <path class="st9" d="M23.92,1.26h-.48.48Z"/>
      <path class="st9" d="M24.91,1.26h-.48.48Z"/>
      <path class="st9" d="M25.91,1.26h-.48.48Z"/>
      <path class="st9" d="M26.91,1.26h-.48.48Z"/>
      <path class="st9" d="M28.9,1.26h-.48.48Z"/>
      <path class="st19" d="M109.21,38.88c-1.22-4.87-3.47-9.29-6.17-13.47-4.42-6.82-10.08-12.46-16.98-16.81-3.77-2.38-7.72-4.42-12.05-5.66-.35-.1-.66-.33-.99-.51-.05-.27-.11-.54-.19-.96,2.35,0,4.6.02,6.85,0,.68,0,1.36-.13,2.05-.2h23.97l4.96.3.03,30.02c0,2.02.03,4.04.05,6.05l-.06,2c-.34,0-.68.02-1.02.03-.14-.26-.28-.52-.42-.77l-.03-.02Z"/>
      <path class="st14" d="M81.74,1.25c-.68.07-1.36.19-2.05.2-2.25.03-4.51,0-6.85,0,.08.42.14.69.19.96-.41-.09-.82-.18-1.24-.27.16-.31.33-.63.49-.94,3.15,0,6.31.03,9.46.04h0Z"/>
      <path class="st2" d="M72.28,1.21c-.16.31-.33.63-.49.94-.67-.14-1.34-.29-2.01-.43.02-.16.03-.32.05-.48.82,0,1.64-.02,2.46-.03h-.01Z"/>
      <path class="st17" d="M69.83,1.24c-.02.16-.03.32-.05.48-.93.46-1.66.39-1.99-.75l2.03.27h.01Z"/>
      <path class="st14" d="M88.72,1.25h-4.22,4.22Z"/>
      <path class="st14" d="M105.67,1.25h-1.48,1.48Z"/>
      <path class="st14" d="M98.69,1.25h-.49.49Z"/>
      <path class="st14" d="M97.69,1.25h-.49.49Z"/>
      <path class="st14" d="M82.74,1.25h-.49.49Z"/>
      <path class="st14" d="M83.74,1.25h-.49.49Z"/>
      <path class="st14" d="M103.68,1.25h-.49.49Z"/>
      <path class="st14" d="M102.68,1.25h-.49.49Z"/>
      <path class="st14" d="M89.72,1.25h-.49.49Z"/>
      <path class="st14" d="M101.68,1.25h-.49.49Z"/>
      <path class="st14" d="M100.69,1.25h-.49.49Z"/>
      <path class="st14" d="M99.69,1.25h-.49.49Z"/>
      <path class="st14" d="M90.72,1.25h-.49.49Z"/>
      <path class="st14" d="M91.71,1.25h-.49.49Z"/>
      <path class="st14" d="M96.7,1.25h-.49.49Z"/>
      <path class="st14" d="M95.7,1.25h-.49.49Z"/>
      <path class="st14" d="M94.7,1.25h-.49.49Z"/>
      <path class="st14" d="M93.71,1.25h-.49.49Z"/>
      <path class="st14" d="M92.71,1.25h-.49.49Z"/>
      <path class="st18" d="M88.44,55.49c1.89-3.23,3.8-6.45,5.67-9.69,2.87-4.98,5.72-9.97,8.59-14.95.32-.55.66-1.09,1.03-1.69,2.36,4.25,4.12,8.59,5.26,13.16.23.92.43,1.84.65,2.76.19,1.48.38,2.97.56,4.45.08,3.55.17,7.11.25,10.66-.23,1.69-.45,3.38-.69,5.06-.06.38-.2.75-.3,1.13-.1.74-.21,1.47-.31,2.21-.59,1.91-1.18,3.83-1.71,5.55-5.9-3.4-11.72-6.75-17.53-10.09,1.15-1.98,2.22-3.8,3.32-5.69-1.6-.96-3.19-1.92-4.78-2.88h0Z"/>
      <path class="st19" d="M110.16,110.04c-.5-.02-.99-.05-1.49-.07-.25,0-.51-.01-.76-.02-.24,0-.49,0-.73-.01h-29.42c-1,.01-2,.03-3,.04-1.17-.16-2.35-.31-3.52-.47.38-.22.73-.52,1.14-.63,5.83-1.63,11.09-4.4,16.01-7.85,3.53-2.48,6.76-5.29,9.52-8.62.21-.29.41-.59.63-.87,1.2-1.53,2.41-3.06,3.61-4.58.39-.58.79-1.16,1.18-1.74.2-.34.39-.67.59-1.01.05-.07.1-.13.15-.2.29-.5.58-.99.86-1.49.17-.33.33-.67.5-1,.15-.25.31-.51.46-.76l.02-.03c.1-.02.13-.08.1-.17,1.06-2.73,2.12-5.47,3.19-8.2l1.4-.98c.04.66.09,1.32.13,1.98-.02,2.8-.05,5.6-.06,8.4,0,8.98,0,17.97-.02,26.95,0,.45-.31.9-.48,1.35v-.02Z"/>
      <path class="st10" d="M102.16,86.95c-1.2,1.53-2.41,3.05-3.61,4.58-.22.28-.42.58-.63.87-.33-.25-.65-.51-.98-.76.44-.51.89-1.02,1.28-1.47-1.39-.77-2.68-1.47-3.96-2.2-3.82-2.18-7.62-4.41-11.48-6.53-2.52-1.39-1.91-1.59-3.47.9-.04.07-.05.15-.09.22-.68,1.17-1.37,2.33-2.08,3.56-.63-.39-1.08-.76-1.59-.95-1.19-.44-2.04-1.68-3.51-1.41-.27-.27-.53-.54-.8-.81.9-1.57,1.81-3.13,2.69-4.72,1.22-2.19,2.41-4.38,3.61-6.58.19-.13.46-.22.57-.4.81-1.36,1.6-2.74,2.39-4.11.57-1.08,1.13-2.15,1.7-3.23,1.61-2.81,3.22-5.61,4.82-8.42h1.41c1.59.96,3.19,1.92,4.78,2.88-1.1,1.89-2.17,3.71-3.32,5.69,5.81,3.34,11.63,6.69,17.53,10.09.53-1.73,1.12-3.64,1.71-5.55.18.25.37.51.55.77.05.19.09.39.14.58-.21.8-.43,1.6-.64,2.4-1.06,2.73-2.12,5.47-3.19,8.2-.05.05-.09.11-.1.17l-.02.03c-.15.25-.31.51-.46.76-.17.33-.33.67-.5,1-.29.5-.58.99-.86,1.49-.05.07-.1.13-.15.2-.2.34-.39.67-.59,1.01-.3-.25-.61-.5-.91-.75.99-1.78,1.99-3.55,3.04-5.44-.69-.17-1.4-.2-1.97-.5-1.91-1.01-3.75-2.13-5.63-3.2-3.38-1.91-6.76-3.83-10.17-5.7-.29-.16-1-.12-1.11.07-1.1,1.8-2.12,3.65-3.13,5.44.16.18.21.26.28.3,4.53,2.59,9.07,5.17,13.58,7.78,1.48.86,2.91,1.81,4.36,2.72.16.34.32.68.48,1.01h.03Z"/>
      <path class="st13" d="M109.84,69.94c-.05-.19-.09-.39-.14-.58.21-.31.41-.63.75-1.14.51,1.86.65,3.47.27,5.12-.04-.66-.09-1.32-.13-1.98-.14-.53.64-1.55-.76-1.42h.01Z"/>
      <path class="st13" d="M110.65,39.63l.06-2c.08.09.15.18.23.27.02.66.03,1.32.05,1.98v1.46c-.15.32-.29.65-.44.97-.15-.16-.3-.31-.45-.47.02-.06.04-.13.05-.2l.51-2.02h-.01Z"/>
      <path class="st3" d="M53.09,1.29h-.25.25Z"/>
      <path class="st24" d="M110.99,40.36v-.48.48Z"/>
      <path class="st10" d="M22.23,53.57c.56.14,1.12.28,1.68.43,1.81,3.14,3.62,6.29,5.43,9.43.24.42.51.83.76,1.25.48.85.96,1.69,1.45,2.54.86,1.47,1.72,2.93,2.58,4.4.02.12,0,.26.07.36,2.14,3.68,4.28,7.35,6.43,11.03-.25.33-.5.66-.76.99-.49-.44-.88-.66-1.56-.11-.83.67-1.89,1.04-2.8,1.63-.67.44-1.01.19-1.33-.38-.76-1.37-1.48-2.76-2.31-4.09-.21-.34-.96-.73-1.18-.61-2.98,1.63-5.89,3.38-8.85,5.04-2.81,1.58-5.65,3.1-8.48,4.64.2.23.53.63.87,1.02-.27.19-.54.37-.82.56-1.41-1.82-2.82-3.64-4.24-5.46-.04-.36,0-.77-.15-1.07-.23-.44-.53-.79.23-.95.47.67.95,1.34,1.42,2.01.6-.64,1.07-1.4,1.74-1.82,2.73-1.69,5.52-3.28,8.3-4.89,2.32-1.34,4.67-2.62,6.96-3.99.24-.14.42-.79.3-1.05-.82-1.69-1.71-3.36-2.65-4.99-.11-.19-.81-.26-1.08-.11-4.07,2.29-8.1,4.68-12.19,6.94-1.66.91-3.15,2.3-5.25,2.25-.18,0-.36.42-.55.65-.24.18-.49.36-.73.54-.06-.06-.07-.12-.06-.2-.15-.26-.29-.52-.44-.79-.57-1.4-1.15-2.81-1.72-4.21l.98-.27c1.19-.73,2.36-1.49,3.57-2.18,4.66-2.67,9.34-5.32,14.23-8.11-.91-1.61-1.77-3.21-2.72-4.75-.43-.69-.47-1.14.3-1.55.91-.49,1.77-1.08,2.7-1.54.94-.46,1.25-.95.38-1.77-.23-.21-.34-.55-.51-.82h0Z"/>
      <path class="st16" d="M13.4,91.7c.27-.19.54-.37.82-.56,1.8,1.76,3.47,3.68,5.42,5.24,2.81,2.24,5.72,4.38,8.78,6.26,4.7,2.89,9.86,4.78,15.2,6.17-.67.16-1.33.33-2,.49l-1.76-.24c-3.84-1.6-7.86-2.87-11.47-4.87-5.68-3.15-10.67-7.28-14.89-12.26-.05-.06-.07-.15-.1-.22h0Z"/>
      <path class="st16" d="M5.52,79.77c.24-.18.49-.36.73-.54,1,1.66,2,3.33,2.99,4.99-.76.16-.46.51-.23.95.16.3.11.71.15,1.07-1.22-2.16-2.43-4.31-3.65-6.47h.01Z"/>
      <path class="st2" d="M39.86,109.05l1.76.24c.42.37.49.67-.19.7-.85.03-1.7-.01-2.55-.02.33-.31.66-.61.98-.92Z"/>
      <path class="st2" d="M6.48,109.92c-1,.01-2,.03-3,.04,1-.01,2-.03,3-.04Z"/>
      <path class="st2" d="M34.9,109.97c-.67-.01-1.34-.02-2-.04.67.01,1.34.02,2,.04Z"/>
      <path class="st16" d="M5.02,78.78c.15.26.29.52.44.79-.15-.26-.29-.52-.44-.79Z"/>
      <path class="st2" d="M7.49,109.92h-.52.52Z"/>
      <path class="st8" d="M40.12,2.17c.25,0,.5.02.74.03l1.51.45c-2.56.93-5.13,1.82-7.67,2.8-4.07,1.57-7.88,3.67-11.28,6.37-2.91,2.32-5.71,4.82-8.28,7.51-2.04,2.12-3.66,4.64-5.45,7-.14.18-.18.44-.27.66-.32-.26-.65-.52-.97-.78.25-.4.51-.8.76-1.2.09-.15.18-.3.27-.46l.02-.03.21-.27c2.65-4.25,6.13-7.78,9.9-11.02,5.2-4.48,11.01-8,17.62-10.09.97-.31,1.93-.64,2.89-.97Z"/>
      <path class="st16" d="M3.23,36.89c-.14.33-.28.67-.42,1,.14-.33.28-.67.42-1Z"/>
      <path class="st16" d="M9.49,24.55c-.09.15-.18.3-.27.46.09-.15.18-.3.27-.46Z"/>
      <path class="st2" d="M2.74,38.14c-.06.18-.13.35-.19.53.06-.18.13-.35.19-.53Z"/>
      <path class="st16" d="M9.72,24.25l-.21.27.21-.27Z"/>
      <path class="st18" d="M43.62,108.81c-5.34-1.39-10.5-3.28-15.2-6.17-3.06-1.88-5.97-4.03-8.78-6.26-1.96-1.56-3.63-3.48-5.42-5.24-.34-.4-.68-.79-.87-1.02,2.83-1.55,5.67-3.06,8.48-4.64,2.96-1.66,5.88-3.41,8.85-5.04.23-.12.97.27,1.18.61.83,1.32,1.55,2.72,2.31,4.09.32.57.66.82,1.33.38.9-.59,1.96-.96,2.8-1.63.68-.55,1.07-.33,1.56.11,1.71,3.04,3.39,6.1,5.13,9.13,3.08,5.34,6.19,10.67,9.32,15.98.44.74.26.92-.48.95-1.33-.08-2.66-.17-3.99-.25-1.66-.19-3.32-.37-4.97-.56-.42-.14-.84-.28-1.25-.43h0Z"/>
      <path class="st16" d="M2.04,40.88c.15-.5.31-1,.46-1.49-.15.5-.31,1-.46,1.49Z"/>
      <path class="st18" d="M72.05,83.74c1.47-.27,2.33.98,3.51,1.41.51.19.96.57,1.59.95.72-1.22,1.4-2.39,2.08-3.56.04-.07.05-.16.09-.22,1.56-2.49.94-2.29,3.47-.9,3.86,2.12,7.65,4.36,11.48,6.53,1.28.73,2.57,1.43,3.96,2.2-.39.45-.84.96-1.28,1.47-1.37,1.34-2.75,2.67-4.12,4.02-3.15,3.09-6.8,5.52-10.64,7.65-4.15,2.3-8.58,3.95-13.14,5.25-.58.08-1.17.17-1.75.25-1.83.25-3.65.5-5.48.74-1.41.16-2.83.32-4.24.49-1-.11-.3-.68-.17-.9,1.59-2.79,3.25-5.54,4.85-8.32,3.28-5.68,6.53-11.38,9.8-17.07h-.01Z"/>
      <path class="st9" d="M40.62,83c-2.14-3.68-4.29-7.35-6.43-11.03-.06-.1-.05-.24-.07-.36.26-.09.52-.19.79-.28.06.09.12.18.18.28,2.91,3.03,5.89,5.98,9.86,7.62,1.75.72,3.6,1.21,5.4,1.8,3.31.8,6.62,1.05,9.96.19,1.07-.23,2.21-.32,3.2-.73,2.15-.88,4.23-1.93,6.34-2.91.57-.4,1.13-.8,1.7-1.2l.34-.28h.08s.06-.04.06-.04c.57-.5,1.15-.99,1.72-1.49,1.08-1.16,2.15-2.33,3.23-3.49l.57.57c-1.2,2.19-2.39,4.39-3.61,6.58-.88,1.58-1.79,3.14-2.69,4.72-2.07,3.54-4.16,7.08-6.21,10.63-2.71,4.71-5.39,9.43-8.09,14.14-.22.38-.51.72-.89,1.26-.43-.53-.81-.88-1.06-1.31-1.7-2.91-3.38-5.84-5.06-8.76-2.77-4.83-5.53-9.66-8.31-14.48-.29-.5-.66-.94-1-1.41v-.02Z"/>
      <path class="st16" d="M69.04,108.56c4.56-1.3,8.99-2.96,13.14-5.25,3.85-2.13,7.49-4.56,10.64-7.65,1.37-1.34,2.75-2.68,4.12-4.02.33.25.65.51.98.76-2.75,3.33-5.99,6.14-9.52,8.62-4.92,3.45-10.18,6.23-16.01,7.85-.41.11-.76.42-1.14.63-.74-.31-1.47-.63-2.21-.94Z"/>
      <path class="st2" d="M74.76,109.97c1-.01,2-.03,3-.04-1,.01-2,.03-3,.04Z"/>
      <path class="st2" d="M107.91,109.95c.25,0,.51.01.76.02-.25,0-.51-.01-.76-.02Z"/>
      <path class="st2" d="M106.66,109.93h.52-.52Z"/>
      <path class="st2" d="M78.49,109.93h.28-.28Z"/>
      <path class="st8" d="M62.8,30.69c1.36.43,2.79.72,4.08,1.3,5.76,2.62,9.95,6.87,12.75,12.48.39.79.62,1.67.93,2.5-.42.03-.84.05-1.26.07-.1-.17-.21-.34-.29-.53-1.19-2.85-2.63-5.54-4.95-7.67l-2.29-2.27c-.51-.39-.99-.86-1.55-1.16-2.12-1.13-4.27-2.21-6.41-3.31-.23-.55-1.35-.48-1-1.43v.02Z"/>
      <path class="st0" d="M76.98,71.07c-1.08,1.16-2.15,2.33-3.23,3.49-.57.25-1.15.5-1.72.75v-.76c.08-.08.16-.16.23-.24.09-.06.18-.12.27-.19.82-.88,1.68-1.72,2.45-2.64,1.9-2.26,3.49-4.71,4.34-7.58.06-.09.12-.18.18-.28.02-.16.05-.31.07-.47.14-.25.28-.51.42-.76.03-.08.05-.16.08-.25v-.47l.24-1.01c.05-.1.1-.19.16-.29.33.1.66.19.99.29-.02.26-.04.51-.05.77-.04.09-.09.18-.14.27l-.18.75s-.08.11-.09.18c0,.16,0,.33-.01.49-.25.65-.51,1.31-.76,1.96-.08.18-.16.36-.25.54l-.06.37c-.06.12-.13.24-.19.36-.92,1.56-1.84,3.13-2.75,4.69v.03Z"/>
      <path class="st16" d="M81.45,60.68c-.33-.1-.66-.19-.99-.29,0-.15-.02-.3-.02-.45l.03-7.43c-.17-.99-.34-1.99-.5-2.98-.22-.82-.44-1.65-.67-2.47.42-.02.84-.05,1.26-.07l-.02.03c.06.1.11.19.17.29,1.41,4.15,1.52,8.41,1.02,12.71-.03.23-.18.45-.27.68v-.02Z"/>
      <path class="st25" d="M62.8,30.69c-.35.95.77.88,1,1.43-.27-.03-.54-.05-.81-.09l-5.43-.78h-5.23c-.17-.03-.34-.05-.5-.08,0-.33,0-.65,0-.98.18-.07.35-.13.53-.2l-.03-.11.52.09.49.03c1.83-.03,3.67-.05,5.5-.08,1.33.26,2.65.51,3.98.77h-.01Z"/>
      <path class="st14" d="M80.22,65.11c.25-.65.51-1.31.76-1.96.41.25.81.51,1.22.76-.57,1.08-1.13,2.15-1.7,3.23-.26-.26-.52-.51-.77-.77.06-.12.13-.24.19-.36l.06-.37c.08-.18.16-.36.25-.54h-.01Z"/>
      <path class="st13" d="M74.01,28.67c.84,0,1.68-.01,2.51-.02-.84,0-1.68.01-2.51.02Z"/>
      <path class="st13" d="M72.23,28.53c.43.05.87.09,1.3.14-.43-.05-.87-.09-1.3-.14Z"/>
      <path class="st13" d="M98.18,28.58c.18,0,.35.01.53.02-.18,0-.35-.01-.53-.02Z"/>
      <path class="st13" d="M97.19,28.58c.17,0,.35.01.52.02-.17,0-.35-.01-.52-.02Z"/>
      <path class="st13" d="M96.19,28.6h.53-.53Z"/>
      <path class="st13" d="M95.19,28.62h.53-.53Z"/>
      <path class="st13" d="M81.23,28.62h.29-.29Z"/>
      <path class="st13" d="M79.23,28.63h.29-.29Z"/>
      <path class="st13" d="M78.24,28.63h.29-.29Z"/>
      <path class="st13" d="M82.22,28.62h.29-.29Z"/>
      <path class="st13" d="M77.24,28.64h.29-.29Z"/>
      <path class="st13" d="M83.22,28.62h.29-.29Z"/>
      <path class="st16" d="M81,62.65c0-.07.04-.13.09-.18l-.09.18Z"/>
      <path class="st13" d="M84.22,28.62h.29-.29Z"/>
      <path class="st13" d="M85.22,28.62h.29-.29Z"/>
      <path class="st16" d="M81.26,61.72c.05-.09.09-.18.14-.27-.05.09-.09.18-.14.27Z"/>
      <path class="st8" d="M80.7,47.3c-.06-.1-.11-.19-.17-.29.06.1.11.19.17.29Z"/>
      <path class="st13" d="M86.21,28.62h.29-.29Z"/>
      <path class="st13" d="M87.21,28.62h.29-.29Z"/>
      <path class="st13" d="M88.21,28.62h.29-.29Z"/>
      <path class="st13" d="M89.2,28.62h.29-.29Z"/>
      <path class="st13" d="M90.2,28.62h.29-.29Z"/>
      <path class="st13" d="M91.2,28.62h.29-.29Z"/>
      <path class="st13" d="M92.19,28.62h.29-.29Z"/>
      <path class="st13" d="M93.19,28.62h.29-.29Z"/>
      <path class="st13" d="M94.19,28.62h.29-.29Z"/>
      <path class="st13" d="M99.17,28.59h.29-.29Z"/>
      <path class="st13" d="M99.92,28.6c.09.02.19.05.28.07-.09-.02-.19-.05-.28-.07Z"/>
      <path class="st13" d="M80.23,28.63h.29-.29Z"/>
      <path class="st8" d="M51.82,30.19c0,.33,0,.65,0,.98-1.2.33-2.39.69-3.59.99-3.55.86-6.46,2.83-9.12,5.22-1.45,1.17-2.79,2.44-3.52,4.21-.19.16-.43.29-.57.5-1.64,2.44-2.73,5.11-3.44,7.95l-.18.5c-.1.74-.21,1.48-.31,2.22-.38-.17-.77-.33-1.15-.5,1.19-7.99,5.22-14.19,11.97-18.64,2.71-1.78,5.71-2.9,8.91-3.45.33,0,.66.02.99.02Z"/>
      <path class="st24" d="M11.46,28.42c.52-.31,1.03-.89,1.55-.89,7.79-.06,15.59-.04,23.38-.03.65,0,1.32.11,1.95.27.22.06.37.41.55.64-.17.07-.34.13-.52.2-.16,0-.32.01-.48.02-.5,0-1.01-.01-1.51-.02-.16,0-.32.01-.48.02H13.33c-.16,0-.31-.01-.47-.02l-.57-.06c-.14,0-.27-.02-.41-.03-.1-.04-.2-.08-.29-.12l-.13.02Z"/>
      <path class="st8" d="M50.35,81.02c-1.8-.59-3.65-1.08-5.4-1.8-3.97-1.64-6.96-4.59-9.86-7.62-.06-.09-.12-.18-.18-.28-1-1.9-2-3.79-3-5.69-.26-.57-.51-1.14-.77-1.71v-.02c-.07-.33-.15-.67-.22-1l-.06-.48c.36.07.72.15,1.08.22.08.13.19.24.23.38,1.07,3.62,3.04,6.71,5.56,9.5,2.55,2.81,5.75,4.67,9.13,6.28l.28.19h0c.52.69,1.01,1.52,2.01.58h.25c.32.48.65.96.97,1.44h-.01Z"/>
      <path class="st16" d="M31.93,62.66c-.36-.07-.72-.15-1.08-.22-.08-.16-.16-.33-.23-.49-.05-.17-.09-.34-.14-.51-.11-.3-.27-.59-.31-.9-.36-2.75-.62-5.5-.21-8.27.38.17.77.33,1.15.5-.05.74-.11,1.49-.16,2.23.09.99.17,1.98.26,2.97l.73,4.7h-.01Z"/>
      <path class="st14" d="M31.14,63.93c.26.57.51,1.14.77,1.71l-.36,1.58c-.48-.85-.96-1.69-1.45-2.54.35-.25.69-.5,1.04-.75Z"/>
      <path class="st13" d="M11.46,28.42c.1.04.19.08.29.12-.76.23-1.51.46-2.27.7.21-.26.38-.65.65-.74.41-.14.88-.06,1.33-.07h0Z"/>
      <path class="st14" d="M51.82,30.19c-.33,0-.66-.02-.99-.02.34-.06.67-.13,1.01-.19,0,.07,0,.15-.03.22h.01Z"/>
      <path class="st13" d="M36.38,28.6c.5,0,1.01.01,1.51.02-.5,0-1.01-.01-1.51-.02Z"/>
      <path class="st14" d="M30.91,62.92c.07.33.15.67.22,1-.07-.33-.15-.67-.22-1Z"/>
      <path class="st13" d="M38.37,28.6c.17-.07.34-.13.52-.2l.5.09c-.34.04-.68.07-1.02.11Z"/>
      <path class="st8" d="M30.48,61.43c.05.17.09.34.14.51-.05-.17-.09-.34-.14-.51Z"/>
      <path class="st8" d="M51.82,30.2c.03-.07.03-.14.03-.22.17,0,.33.01.5.02-.18.07-.35.13-.53.2Z"/>
      <path class="st13" d="M13.19,28.64h.53-.53Z"/>
      <path class="st13" d="M12.16,28.56l.57.06-.57-.06Z"/>
      <path class="st13" d="M35.37,28.62h.53-.53Z"/>
      <path class="st13" d="M29.39,28.62h.29-.29Z"/>
      <path class="st13" d="M30.38,28.62h.29-.29Z"/>
      <path class="st13" d="M34.37,28.62h.29-.29Z"/>
      <path class="st13" d="M33.38,28.62h.29-.29Z"/>
      <path class="st13" d="M14.43,28.63h.29-.29Z"/>
      <path class="st13" d="M15.43,28.62h.29-.29Z"/>
      <path class="st13" d="M32.38,28.62h.29-.29Z"/>
      <path class="st13" d="M16.43,28.62h.29-.29Z"/>
      <path class="st13" d="M17.42,28.62h.29-.29Z"/>
      <path class="st13" d="M18.42,28.62h.29-.29Z"/>
      <path class="st13" d="M19.42,28.62h.29-.29Z"/>
      <path class="st13" d="M20.42,28.62h.29-.29Z"/>
      <path class="st13" d="M21.41,28.62h.29-.29Z"/>
      <path class="st13" d="M22.41,28.62h.29-.29Z"/>
      <path class="st13" d="M23.41,28.62h.29-.29Z"/>
      <path class="st13" d="M24.4,28.62h.29-.29Z"/>
      <path class="st13" d="M25.4,28.62h.29-.29Z"/>
      <path class="st13" d="M31.38,28.62h.29-.29Z"/>
      <path class="st13" d="M26.4,28.62h.29-.29Z"/>
      <path class="st13" d="M27.39,28.62h.29-.29Z"/>
      <path class="st13" d="M28.39,28.62h.29-.29Z"/>
      <path class="st14" d="M110.65,39.63l-.51,2.02c-.17-.67-.34-1.33-.5-2,.34,0,.68-.02,1.02-.03h0Z"/>
      <path class="st14" d="M109.21,38.88c.14.26.28.52.42.77-.14-.26-.28-.52-.42-.77Z"/>
      <path class="st8" d="M53.33,30.01"/>
      <path class="st16" d="M102.16,86.95c-.16-.34-.32-.68-.48-1.01l.75-1.47c.3.25.61.5.91.75-.39.58-.79,1.16-1.18,1.74h0Z"/>
      <path class="st14" d="M109.84,69.94c1.4-.13.61.89.76,1.42l-1.4.98c.21-.8.43-1.6.64-2.4Z"/>
      <path class="st16" d="M104.93,82.51c.17-.33.33-.67.5-1-.17.33-.33.67-.5,1Z"/>
      <path class="st16" d="M105.43,81.51c.15-.25.31-.51.46-.76-.15.25-.31.51-.46.76Z"/>
      <path class="st16" d="M105.91,80.72c.02-.07.05-.13.1-.17.03.09,0,.15-.1.17Z"/>
      <path class="st16" d="M103.92,84.2c.05-.07.1-.13.15-.2-.05.07-.1.13-.15.2Z"/>
      <path class="st18" d="M102.42,84.46l-.75,1.47c-1.45-.91-2.88-1.87-4.36-2.72-4.52-2.61-9.05-5.19-13.58-7.78-.07-.04-.11-.12-.28-.3,1.01-1.79,2.03-3.64,3.13-5.44.12-.19.82-.23,1.11-.07,3.41,1.87,6.79,3.78,10.17,5.7,1.88,1.06,3.73,2.18,5.63,3.2.57.3,1.28.33,1.97.5-1.06,1.89-2.05,3.67-3.04,5.44Z"/>
      <path class="st2" d="M79.73,66.37c.26.26.52.51.77.77-.79,1.37-1.58,2.75-2.39,4.11-.11.18-.37.27-.57.4l-.57-.57c.92-1.57,1.84-3.13,2.75-4.7h.01Z"/>
      <path class="st18" d="M9.24,84.22c-1-1.66-2-3.33-2.99-4.99.18-.23.37-.65.55-.65,2.1.04,3.59-1.34,5.25-2.25,4.09-2.26,8.11-4.65,12.19-6.94.27-.15.97-.08,1.08.11.95,1.63,1.83,3.29,2.65,4.99.12.25-.06.9-.3,1.05-2.3,1.37-4.65,2.65-6.96,3.99-2.78,1.61-5.57,3.2-8.3,4.89-.68.42-1.14,1.17-1.74,1.82-.47-.67-.95-1.34-1.42-2.01h0Z"/>
      <path class="st2" d="M31.55,67.22l.36-1.58c1,1.9,2,3.79,3,5.69-.26.09-.52.19-.79.28-.86-1.47-1.72-2.93-2.58-4.4h.01Z"/>
      <path class="st25" d="M50.35,81.02c-.32-.48-.65-.96-.97-1.44.67.12,1.34.26,2.02.35,1.64.21,3.28.5,4.93.53,1.24.02,2.48-.3,3.72-.47.08.41.17.82.25,1.22-3.34.85-6.65.61-9.96-.19h0Z"/>
      <path class="st16" d="M60.31,81.22c-.08-.41-.17-.82-.25-1.22,3.21-.57,6.21-1.69,8.98-3.39.27.33.54.65.81.98-2.11.98-4.19,2.03-6.34,2.91-1,.41-2.13.5-3.2.73h0Z"/>
      <path class="st0" d="M69.85,77.57c-.27-.33-.54-.65-.81-.98.75-.52,1.49-1.04,2.24-1.56l.75.27v.74l-.06.05h-.08s-.34.27-.34.27c-.57.4-1.13.8-1.7,1.2h0Z"/>
      <path class="st16" d="M72.03,76.05v-.74c.57-.25,1.15-.5,1.72-.75-.57.5-1.15.99-1.72,1.49Z"/>
      <path class="st2" d="M34.91,71.33c.06.09.12.18.18.28-.06-.09-.12-.18-.18-.28Z"/>
      <path class="st16" d="M71.55,76.37l.34-.28-.34.28Z"/>
      <path class="st26" d="M71.27,75.04c-.75.52-1.49,1.04-2.24,1.56-2.78,1.7-5.78,2.82-8.98,3.39-1.24.17-2.48.5-3.72.47-1.65-.03-3.29-.33-4.93-.53-.68-.08-1.35-.23-2.02-.35h-.25c-.67-.19-1.34-.39-2.01-.58h0c-.09-.06-.19-.12-.28-.19-3.38-1.61-6.59-3.47-9.13-6.28-2.52-2.78-4.5-5.87-5.56-9.5-.04-.14-.15-.25-.23-.38-.24-1.57-.48-3.13-.73-4.7.47.08.93.17,1.4.25.17.34.35.67.52,1.01.59.58,1.18,1.16,1.77,1.75,1.9,1.35,4.28,1.37,6.21.14,1.84-1.17,2.11-2.95,2.02-4.87-.18-3.78-3.81-5.39-6.78-4.48-1.87.57-3.02,1.87-3.91,3.5-.49-.09-.99-.17-1.48-.26.05-.74.11-1.49.16-2.23.1-.74.21-1.48.31-2.22l.18-.5c.71-2.84,1.8-5.51,3.44-7.95.14-.2.38-.33.57-.5.35-.07.7-.13,1.05-.2.3.15.58.33.89.45.36.15.85.15,1.1.4,1.36,1.36,2.71,2.73,3.95,4.19.61.72.97,1.64,1.47,2.52.44-.54.89-1.09,1.34-1.65.45-.33.91-.65,1.47-1.06-.78-.46-1.3-.67-1.53.28-1.29-.48-2.35-1.17-2.54-2.68.45-.57.91-.9,1.74-.54.72.31,1.54.46,2.33.52,1.18.09,2.47.31,3.32-1.13-.36-.13-.64-.28-.93-.32-.89-.11-1.81-.07-2.66-.29-1.87-.46-2.33-.15-2.26-2.07.07-1.86-1.69-2.89-3.49-2.08l-.46-.02c-.43-.18-.86-.35-1.29-.53,2.66-2.4,5.57-4.36,9.12-5.22,1.21-.29,2.4-.66,3.59-.99.17.03.34.05.5.08,0,.32,0,.65,0,.97.71,1.42.84,2.92.74,4.48-.06,1.03.02,2.06,0,3.09,0,.44-.02.93-.19,1.32-.68,1.49-.68,1.53,1.03,1.47.48-.02.96-.19,1.23-.25-.22-1.14-.56-2.08-.53-3.01.03-.74.29-1.73,1.54-1.27l.03.02.37.32c.59.92,1.12,1.89,1.77,2.76s1.36,1.76,2.63,1.38c-1.05-1.71-2.09-3.4-3.12-5.09,1.02-.49,1.67-1.18,1.74-2.41.08-1.54-.88-2.25-2.02-2.88v-.91l5.43.78c.27.04.54.06.81.09,2.14,1.1,4.29,2.18,6.41,3.31.56.3,1.04.77,1.55,1.16-.41.19-.83.39-1.24.58-1.71-.4-3.44-.64-5.01.39-2.49,1.64-3.24,4.05-2.2,7-.44.26-.87.53-1.31.79-.97-.34-1.93-.91-2.92-.97-2.24-.13-4.49-.02-6.74,0h-.26c-.17.06-.34.13-.51.19-1.57,1.08-3.13,2.16-4.7,3.25-.17.24-.34.49-.51.73-.11.16-.21.33-.32.49-.13.17-.27.33-.4.5-2.6,5.01-2.07,10.46,2,14.6-.42.26-.84.53-1.27.79.44.93.17,1.66-.56,2.35-1.14,1.07-2.2,2.23-3.33,3.31-.49.47-1.07.85-1.6,1.28-1.25-.5-1.8-1.48-1.82-2.81-1.42.71-1.48,1.06-.45,2.09.58.58,1.17,1.14,1.76,1.71.5.49,1,.98,1.49,1.47.27.31.55.62.8.94,1.09,1.42,1.7,1.36,2.55-.12-.93-.45-1.87-.91-2.81-1.36,0-.35-.18-.9,0-1.03,2.23-1.8,3.5-4.79,6.7-5.39.13-.14.31-.27.39-.44.16-.34.27-.7.4-1.05.9.34,1.81.68,2.71,1.02.75.17,1.5.35,2.24.52l.27,1.21c-.29.08-.59.17-.88.25-2.18.62-2.82,2.94-1.17,4.51.56.53,1.36.8,2.05,1.18.63.35,1.35.59,1.89,1.05,1.03.89.86,1.64-.39,2.25-1.58.43-2.83-.07-3.86-1.74-.2,1.36-.46,2.42.79,2.68.97.2,2.03-.01,3.04-.04.3-.18.64-.31.9-.54,2.43-2.05,1.27-3.89-.92-4.7-.82-.3-1.65-.67-2.33-1.19-.43-.33-.85-1.03-.82-1.54.04-.77.73-1.2,1.56-1.21h2.35c.48.54.97,1.08,1.58,1.77.33-1.87,0-2.58-1.08-2.73l-.99-.09v-1.1l2.98-.86h.5c.09-.07.18-.13.28-.2.32-.18.65-.36.97-.55.59-.4,1.18-.79,1.77-1.19.74-.76,1.53-1.47,2.2-2.27,1.37-1.63,1.74-3.64,2.05-5.66.5-.34,1.01-.68,1.51-1.02l2.46.54-.03-.03c.35.34.64.77,1.06,1,1.15.63,2.35,1.18,3.53,1.76-1.13.08-2.27.07-3.38.26-1.38.23-2.75.7-3.82-.99-.14,1.28-.25,2.3-.34,3.09,1.85-.21,3.69-.54,5.53-.59,1.56-.04,3.2-.47,4.67.47.34.41.68.81,1.01,1.22-.07.25-.15.49-.22.74-.02.16-.05.31-.07.47-.06.09-.12.18-.18.28-.85,2.86-2.43,5.32-4.34,7.58-.77.92-1.63,1.76-2.45,2.64-.09.06-.18.12-.27.19-.08.08-.16.16-.23.24-.25.16-.5.33-.75.49h.02ZM70.82,71.83c-.14-.41-.27-.84-.44-1.24-1.04-2.5-2.65-4.78-2.67-7.25-.68.42-1.53.95-2.46,1.52.51.37.61.51.71.51,1.18-.02,1.45.95,1.78,1.72.35.82-.1,1.47-.75,2.01-.44.36-.8.82-1.19,1.23-2.28-.53-3.03-1.17-2.76-2.77-.97.77-1.75,1.38-2.54,2.02.16.19.22.32.31.37,2.8,1.29,5.59,2.6,8.42,3.82.55.24,1.28.06,1.93.07-.11-.67-.22-1.34-.33-2h0Z"/>
      <path class="st26" d="M79.3,47.06c.22.82.44,1.65.67,2.47-.4.25-.8.51-1.2.76l.25.37s-.09.05-.09.05c.02.06.06.11.09.17-.25-.04-.51-.07-.76-.11-.17.08-.33.16-.5.24-.33.02-.66.04-.99.05-2.81-.42-5.81.27-8.41-1.56.22,1.01.41,1.87.54,2.48.87-.17,1.65-.45,2.44-.45,1.55,0,3.1.14,4.66.23-.25.24-.45.58-.75.71-2.05.95-4.13,1.85-6.2,2.77-.49-.34-.98-.68-1.46-1.02-.09-.33-.18-.67-.28-1-.02-.24-.03-.49-.05-.73-.07-.09-.13-.18-.2-.27-.09-.4-.19-.81-.28-1.21-.58-.98-1.16-1.97-1.74-2.95.26-.34.52-.68.77-1.02.08,0,.16-.02.25-.02,2.27.62,4.3.36,6.06-1.39,1.78-1.78,1.94-3.78,1.12-6,.27-.26.55-.51.82-.77,2.32,2.13,3.76,4.82,4.95,7.67.08.18.19.35.29.53Z"/>
      <path class="st3" d="M74.05,38.87c-.27.26-.55.51-.82.77l-2.7-2.46c.41-.19.83-.39,1.24-.58l2.29,2.27h-.01Z"/>
      <path class="st11" d="M79.78,62.43c-.34-.41-.68-.81-1.01-1.22.1-.42.19-.84.29-1.26.46.36.92.38,1.39,0,0,.15.02.3.02.45-.05.1-.1.19-.16.29l-.24,1.01v.47c-.03.08-.05.16-.08.25-.07,0-.14,0-.21.02h0Z"/>
      <path class="st16" d="M71.27,75.04c.25-.16.5-.33.75-.49v.76s-.75-.27-.75-.27Z"/>
      <path class="st16" d="M79.78,62.43c.07-.02.14-.02.21-.02-.14.25-.28.51-.42.76.07-.25.15-.49.22-.74h-.01Z"/>
      <path class="st2" d="M80.22,65.11c-.08.18-.16.36-.25.54.08-.18.16-.36.25-.54Z"/>
      <path class="st16" d="M80.06,62.16v-.47.47Z"/>
      <path class="st16" d="M79.31,63.91c.06-.09.12-.18.18-.28-.06.09-.12.18-.18.28Z"/>
      <path class="st2" d="M79.92,66.01c-.06.12-.13.24-.19.36.06-.12.13-.24.19-.36Z"/>
      <path class="st16" d="M80.31,60.68c.05-.1.1-.19.16-.29-.05.1-.1.19-.16.29Z"/>
      <path class="st16" d="M72.25,74.31c.09-.06.18-.12.27-.19-.09.06-.18.12-.27.19Z"/>
      <path class="st26" d="M80.44,59.95c-.46.38-.92.36-1.39,0v-.5c.2-.19.41-.37.61-.56-.3,0-.6,0-.9,0-.58-.25-1.15-.49-1.73-.74-.61-.29-1.21-.64-1.85-.85-1.21-.41-2.44-.73-3.67-1.09l.03.03c.23-.29.4-.73.7-.86,2.07-.91,4.17-1.74,6.24-2.64.25-.11.38-.47.56-.72.47.16.95.33,1.42.49l-.03,7.43h.01Z"/>
      <path class="st3" d="M80.47,52.52c-.47-.17-.95-.33-1.42-.49l-.03-1.13c-.03-.06-.06-.11-.09-.17,0,0,.06-.04.09-.05l-.25-.37c.4-.25.8-.51,1.2-.76.17.99.34,1.99.5,2.98h0Z"/>
      <path class="st11" d="M57.57,31.25v.91c-1.74.02-3.48.05-5.22.07,0-.32,0-.65,0-.97h5.23Z"/>
      <path class="st3" d="M36.66,41.4c-.35.07-.7.13-1.05.2.73-1.77,2.06-3.04,3.52-4.21.43.18.86.35,1.29.53-1.25,1.16-2.5,2.33-3.75,3.49h-.01Z"/>
      <path class="st16" d="M31.6,50.03c-.06.17-.12.33-.18.5.06-.17.12-.33.18-.5Z"/>
      <path class="st25" d="M47.12,79c.67.19,1.34.39,2.01.58-1,.94-1.49.11-2.01-.58Z"/>
      <path class="st25" d="M46.85,78.82c.09.06.19.12.28.19-.09-.06-.19-.12-.28-.19Z"/>
      <path class="st11" d="M32.6,58.21c-.47-.08-.93-.17-1.4-.25-.09-.99-.17-1.98-.26-2.97.49.09.99.17,1.48.26.06.99.11,1.97.17,2.96h.01Z"/>
      <path class="st8" d="M52.09,44.38h.26v1.36c-1.03.57-2.18,1.01-3.07,1.75-1.71,1.43-3.21,3.06-3.43,5.45-1.11,2.14-1,4.22.29,6.25.68,1.16,1.23,2.42,2.07,3.45,1.32,1.63,3.05,2.77,5.15,3.28l-.76.97c-.9-.34-1.81-.68-2.71-1.02-.74-.58-1.49-1.15-2.23-1.73-4.07-4.14-4.6-9.59-2-14.6.13-.17.27-.33.4-.5.11-.16.21-.33.32-.49.17-.24.34-.49.51-.73,1.57-1.08,3.13-2.16,4.7-3.25.17-.06.34-.13.51-.19h-.01Z"/>
      <path class="st0" d="M70.53,37.18l2.7,2.46c.82,2.22.67,4.22-1.12,6-1.76,1.75-3.79,2.02-6.06,1.39-.09-.07-.18-.14-.26-.21.09-.26.19-.51.28-.77.39.09.78.24,1.18.27,2.28.15,4.88-2.32,5.06-4.65.12-1.55-.38-2.78-1.73-3.47-1.26-.64-2.57-.48-3.76.41-1.84,1.38-2.78,3.13-2.5,5.45-.27.18-.54.37-.81.55-.06-.02-.12-.04-.19-.05-1.04-2.95-.29-5.36,2.2-7,1.57-1.03,3.3-.79,5.01-.39h0Z"/>
      <path class="st0" d="M32.6,58.21c-.06-.99-.11-1.97-.17-2.96.89-1.62,2.04-2.92,3.91-3.5,2.97-.91,6.6.7,6.78,4.48.09,1.92-.18,3.7-2.02,4.87-1.94,1.23-4.31,1.2-6.21-.14.17-.35.35-.7.52-1.05,1.78.99,3.56.62,5.14-.32,1.09-.66,1.93-1.68,1.84-3.19-.08-1.49-.83-2.42-2.16-2.83-.83-.26-1.75-.28-2.63-.29-3.47-.03-5.19,2.47-3.93,5.64-.18.1-.37.21-.55.31-.17-.34-.35-.67-.52-1.01h0Z"/>
      <path class="st12" d="M52.35,32.23c1.74-.02,3.48-.05,5.22-.07,1.14.64,2.1,1.35,2.02,2.88-.06,1.23-.72,1.92-1.74,2.41-.18-.2-.36-.39-.54-.59.16-.28.33-.55.47-.84.7-1.41-.06-2.91-1.63-3.03-.41-.03-1.2.44-1.25.76-.16,1.1-.06,2.23-.06,3.34.79-.06,1.39-.1,1.99-.15-.22.37-.44.74-.65,1.11-1.24-.46-1.51.53-1.54,1.27-.03.93.31,1.87.53,3.01-.28.06-.75.23-1.23.25-1.71.07-1.71.02-1.03-1.47.18-.39.19-.88.19-1.32.02-1.03-.06-2.06,0-3.09.1-1.56-.03-3.06-.74-4.48h0Z"/>
      <path class="st16" d="M52.34,45.75v-1.36c2.25,0,4.5-.13,6.74,0,.99.06,1.95.63,2.92.97,1.01.91,2.02,1.81,3.02,2.72.58.98,1.16,1.97,1.74,2.95-.29.05-.58.09-.52.08.19,1.52.43,2.88.51,4.25.03.61-.27,1.24-.42,1.86-.1-1.35-.05-2.72-.31-4.03-.71-3.46-2.73-6.02-6.05-7.24-2.45-.9-5.06-1.33-7.63-.2Z"/>
      <path class="st0" d="M57.31,69.61c-.78,0-1.57-.01-2.35,0-.83.01-1.51.44-1.56,1.21-.03.51.39,1.2.82,1.54.68.52,1.52.89,2.33,1.19,2.19.81,3.35,2.65.92,4.7-.26.22-.6.36-.9.54,0-.3,0-.6.02-.9,1.25-.61,1.42-1.36.39-2.25-.53-.46-1.25-.7-1.89-1.05-.69-.38-1.5-.65-2.05-1.18-1.65-1.57-1.02-3.89,1.17-4.51.29-.08.59-.17.88-.25l1.74-.09.99.09c-.17.32-.34.64-.51.97h0Z"/>
      <path class="st8" d="M66.34,57.22c.15-.62.45-1.25.42-1.86-.07-1.37-.31-2.73-.51-4.25-.06,0,.23-.04.52-.08.09.4.19.81.28,1.21.07.09.13.18.2.27.02.24.03.49.05.73.06.42.13.83.19,1.25.03.75.05,1.49.08,2.24-.3,2.02-.68,4.03-2.05,5.66-.68.81-1.47,1.52-2.2,2.27-.89-.04-1.74-.04-1.77,1.19-.32.18-.65.36-.97.55-.09.07-.18.13-.28.2h-.5l-1.74-.21.49-.49c.17-.08.33-.16.5-.25s.33-.17.5-.26c3.88-1.39,5.9-4.31,6.78-8.17h.01Z"/>
      <path class="st25" d="M77.02,58.16c.58.25,1.15.49,1.73.74.1.18.2.36.29.54v.5c-.1.42-.19.84-.29,1.26-1.47-.95-3.12-.52-4.67-.47-1.84.05-3.68.38-5.53.59.09-.79.2-1.81.34-3.09,1.07,1.69,2.44,1.22,3.82.99,1.11-.18,2.25-.18,3.38-.26.31-.27.62-.54.93-.8Z"/>
      <path class="st0" d="M36.66,41.4c1.25-1.16,2.5-2.33,3.75-3.49.15,0,.31,0,.46.02.08.39.17.78.25,1.17-.42.12-.92.15-1.23.4-.37.3-.88,1.08-.8,1.17.95,1.02,1.99,1.95,3.01,2.9.24.09.47.19.71.28.19,1.51,1.25,2.21,2.54,2.68.15.03.3.07.45.1-.14.24-.27.46-.4.68-.45.56-.91,1.12-1.34,1.65-.5-.88-.86-1.81-1.47-2.52-1.24-1.46-2.59-2.83-3.95-4.19-.25-.25-.74-.25-1.1-.4-.31-.13-.59-.3-.89-.45h.01Z"/>
      <path class="st25" d="M41.12,39.09c-.08-.39-.17-.78-.25-1.17,1.8-.8,3.56.22,3.49,2.08-.07,1.93.39,1.61,2.26,2.07.86.21,1.78.17,2.66.29.29.04.57.19.93.32-.85,1.44-2.14,1.21-3.32,1.13-.79-.06-1.61-.2-2.33-.52-.83-.36-1.28-.03-1.74.54-.24-.09-.47-.19-.71-.28.48-.79,1.66-1.13,1.49-2.32-.19-1.34-1.01-2.05-2.48-2.15h0Z"/>
      <path class="st16" d="M70.82,71.83c.11.67.22,1.34.33,2-.65-.01-1.38.17-1.93-.07-2.83-1.21-5.62-2.53-8.42-3.82-.1-.04-.15-.18-.31-.37.79-.63,1.57-1.24,2.54-2.02-.26,1.6.48,2.23,2.76,2.77.24.09.47.18.71.28.92,1.06,2.08,1.58,3.5,1.47.27-.08.55-.17.82-.25h0Z"/>
      <path class="st0" d="M41.85,74.33c-.5-.49-1-.98-1.49-1.47.17-.33.34-.66.52-.99.54-.42,1.11-.81,1.6-1.28,1.13-1.08,2.19-2.24,3.33-3.31.73-.69,1.01-1.42.56-2.35l2.7,2.43c-3.19.6-4.47,3.59-6.7,5.39-.17.14,0,.68,0,1.03l-.54.54h.01Z"/>
      <path class="st0" d="M79.02,50.89l.03,1.13c-.18.25-.31.61-.56.72-2.07.9-4.17,1.73-6.24,2.64-.3.13-.47.57-.7.86l-2.46-.54c-.02-.15-.03-.3-.05-.45,2.07-.92,4.14-1.82,6.2-2.77.3-.14.5-.47.75-.71.26-.23.52-.47.78-.7.33-.02.66-.04.99-.05.17-.08.33-.16.5-.24.25.04.51.07.76.11Z"/>
      <path class="st25" d="M70.82,71.83c-.27.08-.55.17-.82.25-.15-.39-.26-.81-.46-1.18-.83-1.5-1.84-1.6-3.04-.29-.24-.09-.47-.18-.71-.28.39-.41.75-.87,1.19-1.23.66-.54,1.1-1.19.75-2.01-.33-.78-.6-1.75-1.78-1.72-.1,0-.19-.13-.71-.51.93-.57,1.78-1.1,2.46-1.52.03,2.46,1.64,4.75,2.67,7.25.17.4.29.83.44,1.24h0Z"/>
      <path class="st19" d="M57.31,36.86c.18.2.36.39.54.59,1.04,1.69,2.07,3.38,3.12,5.09-1.28.38-1.99-.52-2.63-1.38-.65-.87-1.19-1.84-1.77-2.76-.12-.11-.24-.21-.37-.32l-.03-.02c.22-.37.44-.74.65-1.11.16-.03.32-.05.48-.08h0Z"/>
      <path class="st25" d="M58.07,66.39l1.74.21c-.99.29-1.99.57-2.98.86-.67,0-1.34-.02-2.01-.02-.75-.17-1.5-.35-2.24-.52l.76-.97c.5.08,1,.17,1.5.25,1.08.07,2.16.13,3.24.2h-.01Z"/>
      <path class="st23" d="M56.6,77.88c0,.3,0,.6-.02.9-1.02.03-2.07.24-3.04.04-1.25-.26-.99-1.31-.79-2.68,1.03,1.67,2.28,2.17,3.86,1.74h0Z"/>
      <path class="st23" d="M77.02,58.16c-.31.27-.62.54-.93.8-1.18-.58-2.38-1.12-3.53-1.76-.41-.23-.71-.66-1.06-1,1.22.36,2.46.69,3.67,1.09.64.21,1.23.57,1.85.85v.02Z"/>
      <path class="st3" d="M49.07,67.37l-2.7-2.43c.42-.26.84-.53,1.27-.79.74.58,1.49,1.15,2.23,1.73-.13.35-.24.71-.4,1.05-.08.17-.26.29-.39.44h0Z"/>
      <path class="st11" d="M65.03,48.07c-1.01-.91-2.02-1.81-3.02-2.72.44-.26.87-.53,1.31-.79.06,0,.13.03.19.05.76.74,1.52,1.47,2.29,2.21-.01.08,0,.16.02.24-.26.34-.52.68-.77,1.02h-.02Z"/>
      <path class="st25" d="M40.88,71.87c-.17.33-.34.66-.52.99-.59-.57-1.18-1.13-1.76-1.71-1.03-1.03-.96-1.37.45-2.09.02,1.33.57,2.31,1.82,2.81h0Z"/>
      <path class="st23" d="M41.85,74.33l.54-.54c.94.46,1.88.91,2.81,1.36-.86,1.48-1.46,1.54-2.55.12-.25-.33-.53-.63-.8-.94Z"/>
      <path class="st3" d="M69.04,55.26c.02.15.03.3.05.45-.5.34-1.01.68-1.51,1.02-.03-.75-.05-1.49-.08-2.24.03-.08.06-.16.09-.25.49.34.98.68,1.46,1.02h0Z"/>
      <path class="st25" d="M57.31,69.61c.17-.32.34-.64.51-.97,1.08.15,1.41.86,1.08,2.73-.62-.69-1.1-1.23-1.58-1.77h0Z"/>
      <path class="st3" d="M54.82,67.43c.67,0,1.34.02,2.01.02v1.1l-1.74.09s-.27-1.21-.27-1.21Z"/>
      <path class="st25" d="M33.11,59.22c.18-.1.37-.21.55-.31.58.33,1.16.67,1.73,1-.17.35-.35.7-.52,1.05-.59-.58-1.18-1.16-1.77-1.75h.01Z"/>
      <path class="st11" d="M45.41,47.31c.13-.22.26-.44.4-.68-.15-.03-.3-.07-.45-.1.22-.94.74-.74,1.53-.28-.57.41-1.02.73-1.47,1.06h0Z"/>
      <path class="st25" d="M61.56,65.85c.03-1.23.88-1.23,1.77-1.19-.59.4-1.18.79-1.77,1.19Z"/>
      <path class="st11" d="M46.88,47.82c-.17.24-.34.49-.51.73.17-.24.34-.49.51-.73Z"/>
      <path class="st11" d="M46.05,49.04c-.13.17-.27.33-.4.5.13-.17.27-.33.4-.5Z"/>
      <path class="st16" d="M52.09,44.38c-.17.06-.34.13-.51.19.17-.06.34-.13.51-.19Z"/>
      <path class="st12" d="M56.21,38.08c.12.11.24.21.37.32-.12-.11-.24-.21-.37-.32Z"/>
      <path class="st25" d="M60.31,66.59c.09-.07.18-.13.28-.2-.09.07-.18.13-.28.2Z"/>
      <path class="st25" d="M76.77,51.07c-.26.23-.52.47-.78.7-1.55-.09-3.1-.23-4.66-.23-.79,0-1.57.28-2.44.45-.13-.61-.32-1.48-.54-2.48,2.6,1.83,5.6,1.14,8.41,1.56h.01Z"/>
      <path class="st16" d="M67.58,54.24c-.03.08-.06.16-.09.25-.06-.42-.13-.83-.19-1.25.09.33.18.67.28,1Z"/>
      <path class="st25" d="M78.26,50.78c-.17.08-.33.16-.5.24.17-.08.33-.16.5-.24Z"/>
      <path class="st16" d="M67.25,52.51c-.07-.09-.13-.18-.2-.27.07.09.13.18.2.27Z"/>
      <path class="st23" d="M65.81,47.06c-.03-.08-.03-.16-.02-.24.09.07.18.14.26.21-.08,0-.16.02-.25.02h0Z"/>
      <path class="st25" d="M78.76,50.3l.25.37-.25-.37Z"/>
      <path class="st11" d="M79.05,59.45c-.1-.18-.2-.36-.29-.54.3,0,.6,0,.9,0-.2.19-.41.37-.61.56h0Z"/>
      <path class="st19" d="M54.84,66.19c-.5-.08-1-.17-1.5-.25-2.09-.5-3.83-1.64-5.15-3.28-.84-1.03-1.39-2.29-2.07-3.45-.1-2.08-.19-4.17-.29-6.25.22-2.39,1.72-4.03,3.43-5.45.89-.74,2.04-1.18,3.07-1.75,2.57-1.13,5.19-.7,7.63.2,3.32,1.22,5.34,3.78,6.05,7.24.27,1.31.22,2.69.31,4.03-.88,3.85-2.89,6.78-6.78,8.17-.17.09-.33.17-.5.26-.17.08-.33.16-.5.25-1.24.1-2.49.2-3.73.29h.03ZM53.83,63.96c.1.06.19.12.29.19.07,0,.14.03.21.05,1,.91,2,.44,3,0,.71-.26,1.45-.49,2.14-.8,3.94-1.74,5.71-5.91,4.61-9.97-1.17-4.28-3.95-6.04-8.41-6.17-3.58-.1-5.93,1.66-7.43,4.57-1.36,2.65-1.42,5.44.32,8.09,1.3,1.97,2.92,3.47,5.28,4.04h0Z"/>
      <path class="st14" d="M45.83,52.95c.1,2.08.19,4.17.29,6.25-1.29-2.03-1.4-4.11-.29-6.25Z"/>
      <path class="st26" d="M64.32,44.06c-.28-2.32.66-4.07,2.5-5.45,1.19-.89,2.5-1.05,3.76-.41,1.35.69,1.85,1.92,1.73,3.47-.18,2.33-2.78,4.79-5.06,4.65-.4-.03-.78-.17-1.18-.27-.59-.66-1.17-1.33-1.76-1.99h0Z"/>
      <path class="st23" d="M64.32,44.06c.59.66,1.17,1.33,1.76,1.99-.09.26-.19.51-.28.77-.76-.74-1.52-1.47-2.29-2.21.27-.18.54-.37.81-.55Z"/>
      <path class="st18" d="M35.4,59.91c-.58-.33-1.16-.67-1.73-1-1.26-3.17.46-5.66,3.93-5.64.88,0,1.81.03,2.63.29,1.33.41,2.08,1.35,2.16,2.83.08,1.51-.75,2.54-1.84,3.19-1.58.95-3.36,1.32-5.14.32h-.01Z"/>
      <path class="st26" d="M57.31,36.86c-.16.03-.32.05-.48.08-.6.04-1.19.09-1.99.15,0-1.11-.1-2.25.06-3.34.05-.32.83-.79,1.25-.76,1.57.12,2.33,1.62,1.63,3.03-.14.29-.31.56-.47.84Z"/>
      <path class="st17" d="M54.84,66.19c1.24-.1,2.49-.2,3.73-.29l-.49.49c-1.08-.07-2.16-.13-3.24-.2Z"/>
      <path class="st17" d="M59.07,65.65c.17-.09.33-.17.5-.26-.17.09-.33.17-.5.26Z"/>
      <path class="st26" d="M41.12,39.09c1.47.1,2.3.81,2.48,2.15.16,1.19-1.02,1.53-1.49,2.32-1.02-.95-2.07-1.88-3.01-2.9-.08-.09.43-.87.8-1.17.31-.25.81-.27,1.23-.4h0Z"/>
      <path class="st26" d="M66.49,70.6c1.19-1.3,2.21-1.2,3.04.29.2.37.31.78.46,1.18-1.42.11-2.58-.41-3.5-1.47Z"/>
      <path class="st11" d="M54.33,64.19c-.07-.03-.14-.04-.21-.05-.1-.06-.19-.12-.29-.19-2.36-.58-3.98-2.07-5.28-4.04-1.74-2.65-1.68-5.44-.32-8.09,1.5-2.9,3.84-4.67,7.43-4.57,4.46.13,7.24,1.9,8.41,6.17,1.11,4.06-.67,8.23-4.61,9.97-.7.31-1.43.54-2.14.8h-3,0ZM55.91,48.54c-4.29-.29-7.2,3.45-7.32,7.02-.12,3.68,3.31,7.34,7.3,7.35,4.12.02,7.16-3.4,7.18-8.12,0-2.76-3.16-6.59-7.16-6.26h0Z"/>
      <path class="st12" d="M54.33,64.19h3c-1,.44-2,.91-3,0Z"/>
      <path class="st12" d="M53.83,63.96c.1.06.19.12.29.19-.1-.06-.19-.12-.29-.19Z"/>
      <path class="st19" d="M55.9,48.54c4-.33,7.17,3.5,7.16,6.26-.02,4.72-3.06,8.14-7.18,8.12-3.99-.02-7.41-3.67-7.3-7.35.11-3.57,3.03-7.32,7.32-7.02h0ZM57.47,56.88c.86-.55,1.35-.87,1.92-1.23-.62-.41-1.12-.74-1.81-1.19.68-.48,1.22-.81,1.7-1.22.24-.2.35-.55.52-.83-.36-.12-.78-.44-1.07-.34-2.03.65-3.44,3.33-2.2,5.16.52.77,1.34,1.38,2.13,1.91.29.19.88-.06,1.33-.11-.23-.35-.38-.79-.69-1.04-.49-.39-1.09-.66-1.84-1.1h0ZM54.53,52.5c-2.22-.77-3.31.29-4.08,2.52-.53,1.54,1,3.55,3.28,4.41.97-1.21-.31-1.47-.89-1.92-1.26-.96-1.45-2.21-.34-3.33.57-.58,1.26-1.05,2.03-1.68Z"/>
      <path class="st11" d="M57.47,56.89c.76.44,1.35.71,1.84,1.1.31.25.47.69.69,1.04-.45.05-1.04.3-1.33.11-.79-.53-1.61-1.14-2.13-1.91-1.24-1.83.17-4.51,2.2-5.16.29-.09.71.22,1.07.34-.17.28-.28.63-.52.83-.48.41-1.02.74-1.7,1.22.69.45,1.18.78,1.81,1.19-.64.41-1.28.82-1.92,1.23h0Z"/>
      <path class="st11" d="M54.53,52.51c-.77.63-1.46,1.1-2.03,1.68-1.11,1.12-.91,2.37.34,3.33.58.44,1.87.7.89,1.92-2.28-.86-3.82-2.87-3.28-4.41.77-2.23,1.86-3.29,4.08-2.52Z"/>
    </g>
  </g>
</svg>