<?xml version="1.0" encoding="UTF-8"?>
<svg xmlns="http://www.w3.org/2000/svg" version="1.1" viewBox="0 0 2279.42 618.58">
  <!-- Generator: Adobe Illustrator 30.5.1, SVG Export Plug-In . SVG Version: 2.1.4 Build 3)  -->
  <defs>
    <style>
      .st0 {
        fill: #d8b146;
      }

      .st0, .st1, .st2, .st3 {
        fill-rule: evenodd;
      }

      .st1, .st4 {
        fill: #b01842;
      }

      .st2, .st5 {
        fill: #dbdcdd;
      }

      .st3 {
        fill: #123164;
      }
    </style>
  </defs>
  <g id="Layer_1" data-bbox="0 0 192.756 192.756" data-type="color">
    <g>
      <path class="st3" d="M326,65.39c71.41,0,142.34-8.65,210.85-25.97l8.65-2.17,6.48,6c49.04,45.43,82.7,104.1,97.6,169.74l1.92,8.65-6.25,6.48c-99.04,102.19-171.64,228.38-209.86,364.48l-2.4,8.66-8.65,2.63c-31.87,9.76-65.02,14.7-98.35,14.67-33.18,0-66.34-5.05-98.56-15.15l-8.42-2.63-2.4-8.4C178.14,456.52,105.53,330.59,6.25,228.15l-6.25-6.48,1.93-8.65c14.9-65.39,49.03-124.29,98.56-170.22l6.5-6,8.65,2.17c70.21,17.54,140.88,26.43,210.36,26.43" data-color="2"/>
      <path class="st3" d="M39.43,286.57c0-76.69,29.8-148.57,83.9-202.65C177.43,29.83,249.3,0,325.76,0s148.58,29.82,202.67,83.91c54.1,54.08,83.9,125.96,83.9,202.65,0,157.73-128.62,286.33-286.57,286.33-76.46,0-148.34-29.82-202.43-83.9-54.1-54.11-83.9-125.98-83.9-202.43" data-color="2"/>
      <path class="st5" d="M114.15,64.81c-21.16,20.21-39.34,43.33-53.99,68.66-14.52,25.13-25.37,52.21-32.2,80.41,49.52,51.71,92.66,109.17,128.49,171.16,35.54,61.57,63.46,127.22,83.15,195.53,13.18,3.85,26.8,6.91,40.79,9.07,14.86,2.28,30.09,3.51,45.61,3.51s31.26-1.17,46.26-3.4c13.49-2,26.82-4.92,39.91-8.74,19.72-68.5,47.67-134.37,83.24-196.14,35.69-61.95,78.72-119.37,128.15-171.02-13.67-56.64-43.25-108.2-85.25-148.59-69.48,17.1-140.76,25.75-212.32,25.76-37.34,0-74.16-2.5-110.42-7.2-34.14-4.41-68-10.76-101.42-19.01M44.5,124.39c16.37-28.3,36.9-53.99,60.89-76.2l3.62-3.36,4.73,1.19c34.27,8.68,69.03,15.33,104.1,19.9,35.2,4.57,71.23,6.98,108.15,6.98,71.73.02,143.19-8.85,212.74-26.39l4.75-1.21,3.62,3.37c47.73,44.46,80.92,102.31,95.21,165.96l1.08,4.76-3.4,3.5c-49.81,51.52-93.09,108.97-128.85,171.07-35.65,61.92-63.5,128.01-82.9,196.78l-1.34,4.73-4.72,1.47c-15.47,4.78-31.27,8.38-47.29,10.76-15.96,2.39-32.26,3.58-48.9,3.59-16.41,0-32.55-1.3-48.31-3.72-16.28-2.53-32.35-6.24-48.09-11.12l-4.73-1.47-1.34-4.73c-19.33-68.57-47.15-134.46-82.81-196.14-35.9-62.15-79.29-119.65-129.2-171.23l-3.37-3.5,1.08-4.76c7.12-31.7,19.02-62.13,35.29-90.24" data-color="3"/>
      <path class="st5" d="M46.69,286.57c-.1-74.06,29.32-145.11,81.74-197.44C180.68,36.66,251.7,7.2,325.75,7.28c77.14,0,146.97,31.24,197.52,81.79s81.79,120.36,81.79,197.5c.08,74.05-29.38,145.07-81.85,197.32-52.32,52.44-123.38,81.86-197.45,81.75-74.03.08-145.04-29.35-197.31-81.77-52.41-52.27-81.83-123.27-81.75-197.3M141.25,101.88c-48.99,48.97-76.49,115.42-76.4,184.69-.09,69.22,27.42,135.61,76.43,184.48,48.87,49.01,115.26,76.52,184.47,76.43,69.27.11,135.73-27.39,184.68-76.4,49.03-48.87,76.56-115.28,76.47-184.51.1-69.28-27.42-135.75-76.47-184.68-48.93-49.05-115.39-76.57-184.68-76.47-69.22-.09-135.62,27.43-184.49,76.46" data-color="3"/>
      <path class="st5" d="M230.9,272.75c8.65-1.78,17.62-1.17,25.95,1.75,7.92,2.83,14.75,8.1,19.51,15.04l4.4,10.31-10.29-3.77c-15.28-8.26-30.67-3.7-45.8.8-19.22,5.71-38.08,11.31-57.74-5.32-3.99-2.83-7.29-7.11-9.9-11.48-2.16-3.7-4.06-7.55-5.68-11.52l-6.33-15.21,13.22,9.83c.08.06,27.38,21.06,72.41,9.58l.25-.03Z" data-color="3"/>
      <path class="st1" d="M319.74,197.62c-19.23,0-37.03,3.61-43.99,13.46,0,0-7.7,7.21-9.14,13.46,0,0-49.27-33.42-64.67,39.18,0,0,29.82-21.4,46.89-7.46,0,0,8.65,12.27,24.53,16.34,21.63,5.78,19.23,10.1,20.19,14.67,0,0-2.88,6.73-21.63,18.51-18.51,12.01-29.09,6.24-46.16.73,0,0-1.19,25.24,32.7,24.76,0,0,5.54.48,12.26-.23,0,0-40.63,17.04-25.24,58.9,0,0,13.94-16.85,29.34-20.7,0,0-44.01,50,14.19,98.82,0,0,0-44.71,16.59-58.42,0,0,9.13,35.56,6.24,55.04,0,0-.73,17.07-6.02,25.97,0,0,69-1.44,49.29-84.38,0,0,27.65,9.38,21.88,47.12,0,0,62.02-31.01,21.15-94.72,0,0,23.32,0,30.53,27.89,0,0,33.18-51.22-21.63-100.02,0,0,20.67-5.05,31.97,12.02,0,0-1.44-38.95-38.22-57.94-8.4-4.58,4.81-18.04,1.44-25.49l-82.46-17.51Z" data-color="4"/>
      <path class="st1" d="M362.54,227.42s22.36-28.38,55.77-24.53c0,0-9.36,41.84-46.16,49.53l-9.61-25.01Z" data-color="4"/>
      <path class="st2" d="M373.36,231.52s12.74-12.5,28.13-15.15c0,0-7.69,18.04-25.24,21.63l-2.89-6.48ZM307.47,271.9c-4.07-2.87-9.38-4.07-13.71-1.92,13.23.48,15.4,19.23,29.82,15.4,2.65-.73,5.05-1.92,7.21-3.37-9.36,3.84-17.07-4.81-23.32-10.1M382.7,325.57c-1.65-7.76-4.29-13.61-8-18.21-4.77-5.91-11.32-9.74-19.86-12.85,1.89,8.29,4.16,16.55,4.23,25.11.05,7.99-1.68,14.85-5.19,20.57-2.33,3.65-5.36,6.79-8.92,9.25,2.98-7.92,3.18-14.67,2.22-20.04-1.78-10-7.5-15.23-13.98-22.14-.27,6.16-.18,12.46-1.72,18.49-1.98,7.63-5.78,12.26-9.68,15.07,2.8-8.61.79-16.72-1.34-20.82l-8.17,4.33c.13.38,3.79,7.76-.34,16.19-2.75,5.6-8.3,9.99-12.65,14.33,16.54-.99,31.53-2.74,39.23-21.21.77,12.36-6.8,22.24-13.51,31.79,14.79-2.97,27.2-5.95,36.3-20.22,5.68-8.79,7.74-19.48,6.48-32.17,8.52,11.45,7.46,26.34,7.46,39.87,11.22-13.61,19.57-26.42,19.44-45.52-.09-12.7-4.66-27.44-19.2-41.98l-3.13,9.62c16.39,20.8,14.47,39.18,10.31,50.53" data-color="3"/>
      <path class="st4" d="M251.82,282.36c-6.19-1.77-12.71-2.04-19.03-.77-29.93,7.61-53.02,1.87-66.51-3.81,1.76,2.61,3.79,4.95,6,6.48l.22.16.14.1c16,13.61,32.58,8.68,49.48,3.66,9.73-2.87,19.56-5.78,29.69-5.82" data-color="4"/>
      <path class="st0" d="M335.36,172.61c5.78,9.61,15.15,22.36,26.94,22.36s19.23-5.29,25.01-14.9c-3.37.48-4.32.48-7.69-.48-7.46-2.66-11.06-10.1-9.62-19.71,2.41-8.4,10.82-13.23,19-10.82,2.88.96,5.29,2.41,6.98,4.32-2.04-3.75-2.56-8.14-1.45-12.26,2.4-8.4,12.26-15.15,20.92-13.71l-33.66,82.94h-111.07l-33.89-79.1c8.42-1.44,18.27,5.29,20.67,13.71,1.21,4.07.48,7.21-1.44,10.57,1.69-1.92,4.33-5.53,6.98-6.48,8.17-2.4,17.55,4.81,19.96,12.98,1.44,9.61-1.69,15.62-9.14,18.26-3.37.74-6.25.25-9.61-.23,5.77,9.61,14.42,14.9,26.45,14.9s20.43-12.74,26.21-22.36c-2.67,1.9-5.87,2.91-9.14,2.88-8.5,0-15.4-6.89-15.4-15.39,0-.08,0-.16,0-.24,0-8.66,6.74-15.87,15.4-15.87,2.65,0,5.54.73,7.69,2.17-3.02-2.99-4.75-7.05-4.81-11.3-.04-8.55,6.83-15.53,15.38-15.63,8.65,0,15.63,6.98,15.63,15.63,0,4.32-2.17,8.65-5.05,11.54,2.41-1.44,5.05-2.41,7.92-2.41,8.66,0,15.4,7.21,15.4,15.87s-6.73,15.63-15.4,15.63c-3.37.01-9.16-2.87-9.16-2.87" data-color="5"/>
      <path class="st5" d="M298.69,231.03c-1.64-.13-3.28-.14-4.92-.01-.14,4.51-3.89,8.06-8.4,7.95-3.97.09-7.48-2.59-8.43-6.45-1.55-.16-3.08-.47-4.58-.91,1.06,4.95,3.84,10.83,10.93,12.17.03.01,10.01,2.13,14.29-10.1v-.05c.33-.95.7-1.82,1.1-2.59M282.68,210.38c-1.24.94-2.32,2.06-3.23,3.32l-.25.35-.32.31s-4.2,3.96-6.51,8c2.32,1.25,7.15,2.66,15.54.56l.34-.08c11.05-1.87,17.96.61,21.27,2.41,4.7,1.43,8.65,5.93,8.68,5.94l-6.52,5.91s-4.28-4.81-5.82-.51h-.01c-6.8,19.44-24.11,15.81-24.16,15.8-15.43-2.91-18.25-17.7-18.69-24.81-6.51-3.84-39.38-20.43-53.93,26.67,11.18-5.68,29.64-12.11,42.63-1.5l.51.43.3.42s7.74,10.96,21.97,14.63h.03c21.97,5.88,22.65,11.35,23.29,16.86.05.49.12.99.18,1.28l.3,1.39-.56,1.3s-3.45,8.04-23.38,20.57c-17.55,11.37-28.44,8.43-42.79,3.62,2.3,5.93,8.74,13.76,26.86,13.5h.31s5.34.45,11.52-.21l29.8-3.19-27.53,11.85c-.09.05-31.94,13.42-24.9,45.93,5.82-5.65,15.58-13.63,26.11-16.26l13.77-3.45-9.23,10.79c-.1.13-37.26,42.36,6.65,86,1.08-14.57,4.8-41.32,17.79-52.06l5.49-4.54,1.79,6.89c.03.1,9.26,36.07,6.41,56.48-.06,1.27-.64,11.35-3.36,20.22,16.12-3.11,52.18-16.93,37.69-77.9l-1.93-8.13,7.86,2.84c.08.03,26.41,8.96,25.67,42.71,14.19-10.31,41.36-37.85,12.02-83.56l-4.57-7.12,8.42.13c.08,0,20.52,0,31.05,20.95,6.25-16.03,13.11-51.05-25.21-85.16l-6.5-5.77,8.46-2.02c.05-.01,13.8-3.37,26.13,3.76-3.49-12.2-12.13-30.26-33.41-41.24l-.08-.05-.29-.16c-7.25,6.18-15.93,10.45-25.25,12.41l-1.84-8.88c20.47-4.28,37.68-28.77,41.11-40.91-27.89-.17-46.24,23.11-46.29,23.18l-7.06-5.68c.08-.09,23.9-30.32,59.82-26.19l5.07.58-1.17,4.95c-.01.08-4.15,18.53-17.65,33.89,36.98,20.6,38.44,60.43,38.46,60.54l.83,16.52-9.14-13.81c-4.88-7.37-11.87-9.84-17.52-10.51,46.74,49.06,14.89,98.26,14.79,98.41l-5.59,8.87-2.62-10.13c-3.44-13.32-10.84-19.38-16.93-22.17,32.11,61.68-28.14,91.8-28.33,91.9l-7.89,4.03,1.34-8.77c3.15-20.6-4.42-31.69-10.91-37.26,13.07,78.3-55.41,79.74-55.63,79.74l-8.27.27,4.24-7.12c4.7-7.9,5.37-23.76,5.37-23.81v-.18l.04-.32c1.89-12.74-1.69-32.93-4.11-44.46-9.69,16.56-9.7,48.38-9.7,48.51l-.06,9.62-7.38-6.19c-42.29-35.46-33.59-71.66-23.89-91-4.86,3.6-9.31,7.73-13.26,12.31l-5.02,5.95-2.7-7.31c-10.35-28.14,2.37-46.06,13.79-55.71-35.12-1.27-33.8-29.36-33.79-29.45l.23-5.97,5.68,1.84c2.22.73,3.79,1.26,5.32,1.78,12.96,4.4,22.3,7.56,36.99-1.98l.05-.03c13.42-8.43,17.94-13.58,19.32-15.55l-.04-.27c-.29-2.44-.58-4.88-16.55-9.14-15.56-4.01-24.82-15.14-26.72-17.57-14.47-11-40.89,7.94-40.97,7.99l-9.43,6.63,2.4-11.26c8.78-41.48,27.96-51.06,44.27-50.78,7.96.14,15.65,2.63,22.76,6.06,1.61-2.73,3.46-5.3,5.54-7.69h12.65Z" data-color="3"/>
      <path class="st3" d="M2181.26,189.81h-139.42l-73.06,180.45.23-180.67h-93.8v242.43h164.09l14.75-36.89h117.05l16.85,36.89h91.48l-98.17-242.21ZM1765.28,320.02l-99.1-130.44h-118.91v179.98l-74.65-179.76h-137.57l-57.62,144.04h-85.95c-7.15,30.17-23.5,43.54-53.24,43.54-34.1,0-57.14-25.36-57.14-63.15,0-49.08,19.35-74.43,56.46-74.43,30.43,0,47.7,13.61,52.99,41.94h97.51l.23-3.7c0-58.53-59.22-97-149.33-97-96.33,0-141.95,37.56-149.8,123.74-13.81-14.98-36.41-26.73-53.46-28.11l-36.42-3.23-53.69-.92c-23.03-.47-36.19-8.53-36.19-22.13,0-15.43,13.37-23.97,37.79-23.97,28.11,0,39.4,10.36,39.4,35.94h102.55v-3.23c0-50-48.39-77.66-136.18-77.66-97.48,0-145.18,26.73-145.18,80.88,0,46.33,35.03,71.2,102.09,73.05l39.87.93c29.27.91,42.41,8.05,42.41,23.5,0,13.13-18.44,25.56-37.56,25.56-33.42,0-50.93-11.53-50.93-33.19h-106.24v2.31c0,52.54,53.01,81.33,149.33,81.33s138.5-20.26,153.25-68.42c29.73,50.69,68.44,69.13,143.8,69.13,47.94,0,72.81-6.69,103.94-29.29l-9.93,24.67h90.58l16.59-37.79h118.91l15.91,37.34h155.31v-143.58l110.4,144.03h109.92v-242.15h-90.1v130.2h-.03ZM2079.16,334.31l32.02-80.21,36.41,79.75-68.43.45ZM1369.83,334.31l32.27-82.73,36.86,82.73h-69.13Z" data-color="2"/>
    </g>
  </g>
</svg>